<?xml version="1.0" encoding="UTF-8"?>
<svg xmlns="http://www.w3.org/2000/svg" xmlns:xlink="http://www.w3.org/1999/xlink" version="1.2" >
<font id="Glacial Indifference Regular">
<font-face  font-family="Glacial Indifference" units-per-em="1000" ascent="750" descent="-250" font-style="normal" font-weight="400" font-stretch="normal" cap-height="680" x-height="440" underline-position="-122" underline-thickness="45" />
<missing-glyph  horiz-adv-x="270" d="" />
<glyph glyph-name="NULL" d="" />
<glyph glyph-name="&amp;#x0;" d="" />
<glyph glyph-name="&amp;#xd;" unicode="&#xd;" d="" />
<glyph glyph-name="space" unicode="&#x20;" horiz-adv-x="270" d="" />
<glyph glyph-name="exclam" unicode="&#x21;" horiz-adv-x="300" d="M191.5 6.5 C203.167 17.5 209 30.8333 209 46.5 C209 62.1667 203.167 75.5 191.5 86.5 C179.833 97.5 166.167 103 150.5 103 C134.833 103 121.167 97.3333 109.5 86 C97.8333 74.6667 92 61.3333 92 46 C92 30.6667 97.8333 17.5 109.5 6.5 C121.167 -4.5 134.833 -10 150.5 -10 C166.167 -10 179.833 -4.5 191.5 6.5 L191.5 6.5 Z M202 750 L98 750 L117 203 L183 203 L202 750 Z " />
<glyph glyph-name="quotedbl" unicode="&#x22;" horiz-adv-x="367" d="M130 750 L44 750 L61 498 L112 498 L130 750 Z M323 750 L237 750 L255 498 L306 498 L323 750 Z " />
<glyph glyph-name="numbersign" unicode="&#x23;" horiz-adv-x="569" d="M220 437 L378 437 L357 263 L197 263 L220 437 Z M432 437 L539 437 L539 488 L437 488 L461 680 L409 687 L384 488 L225 488 L249 680 L197 687 L173 488 L61 488 L61 437 L167 437 L144 263 L33 263 L33 212 L136 212 L110 5 L163 -2 L190 210 L350 210 L325 5 L377 -2 L403 210 L511 210 L511 263 L410 263 L432 437 Z " />
<glyph glyph-name="dollar" unicode="&#x24;" horiz-adv-x="590" d="M284 -70 L339 -70 L339 -12 C404.811 -6.01721 456.977 11.6495 495.5 41 C541.833 76.3016 565 125.302 565 188 C565 246.938 541.333 291.938 494 323 C472.667 337 448.5 348.167 421.5 356.5 C394.5 364.833 367 372.333 339 379 L339 619 C351 617 363.167 614.167 375.5 610.5 C418.907 597.595 444.074 572.095 451 534 L534 534 C528.667 558.667 519.667 580 507 598 C471.587 648.323 415.587 677.99 339 687 L339 750 L284 750 L284 690 C221.566 688.513 169.733 673.18 128.5 644 C80.8333 610.267 57 563.6 57 504 C57 447.5 81 403.5 129 372 C150.333 358 174.5 346.667 201.5 338 C228.5 329.333 256 321.333 284 314 L284 60 C191.71 63.4182 139.71 99.0848 128 167 L37 167 C42.3333 135.667 52.8333 109 68.5 87 C112.68 24.9606 184.513 -8.3727 284 -13 L284 -70 Z M284 392 C238.062 404.25 203.562 418.25 180.5 434 C151.5 453.805 137 481.805 137 518 C137 552.349 152.667 578.849 184 597.5 C211.44 613.833 244.773 622 284 622 L284 392 Z M339 300 C359 294.667 377.833 288.667 395.5 282 C455.167 259.484 485 225.151 485 179 C485 145.635 469.333 118.135 438 96.5 C410.089 77.2282 377.089 65.3949 339 61 L339 300 Z " />
<glyph glyph-name="percent" unicode="&#x25;" horiz-adv-x="731" d="M557 222 C582.037 222 600.204 211.833 611.5 191.5 C616.5 182.5 620 172.667 622 162 C624 151.333 625 137.689 625 121.067 C625 104.444 620.167 87.7556 610.5 71 C605.5 62.3333 598.5 55.1667 589.5 49.5 C580.5 43.8333 569.5 41 556.5 41 C543.5 41 532.5 43.8333 523.5 49.5 C500.5 63.9815 489 91.1481 489 131 C489 156.067 493.5 176.4 502.5 192 C514.038 212 532.205 222 557 222 L557 222 Z M208 629.5 C216.667 623.833 223.5 616.667 228.5 608 C233.5 599.333 237 589.667 239 579 C241 568.333 242 554.125 242 536.375 C242 518.625 237.333 502.167 228 487 C215.692 467 197.692 457 174 457 C149.205 457 131.038 467 119.5 487 C114.5 495.667 111 505.333 109 516 C107 526.667 106 540.767 106 558.3 C106 575.833 110.5 592.4 119.5 608 C124.5 616.667 131.5 623.833 140.5 629.5 C149.5 635.167 160.833 638 174.5 638 C188.167 638 199.333 635.167 208 629.5 L208 629.5 Z M557 -10 C600.876 -10 634.709 6.5 658.5 39.5 C678.167 66.7796 688 97.2796 688 131 C688 162.956 678.667 192.622 660 220 C635.909 255.333 601.576 273 557 273 C511.758 273 477.091 255.333 453 220 C434.333 192.622 425 162.956 425 131 C425 96.875 435 66.375 455 39.5 C479.558 6.5 513.558 -10 557 -10 L557 -10 Z M269 0 L544 680 L472 680 L199 0 L269 0 Z M174 406 C217.442 406 251.442 422.5 276 455.5 C296 482.375 306 512.875 306 547 C306 578.956 296.667 608.622 278 636 C253.909 671.333 219.242 689 174 689 C129.424 689 95.0909 671.333 71 636 C52.3333 608.622 43 578.956 43 547 C43 513.28 52.8333 482.78 72.5 455.5 C96.2907 422.5 130.124 406 174 406 L174 406 Z " />
<glyph glyph-name="ampersand" unicode="&#x26;" horiz-adv-x="689" d="M263 345 L412 154 C402 144 391.167 133.5 379.5 122.5 C335.308 80.8333 294.808 60 258 60 C224.111 60 194.944 73.3333 170.5 100 C146.167 126.545 134 156.545 134 190 C134 218 150.4 248.4 183.2 281.2 C198 296 224.6 317.267 263 345 L263 345 Z M257 456.5 C227.667 487.056 213 516.944 213 546.167 C213 575.389 221.333 596.667 238 610 C254.667 623.333 273.167 629.5 293.5 628.5 C313.833 627.5 332.333 620 349 606 C365.667 592 374 572.667 374 548 C374 523.333 363.333 500.333 342 479 C332.667 469.667 322.5 461.167 311.5 453.5 C300.5 445.833 290 438.333 280 431 C272.667 439.667 265 448.167 257 456.5 L257 456.5 Z M595 265 L538 303 L500 255 C487.333 239 474.333 223 461 207 L321 386 C333.667 396 347 406.833 361 418.5 C413 461.833 439 505.333 439 549 C439 590.043 425.167 624.043 397.5 651 C370.816 677 336.316 690 294 690 C250 690 214.667 676.167 188 648.5 C161.333 620.833 148 585.846 148 543.538 C148 501.231 172 452.385 220 397 C200 382.333 180.667 368.167 162 354.5 C97.3333 307.155 65 250.655 65 185 C65 128.333 83.8333 81.1667 121.5 43.5 C139.167 25.8333 160.167 12.1667 184.5 2.5 C208.833 -7.16667 236.6 -12 267.8 -12 C299 -12 334.956 0.722229 375.667 26.1667 C396.111 38.9444 422.889 61.8889 456 95 L530 -2 L622 0 L505 153 C555.076 213.962 585.076 251.295 595 265 L595 265 Z " />
<glyph glyph-name="quotesingle" unicode="&#x27;" horiz-adv-x="173" d="M130 750 L44 750 L61 498 L112 498 L130 750 Z " />
<glyph glyph-name="parenleft" unicode="&#x28;" horiz-adv-x="308" d="M244 750 L176 750 C150.172 708.029 128.005 657.863 109.5 599.5 C76.5 495.423 60 383.256 60 263 C60 143.667 78.9933 25.1208 116.98 -92.6376 C134.966 -148.396 154.973 -192.183 177 -224 L243 -224 C214.09 -174.439 189.423 -116.606 169 -50.5 C156.333 -9.5 145.667 37.3333 137 90 C128.333 142.667 124 200 124 262 C124 324 128.5 381.167 137.5 433.5 C159.274 560.113 194.774 665.613 244 750 L244 750 Z " />
<glyph glyph-name="parenright" unicode="&#x29;" horiz-adv-x="308" d="M233 453.5 C210.983 577.527 177.317 676.36 132 750 L64 750 C92.7462 700.721 117.413 642.221 138 574.5 C150.667 532.833 161.5 485.833 170.5 433.5 C179.5 381.167 184 324 184 262 C184 200 179.5 142.667 170.5 90 C149.047 -35.5379 113.881 -140.205 65 -224 L131 -224 C153.027 -192.183 175.36 -141.183 198 -71 C211.333 -29.6667 223 19 233 75 C243 131 248 194 248 264 C248 334 243 397.167 233 453.5 L233 453.5 Z " />
<glyph glyph-name="asterisk" unicode="&#x2a;" horiz-adv-x="530" d="M454 582 L427 664 L283 588 L308 750 L222 750 L247 588 L103 664 L77 582 L236 554 L122 443 L192 392 L265 533 L338 392 L408 443 L294 554 L454 582 Z " />
<glyph glyph-name="plus" unicode="&#x2b;" horiz-adv-x="460" d="M423 194 L423 251 L259 251 L259 415 L201 415 L201 251 L38 251 L38 194 L201 194 L201 30 L259 30 L259 194 L423 194 Z " />
<glyph glyph-name="comma" unicode="&#x2c;" horiz-adv-x="232" d="M204 118 L108 118 L50 -141 L92 -141 L204 118 Z " />
<glyph glyph-name="hyphen" unicode="&#x2d;" horiz-adv-x="410" d="M373 194 L373 251 L38 251 L38 194 L373 194 Z " />
<glyph glyph-name="period" unicode="&#x2e;" horiz-adv-x="267" d="M133 -10 C148.333 -10 162 -4.5 174 6.5 C186 17.5 192 30.8333 192 46.5 C192 62.1667 186.167 75.5 174.5 86.5 C162.833 97.5 149 103 133 103 C117 103 103.333 97.3333 92 86 C80.6667 74.6667 75 61.3333 75 46 C75 30.6667 80.8333 17.5 92.5 6.5 C104.167 -4.5 117.667 -10 133 -10 L133 -10 Z " />
<glyph glyph-name="slash" unicode="&#x2f;" horiz-adv-x="538" d="M506 750 L431 750 L43 -201 L118 -201 L506 750 Z " />
<glyph glyph-name="zero" unicode="0" horiz-adv-x="560" d="M334.5 601 C366.276 581.545 389.776 550.712 405 508.5 C424.333 454.894 434 398.061 434 338 C434 324 433 307.5 431 288.5 C423.238 214.76 404.071 156.926 373.5 115 C347.736 79.6667 316.236 62 279 62 C237.397 62 203.564 79.5 177.5 114.5 C165.833 130.167 156.167 147.833 148.5 167.5 C140.833 187.167 135 207.333 131 228 C127 248.667 124.167 268.667 122.5 288 C120.833 307.333 120 329.597 120 354.792 C120 379.986 123.667 411.222 131 448.5 C135 468.833 140.667 489 148 509 C155.333 529 164.833 547 176.5 563 C188.167 579 202.167 591.833 218.5 601.5 C234.833 611.167 254.167 616 276.5 616 C298.833 616 318.167 611 334.5 601 L334.5 601 Z M280 -9 C360.35 -9 420.85 30.5 461.5 109.5 C493.833 172.336 510 249.503 510 341 C510 432.497 493.833 509.664 461.5 572.5 C420.85 651.5 360.35 691 280 691 C199.65 691 139.15 651.5 98.5 572.5 C66.1667 509.664 50 432.497 50 341 C50 249.503 66.1667 172.336 98.5 109.5 C139.15 30.5 199.65 -9 280 -9 L280 -9 Z " />
<glyph glyph-name="one" unicode="1" horiz-adv-x="287" d="M148 0 L218 0 L218 688 L50 670 L50 609 L148 609 L148 0 Z " />
<glyph glyph-name="two" unicode="2" horiz-adv-x="615" d="M63 0 L542 0 L542 70 L232 70 L469 305 C513 349 535 402 535 464 C535 527.429 512.5 580.929 467.5 624.5 C421.713 668.833 367.546 691 305 691 C239.938 691 184.438 667.667 138.5 621 C93.4353 575.22 72.2686 519.553 75 454 L146 454 C142.159 496.248 156.326 534.581 188.5 569 C219.659 602.333 257.493 619 302 619 C345.619 619 382.786 604 413.5 574 C444.5 543.721 460 507.388 460 465 C460 421.667 445 385 415 355 L63 0 Z " />
<glyph glyph-name="three" unicode="3" horiz-adv-x="520" d="M356.5 7.5 C384.167 19.1667 408.5 35.1667 429.5 55.5 C474.5 99.0714 497 152.571 497 216 C497 279.45 474.167 333.283 428.5 377.5 C385.653 418.987 331.486 441.82 266 446 L236 428 L449 680 L83 680 L83 610 L307 610 L101 370 L154 327 C186 359 224 375 268 375 C312 375 349.5 359.5 380.5 328.5 C411.5 297.5 427 260.333 427 217 C427 174.597 411.167 137.93 379.5 107 C365.167 93 348.333 81.8333 329 73.5 C309.667 65.1667 286.333 61 259 61 C231.667 61 204.333 70.1667 177 88.5 C149.667 106.833 130.333 131.667 119 163 L51 140 C66.7224 95.4531 94.8891 59.2864 135.5 31.5 C154.5 18.5 175.333 8.33333 198 1 C220.667 -6.33333 245.833 -10 273.5 -10 C301.167 -10 328.833 -4.16667 356.5 7.5 L356.5 7.5 Z " />
<glyph glyph-name="four" unicode="4" horiz-adv-x="605" d="M399 604 L399 211 L139 211 L399 604 Z M472 139 L558 139 L558 211 L472 211 L471 680 L373 680 L15 139 L399 139 L399 0 L472 0 L472 139 Z " />
<glyph glyph-name="five" unicode="5" horiz-adv-x="550" d="M179 428 L225 610 L471 610 L471 680 L172 680 L94 375 L170 341 C198.667 362.333 233.189 373 273.568 373 C313.947 373 349.091 357.333 379 326 C409.667 293.873 425 256.873 425 215 C425 171.576 409.333 134.909 378 105 C363.333 91 346.5 79.8333 327.5 71.5 C308.5 63.1667 285.167 59 257.5 59 C229.833 59 202.333 68.3333 175 87 C147.667 105.667 128.333 130 117 160 L49 138 C65.3567 93.0191 93.5234 56.8524 133.5 29.5 C173.936 1.83333 218.103 -12 266 -12 C330.392 -12 385.058 10.8333 430 56.5 C474.667 101.887 497 156.387 497 220 C497 283.419 475 336.419 431 379 C410.333 399 386.333 414.833 359 426.5 C331.667 438.167 303.367 444 274.1 444 C244.833 444 213.133 438.667 179 428 L179 428 Z " />
<glyph glyph-name="six" unicode="6" horiz-adv-x="512" d="M257.5 371 C300.879 371 337.879 355.333 368.5 324 C398.833 292.961 414 255.961 414 213 C414 171 398.667 134.667 368 104 C338 74 301 59 257 59 C214.054 59 176.721 74.5 145 105.5 C113.667 136.121 98 172.955 98 216 C98 258.758 113.667 295.091 145 325 C159.667 339 176.667 350.167 196 358.5 C215.333 366.833 235.833 371 257.5 371 L257.5 371 Z M485 218 C485 283.708 461.667 337.708 415 380 C371.787 419.162 316.12 440.162 248 443 L228 430 L436 680 L344 680 L78 359 C44 318.2 27 270.533 27 216 C27 152.946 49.3333 99.4462 94 55.5 C139.06 11.1667 193.06 -11 256 -11 C320 -11 374 11 418 55 C438.667 75.6667 455 99.6667 467 127 C479 154.333 485 184.667 485 218 L485 218 Z " />
<glyph glyph-name="seven" unicode="7" horiz-adv-x="493" d="M158 0 L457 677 L30 677 L30 607 L348 607 L80 0 L158 0 Z " />
<glyph glyph-name="eight" unicode="8" horiz-adv-x="526" d="M263 346 C303.281 346 337.447 332.333 365.5 305 C393.167 278.043 407 244.709 407 205 C407 165.772 393.333 131.772 366 103 C338.767 74.3333 304.433 60 263 60 C221.567 60 187.233 74.3333 160 103 C132.667 131.772 119 165.772 119 205 C119 244.709 132.833 278.043 160.5 305 C188.553 332.333 222.719 346 263 346 L263 346 Z M263 622 C295.578 622 323.244 611.333 346 590 C369.333 568.125 381 541.125 381 509 C381 477.667 369.333 450.333 346 427 C323.333 404.333 295.667 393 263 393 C230.333 393 202.667 404.333 180 427 C156.667 450.333 145 477.667 145 509 C145 541.125 156.667 568.125 180 590 C202.756 611.333 230.422 622 263 622 L263 622 Z M263 -10 C325.415 -10 377.915 8.5 420.5 45.5 C440.833 63.1667 456.833 84.5 468.5 109.5 C480.167 134.5 486 163.167 486 195.5 C486 227.833 476.167 259.833 456.5 291.5 C436.833 323.167 408.667 349 372 369 C426 413.667 453 462.157 453 514.471 C453 566.784 434.5 609.627 397.5 643 C362.022 675 317.188 691 263 691 C208.812 691 163.978 675 128.5 643 C91.5 609.627 73 566.961 73 515 C73 462.333 100 413.667 154 369 C117.333 349 89.1667 323.167 69.5 291.5 C49.8333 259.833 40 227.333 40 194 C40 132.94 61.8333 83.4399 105.5 45.5 C148.085 8.5 200.585 -10 263 -10 L263 -10 Z " />
<glyph glyph-name="nine" unicode="9" horiz-adv-x="512" d="M254.5 309 C211.121 309 174.121 324.667 143.5 356 C113.167 387.039 98 424.039 98 467 C98 509 113.333 545.333 144 576 C174 606 211 621 255 621 C297.946 621 335.279 605.5 367 574.5 C398.333 543.879 414 507.045 414 464 C414 422.264 398.167 385.93 366.5 355 C352.167 341 335.333 329.833 316 321.5 C296.667 313.167 276.167 309 254.5 309 L254.5 309 Z M27 462 C27 396.292 50.3333 342.292 97 300 C140.213 260.838 195.88 239.838 264 237 L284 250 L76 0 L168 0 L434 321 C468 361.8 485 409.467 485 464 C485 527.054 462.667 580.554 418 624.5 C372.94 668.833 318.94 691 256 691 C192 691 138 669 94 625 C73.3333 604.333 57 580.333 45 553 C33 525.667 27 495.333 27 462 L27 462 Z " />
<glyph glyph-name="colon" unicode="&#x3a;" horiz-adv-x="267" d="M133 -10 C148.333 -10 162 -4.5 174 6.5 C186 17.5 192 30.8333 192 46.5 C192 62.1667 186.167 75.5 174.5 86.5 C162.833 97.5 149 103 133 103 C117 103 103.333 97.3333 92 86 C80.6667 74.6667 75 61.3333 75 46 C75 30.6667 80.8333 17.5 92.5 6.5 C104.167 -4.5 117.667 -10 133 -10 L133 -10 Z M133 377 C148.333 377 162 382.5 174 393.5 C186 404.5 192 417.833 192 433.5 C192 449.167 186.167 462.5 174.5 473.5 C162.833 484.5 149 490 133 490 C117 490 103.333 484.333 92 473 C80.6667 461.667 75 448.333 75 433 C75 417.667 80.8333 404.5 92.5 393.5 C104.167 382.5 117.667 377 133 377 L133 377 Z " />
<glyph glyph-name="semicolon" unicode="&#x3b;" horiz-adv-x="267" d="M133 377 C148.333 377 162 382.5 174 393.5 C186 404.5 192 417.833 192 433.5 C192 449.167 186.167 462.5 174.5 473.5 C162.833 484.5 149 490 133 490 C117 490 103.333 484.333 92 473 C80.6667 461.667 75 448.333 75 433 C75 417.667 80.8333 404.5 92.5 393.5 C104.167 382.5 117.667 377 133 377 L133 377 Z M195 118 L99 118 L41 -141 L83 -141 L195 118 Z " />
<glyph glyph-name="less" unicode="&#x3c;" horiz-adv-x="516" d="M471 -38 L471 34 L103 208 L471 383 L471 455 L45 244 L45 173 L471 -38 Z " />
<glyph glyph-name="equal" unicode="&#x3d;" horiz-adv-x="460" d="M383 101 L383 158 L48 158 L48 101 L383 101 Z M383 282 L383 339 L48 339 L48 282 L383 282 Z " />
<glyph glyph-name="greater" unicode="&#x3e;" horiz-adv-x="516" d="M45 34 L45 -38 L471 173 L471 244 L45 455 L45 383 L413 208 L45 34 Z " />
<glyph glyph-name="question" unicode="&#x3f;" horiz-adv-x="506" d="M297.5 6.5 C309.167 17.5 315 30.8333 315 46.5 C315 62.1667 309.167 75.5 297.5 86.5 C285.833 97.5 272.167 103 256.5 103 C240.833 103 227.167 97.3333 215.5 86 C203.833 74.6667 198 61.3333 198 46 C198 30.6667 203.833 17.5 215.5 6.5 C227.167 -4.5 240.833 -10 256.5 -10 C272.167 -10 285.833 -4.5 297.5 6.5 L297.5 6.5 Z M298 203 L298 377 C298 401.627 311 425.794 337 449.5 C348.333 459.833 360.333 469.833 373 479.5 C385.667 489.167 397.667 499.5 409 510.5 C435 535.735 448 563.902 448 595 C448 647.83 428.5 689.33 389.5 719.5 C354.598 746.5 309.764 760 255 760 C199.15 760 154.65 747 121.5 721 C84.9097 692.302 64.0764 651.302 59 598 L142 598 C145.333 629.333 157.5 652.833 178.5 668.5 C199.5 684.167 225.167 692 255.5 692 C285.833 692 311.333 684 332 668 C352.667 652 363 627.667 363 595 C363 579 358.577 564.768 349.732 552.305 C340.887 539.841 320.31 523.406 288 503 C238 471.421 213 429.754 213 378 L213 203 L298 203 Z " />
<glyph glyph-name="at" unicode="&#x40;" horiz-adv-x="551" d="M289.5 180.5 C279.833 192.833 275 206.5 275 221.5 C275 236.5 279.833 250.167 289.5 262.5 C299.167 274.833 313.5 281 332.5 281 C351.5 281 365.833 274.833 375.5 262.5 C385.167 250.167 390 236.5 390 221.5 C390 206.5 385.167 192.833 375.5 180.5 C365.833 168.167 351.5 162 332.5 162 C313.5 162 299.167 168.167 289.5 180.5 L289.5 180.5 Z M453 113 L453 345 C453 379.316 439.333 407.982 412 431 C385.083 453.667 350.75 465 309 465 C238.833 465 182.5 442.333 140 397 C98.6667 352.911 78 296.244 78 227 C78 159.073 101 103.906 147 61.5 C191.475 20.5 248.808 0 319 0 L449 0 L449 55 L319 55 C270.797 55 229.297 71.3333 194.5 104 C158.167 138.109 140 179.109 140 227 C140 277.606 155.333 318.939 186 351 C200.667 366.333 218.5 378.167 239.5 386.5 C260.5 394.833 285 399 313 399 C341 399 362.667 391.833 378 377.5 C393.333 363.167 401 336 401 296 C381.667 325.333 353.667 339.333 317 338 C287.489 338 262.156 326.667 241 304 C221 282.571 211 256.905 211 227 C211 192.422 221.333 163.422 242 140 C252 128.667 263.833 119.667 277.5 113 C291.167 106.333 306.5 103 323.5 103 C340.5 103 356.667 107.333 372 116 C387.333 124.667 397 136.667 401 152 L401 113 L453 113 Z " />
<glyph glyph-name="A" unicode="A" horiz-adv-x="617" d="M185.023 250 L309 563 L432.421 250 L185.023 250 Z M607 0 L309 727 L10 0 L86 0 L159.277 185 L458.052 185 L531 0 L607 0 Z " />
<glyph glyph-name="B" unicode="B" horiz-adv-x="539" d="M519 189.5 C519 237.912 507.333 278.245 484 310.5 C460.596 342.852 428.93 364.352 389 375 C412.775 385.567 432.275 403.9 447.5 430 C454.5 442 459.833 454.5 463.5 467.5 C467.167 480.5 469 498.333 469 521 C469 543.667 463.667 566 453 588 C423.263 649.333 358.596 680 259 680 L75 680 L75 0 L283 0 C352.306 0 407.639 15.8333 449 47.5 C470.333 63.8333 487.333 84.6667 500 110 C512.667 135.333 519 161.833 519 189.5 L519 189.5 Z M399 510 C399 473.333 388 446 366 428 C344 410 315 401 279 401 L145 401 L145 613 L259 613 C352.333 613 399 578.667 399 510 L399 510 Z M449 203 C449 162.538 435.167 129.538 407.5 104 C380.778 79.3333 345.944 67 303 67 L145 67 L145 331 L314 331 C349.798 331 380.965 319.167 407.5 295.5 C419.833 284.5 429.833 271.333 437.5 256 C445.167 240.667 449 223 449 203 L449 203 Z " />
<glyph glyph-name="C" unicode="C" horiz-adv-x="729" d="M699 208 L622 208 C598.667 164 565.833 128.667 523.5 102 C481.167 75.3333 434.667 62 384 62 C309.482 62 245.649 89.6667 192.5 145 C140.833 198.79 115 263.457 115 339 C115 415.21 140.833 480.21 192.5 534 C216.833 559.333 245.333 579.5 278 594.5 C310.667 609.5 342.667 617 374 617 C405.333 617 432.833 613.5 456.5 606.5 C529.379 584.944 584.212 540.444 621 473 L698 473 C672.405 537.662 631.071 589.828 574 629.5 C516.936 669.167 453.602 689 384 689 C289.778 689 209.444 654.333 143 585 C112.333 553 88.3333 515.833 71 473.5 C53.6667 431.167 45 386.333 45 339 C45 243.841 77.6667 162.174 143 94 C209.444 24.6667 289.778 -10 384 -10 C453.31 -10 516.977 10.1667 575 50.5 C632.433 90.4227 673.766 142.923 699 208 L699 208 Z " />
<glyph glyph-name="D" unicode="D" horiz-adv-x="648" d="M603 340 C603 389.333 593.833 434.833 575.5 476.5 C557.167 518.167 532.333 554 501 584 C469.667 614 432.667 637.5 390 654.5 C347.333 671.5 301.667 680 253 680 L75 680 L75 0 L253 0 C301.667 0 347.333 8.5 390 25.5 C432.667 42.5 469.667 66 501 96 C532.333 126 557.167 161.833 575.5 203.5 C593.833 245.167 603 290.667 603 340 L603 340 Z M535 340 C535 262.456 507.667 197.789 453 146 C399.519 95.3333 333.519 70 255 70 L145 70 L145 610 L255 610 C333.519 610 399.519 584.667 453 534 C507.667 482.211 535 417.544 535 340 L535 340 Z " />
<glyph glyph-name="E" unicode="E" horiz-adv-x="554" d="M479 0 L479 65 L145 65 L145 307 L469 307 L469 373 L145 373 L145 615 L479 615 L479 680 L75 680 L75 0 L479 0 Z " />
<glyph glyph-name="F" unicode="F" horiz-adv-x="499" d="M479 615 L479 680 L75 680 L75 0 L145 0 L145 307 L469 307 L469 373 L145 373 L145 615 L479 615 Z " />
<glyph glyph-name="G" unicode="G" horiz-adv-x="791" d="M746 318 L392 318 L392 257 L668 257 C647.888 198.004 612.771 150.755 562.651 115.253 C512.531 79.7509 456.647 62 395 62 C317.286 62 251.19 89.5965 196.714 144.789 C142.238 199.982 115 266.053 115 343 C115 420.333 142.333 486.333 197 541 C251.667 595.667 317.667 623 395 623 C453.255 623 506.115 606.597 553.578 573.792 C601.041 540.987 635.515 497.056 657 442 L731 442 C708.228 517.015 665.719 577.602 603.474 623.761 C541.229 669.92 469.404 693 388 693 C344.667 693 301.667 683.833 259 665.5 C216.333 647.167 179.167 622.167 147.5 590.5 C115.833 558.833 90.8333 521.667 72.5 479 C54.1667 436.333 45 390.833 45 342.5 C45 294.167 54.1667 248.667 72.5 206 C90.8333 163.333 115.833 126.167 147.5 94.5 C179.167 62.8333 216.333 37.8333 259 19.5 C301.667 1.16667 347 -8 395 -8 C477.453 -8 551.731 18.6541 617.833 71.9624 C683.936 125.271 724.324 193.283 739 276 L746 318 Z " />
<glyph glyph-name="H" unicode="H" horiz-adv-x="599" d="M145 0 L145 304 L454 304 L454 0 L524 0 L524 680 L454 680 L454 374 L145 374 L145 680 L75 680 L75 0 L145 0 Z " />
<glyph glyph-name="I" unicode="I" horiz-adv-x="220" d="M145 0 L145 680 L75 680 L75 0 L145 0 Z " />
<glyph glyph-name="J" unicode="J" horiz-adv-x="365" d="M305 168 L305 680 L235 680 L235 168 C235 125.38 218.833 95.0465 186.5 77 C159.226 61.7773 126.226 56.444 87.5 61 C51.0714 65.2857 23.5714 75.2857 5 91 L5 14 C11.6667 8.66667 23.8333 3.5 41.5 -1.5 C59.1667 -6.5 79.1667 -9.33333 101.5 -10 C155.681 -11.6173 200.681 -0.284012 236.5 24 C282.167 54.9604 305 102.96 305 168 L305 168 Z " />
<glyph glyph-name="K" unicode="K" horiz-adv-x="474" d="M145 0 L145 319.098 L374 0 L464 0 L214 340 L464 680 L374 680 L145 360.902 L145 680 L75 680 L75 0 L145 0 Z " />
<glyph glyph-name="L" unicode="L" horiz-adv-x="408" d="M145 70 L145 680 L75 680 L75 0 L110 0 L145 0 L388 0 L388 70 L145 70 Z " />
<glyph glyph-name="M" unicode="M" horiz-adv-x="783" d="M702 0 L773 0 L615 725 L392 143 L169 725 L10 0 L82 0 L187 484 L392 -40 L596 484 L702 0 Z " />
<glyph glyph-name="N" unicode="N" horiz-adv-x="602" d="M145 501 L527 -42 L527 680 L457 680 L457 180 L75 723 L75 0 L145 0 L145 501 Z " />
<glyph glyph-name="O" unicode="O" horiz-adv-x="789" d="M674 342 C674 264.667 646.667 198.667 592 144 C537.333 89.3333 471.333 62 394 62 C317.333 62 251.667 89.3333 197 144 C142.333 198.667 115 264.667 115 342 C115 418.667 142.333 484.333 197 539 C251.667 593.667 317.333 621 394 621 C471.333 621 537.333 593.667 592 539 C646.667 484.333 674 418.667 674 342 L674 342 Z M744 342 C744 390 734.833 435.333 716.5 478 C698.167 520.667 673.167 557.667 641.5 589 C609.833 620.333 572.667 645.167 530 663.5 C487.333 681.833 442 691 394 691 C346 691 300.833 681.833 258.5 663.5 C216.167 645.167 179.167 620.333 147.5 589 C115.833 557.667 90.8333 520.667 72.5 478 C54.1667 435.333 45 390 45 342 C45 294 54.1667 248.667 72.5 206 C90.8333 163.333 115.833 126.167 147.5 94.5 C179.167 62.8333 216.167 37.8333 258.5 19.5 C300.833 1.16667 346 -8 394 -8 C442 -8 487.333 1.16667 530 19.5 C572.667 37.8333 609.833 62.8333 641.5 94.5 C673.167 126.167 698.167 163.333 716.5 206 C734.833 248.667 744 294 744 342 L744 342 Z " />
<glyph glyph-name="P" unicode="P" horiz-adv-x="529" d="M145 337.269 L145 613.269 L303 613.269 C344.333 613.269 377.333 600.602 402 575.269 C426.667 549.935 439 517.199 439 477.061 C439 436.921 426 403.491 400 376.769 C374.378 350.435 342.045 337.269 303 337.269 L145 337.269 Z M509 475.269 C509 535.19 487.833 584.523 445.5 623.269 C403.982 661.269 353.148 680.269 293 680.269 L75 680.269 L75 0.268555 L145 0.268555 L145 269.269 L293 269.269 C353.546 269.269 404.379 288.435 445.5 326.769 C487.833 366.232 509 415.732 509 475.269 L509 475.269 Z " />
<glyph glyph-name="Q" unicode="Q" horiz-adv-x="784" d="M744 339 C744 387 734.833 432.333 716.5 475 C698.167 517.667 673.167 554.833 641.5 586.5 C609.833 618.167 572.667 643.167 530 661.5 C487.333 679.833 442 689 394 689 C346 689 300.833 679.833 258.5 661.5 C216.167 643.167 179.167 618.167 147.5 586.5 C115.833 554.833 90.8333 517.667 72.5 475 C54.1667 432.333 45 387 45 339 C45 291 54.1667 245.833 72.5 203.5 C90.8333 161.167 115.833 124.167 147.5 92.5 C179.167 60.8333 216.167 35.8333 258.5 17.5 C300.833 -0.833328 346 -10 394 -10 C422.945 -10 450.92 -6.66667 477.926 0 L754 0 L754 57 L652 57 C627.496 51.5139 601.283 45.6962 573.363 39.5469 C598.363 54.4246 621.076 72.0756 641.5 92.5 C673.167 124.167 698.167 161.167 716.5 203.5 C734.833 245.833 744 291 744 339 L744 339 Z M674 339 C674 262.333 646.667 196.667 592 142 C537.333 87.3333 471.333 60 394 60 C317.333 60 251.667 87.3333 197 142 C142.333 196.667 115 262.333 115 339 C115 416.333 142.333 482.333 197 537 C251.667 591.667 317.333 619 394 619 C471.333 619 537.333 591.667 592 537 C646.667 482.333 674 416.333 674 339 L674 339 Z " />
<glyph glyph-name="R" unicode="R" horiz-adv-x="544" d="M145 336 L145 613 L303 613 C344.333 613 377.333 600.167 402 574.5 C426.667 548.833 439 516.194 439 476.583 C439 436.972 426 403.444 400 376 C374.737 349.333 342.404 336 303 336 L145 336 Z M509 475 C509 533.87 487.833 583.037 445.5 622.5 C404.379 660.833 353.545 680 293 680 L75 680 L75 0 L145 0 L145 269 L226.635 269 L426 0 L520 0 L310.66 269.561 C363.495 272.974 408.441 291.954 445.5 326.5 C487.833 365.963 509 415.463 509 475 L509 475 Z " />
<glyph glyph-name="S" unicode="S" horiz-adv-x="574" d="M263.889 320.737 C351.963 299.615 411.717 276.231 443.152 250.585 C465.051 232.862 476 209.833 476 181.5 C476 153.167 470.123 130.805 458.37 114.416 C428.123 72.1387 374.986 51 298.957 51 C192.319 51 132.585 87 119.755 159 L37 159 C61 44.3333 148.301 -13 298.903 -13 C365.634 -13 421.663 1.8073 466.988 31.4219 C520.996 66.474 548.049 118.167 548.146 186.501 C548.049 242.167 526.283 285.285 482.848 315.854 C451.616 337.951 401.372 357.969 332.116 375.908 C262.86 393.846 217.529 408.495 196.124 419.855 C150.624 442.73 127.965 474.981 128.146 516.607 C128.049 538.869 132.955 557.189 142.865 571.567 C168.955 610.522 214.832 630 280.495 630 C373.498 630 426.786 600.667 440.357 542 L516.074 542 C491.224 640.667 412.698 690 280.495 690 C220.165 690 167.667 674.167 123 642.5 C78.3333 610.833 55.9765 563.069 55.9295 499.206 C55.8657 412.386 125.186 352.897 263.889 320.737 L263.889 320.737 Z " />
<glyph glyph-name="T" unicode="T" horiz-adv-x="440" d="M20 617 L185 617 L185 2 L255 2 L255 617 L420 617 L420 682 L255 682 L185 682 L20 682 L20 617 Z " />
<glyph glyph-name="U" unicode="U" horiz-adv-x="627" d="M567 225 L567 680 L497 680 L497 215 C497 187.667 492 164.333 482 145 C453.034 89 397.034 61 314 61 C260.544 61 217.711 73 185.5 97 C148.5 124.569 130 163.902 130 215 L130 680 L60 680 L60 225 C60 151.353 84 93.3529 132 51 C177.333 11 238 -9 314 -9 C389.333 -9 449.667 11 495 51 C543 93.3529 567 151.353 567 225 L567 225 Z " />
<glyph glyph-name="V" unicode="V" horiz-adv-x="637" d="M319 -41 L627 680 L551 680 L319 132 L86 680 L10 680 L319 -41 Z " />
<glyph glyph-name="W" unicode="W" horiz-adv-x="783" d="M615 -55 L773 680 L702 680 L596 186 L392 720 L187 186 L82 680 L10 680 L169 -55 L392 537 L615 -55 Z " />
<glyph glyph-name="X" unicode="X" horiz-adv-x="606" d="M499 0 L585 0 L346 340 L585 680 L499 680 L303 390 L107 680 L20 680 L260 339 L21 0 L107 0 L303 290 L499 0 Z " />
<glyph glyph-name="Y" unicode="Y" horiz-adv-x="605" d="M338 320.024 L595 680 L506 680 L303 389 L100 680 L10 680 L268 319.857 L268 0 L338 0 L338 320.024 Z " />
<glyph glyph-name="Z" unicode="Z" horiz-adv-x="580" d="M152 65 L555 680 L46 680 L46 615 L428 615 L25 0 L538 0 L538 65 L152 65 Z " />
<glyph glyph-name="bracketleft" unicode="&#x5b;" horiz-adv-x="352" d="M279 -213 L279 -163 L164 -163 L164 701 L279 701 L279 750 L98 750 L98 -213 L279 -213 Z " />
<glyph glyph-name="backslash" unicode="&#x5c;" horiz-adv-x="538" d="M506 -201 L118 750 L43 750 L432 -201 L506 -201 Z " />
<glyph glyph-name="bracketright" unicode="&#x5d;" horiz-adv-x="352" d="M254 -213 L254 750 L73 750 L73 701 L188 701 L188 -163 L73 -163 L73 -213 L254 -213 Z " />
<glyph glyph-name="asciicircum" unicode="&#x5e;" horiz-adv-x="585" d="M527 343 L344 679 L241 679 L59 343 L136 343 L293 634 L450 343 L527 343 Z " />
<glyph glyph-name="underscore" unicode="&#x5f;" horiz-adv-x="585" d="M563 -146 L563 -88 L23 -88 L23 -146 L563 -146 Z " />
<glyph glyph-name="grave" unicode="&#x60;" horiz-adv-x="186" d="M166 750 L76 893 L0 893 L110 750 L166 750 Z " />
<glyph glyph-name="a" unicode="a" horiz-adv-x="570" d="M425 220 C425 177.171 410.167 139.837 380.5 108 C350.682 76 313.848 60 270 60 C226.152 60 189.318 76 159.5 108 C129.833 139.837 115 177.171 115 220 C115 262.829 129.833 300.163 159.5 332 C189.318 364 226.152 380 270 380 C313.848 380 350.682 364 380.5 332 C410.167 300.163 425 262.829 425 220 L425 220 Z M495 0 L495 440 L425 440 L425 364.865 C421.074 370.006 416.907 375.051 412.5 380 C370.938 426.667 319.771 450 259 450 C198.229 450 147.062 426.667 105.5 380 C65.1667 334.713 45 281.38 45 220 C45 158.62 65.1667 105.287 105.5 60 C147.062 13.3333 198.229 -10 259 -10 C319.771 -10 370.938 13.3333 412.5 60 C416.907 64.9487 421.074 69.9936 425 75.1345 L425 -1.52588e-05 L495 0 Z " />
<glyph glyph-name="b" unicode="b" horiz-adv-x="570" d="M145 0 L145 75.1345 C148.926 69.9936 153.093 64.9488 157.5 60 C199.062 13.3333 250.229 -9.99998 311 -9.99998 C371.771 -9.99998 422.938 13.3333 464.5 60 C504.833 105.287 525 158.62 525 220 C525 281.38 504.833 334.713 464.5 380 C422.938 426.667 371.771 450 311 450 C250.229 450 199.062 426.667 157.5 380 C153.093 375.051 148.926 370.006 145 364.865 L145 750 L75 750 L75 1.52588e-05 L145 0 Z M455 220 C455 177.171 440.167 139.837 410.5 108 C380.682 76 343.848 60 300 60 C256.152 60 219.318 76 189.5 108 C159.833 139.837 145 177.171 145 220 C145 262.829 159.833 300.163 189.5 332 C219.318 364 256.152 380 300 380 C343.848 380 380.682 364 410.5 332 C440.167 300.163 455 262.829 455 220 L455 220 Z " />
<glyph glyph-name="c" unicode="c" horiz-adv-x="521" d="M486 282 C472.179 331.757 445.679 371.757 406.5 402 C365.909 433.333 320.409 449 270 449 C207.204 449 153.871 426.333 110 381 C66.6667 336.222 45 282.556 45 220 C45 157.833 66.6667 104 110 58.5 C130 37.5 153.667 20.8333 181 8.5 C208.333 -3.83333 236 -10 264 -10 C292 -10 317 -6.16667 339 1.5 C409.472 26.0583 457.138 73.5583 482 144 L403 144 C389.667 119.333 371.167 99.6667 347.5 85 C323.833 70.3333 298 63 270 63 C227.225 63 191.058 78.5 161.5 109.5 C131.833 140.614 117 177.447 117 220 C117 261.886 131.833 298.386 161.5 329.5 C175.167 343.833 191.333 355.167 210 363.5 C228.667 371.833 251 376 277 376 C303 376 328.667 367.333 354 350 C379.333 332.667 398 310 410 282 L486 282 Z " />
<glyph glyph-name="d" unicode="d" horiz-adv-x="570" d="M425 220 C425 177.171 410.167 139.837 380.5 108 C350.682 76 313.848 60 270 60 C226.152 60 189.318 76 159.5 108 C129.833 139.837 115 177.171 115 220 C115 262.829 129.833 300.163 159.5 332 C189.318 364 226.152 380 270 380 C313.848 380 350.682 364 380.5 332 C410.167 300.163 425 262.829 425 220 L425 220 Z M495 0 L495 750 L425 750 L425 364.865 C421.074 370.006 416.907 375.051 412.5 380 C370.938 426.667 319.771 450 259 450 C198.229 450 147.062 426.667 105.5 380 C65.1667 334.713 45 281.38 45 220 C45 158.62 65.1667 105.287 105.5 60 C147.062 13.3333 198.229 -10 259 -10 C319.771 -10 370.938 13.3333 412.5 60 C416.907 64.9487 421.074 69.9936 425 75.1345 L425 -1.52588e-05 L495 0 Z " />
<glyph glyph-name="e" unicode="e" horiz-adv-x="545" d="M505 230 C505 290.54 481.833 342.873 435.5 387 C390 430.333 336.5 452 275 452 C211.667 452 157.5 429.5 112.5 384.5 C67.5 339.5 45 285.333 45 222 C45 158.286 67.5 104.286 112.5 60 C133.5 39.3333 157.833 23 185.5 11 C213.167 -1 246.5 -7 285.5 -7 C324.5 -7 362.833 5.16667 400.5 29.5 C438.167 53.8333 466.333 87 485 129 L405 129 C389.667 108.333 370.5 92.1667 347.5 80.5 C324.5 68.8333 300.333 63 275 63 C237.471 63 203.471 75.3333 173 100 C143.08 124.221 124.746 155.221 118 193 L505 193 L505 230 Z M431 253 L119 253 C123 271.667 130 288.833 140 304.5 C172.979 356.167 217.979 382 275 382 C312.392 382 345.559 370 374.5 346 C404.15 321.412 422.983 290.412 431 253 L431 253 Z " />
<glyph glyph-name="f" unicode="f" horiz-adv-x="341" d="M311 685 L311 750 L261 750 C211.667 750 176.5 737.833 155.5 713.5 C134.5 689.167 124 654.667 124 610 L124 440 L35 440 L35 375 L124 375 L124 0 L194 0 L194 375 L311 375 L311 440 L194 440 L194 630 C194 645.333 197.667 658.333 205 669 C212.333 679.667 227.667 685 251 685 L311 685 Z " />
<glyph glyph-name="g" unicode="g" horiz-adv-x="576" d="M431 220 C431 177.171 416.167 139.837 386.5 108 C356.682 76 319.848 60 276 60 C233.212 60 196.545 76 166 108 C136 139.429 121 176.762 121 220 C121 263.238 136 300.571 166 332 C196.545 364 233.212 380 276 380 C319.848 380 356.682 364 386.5 332 C416.167 300.163 431 262.829 431 220 L431 220 Z M119.343 -60 L47.9088 -60 C55.3029 -106.667 76.6667 -147.667 112 -183 C156.667 -227.667 210.333 -250 273 -250 C335.667 -250 389.333 -227.667 434 -183 C478.667 -138.333 501 -84.6667 501 -22 L501 440 L431 440 L431 366.166 C427.667 370.722 423.833 375.333 419.5 380 C375.833 426.667 324.667 450 266 450 C204.667 450 153.167 426.667 111.5 380 C71.1667 334.667 51 281.333 51 220 C51 158.667 71.1667 105.333 111.5 60 C153.167 13.3333 204.667 -10 266 -10 C326.667 -10 377.833 13.3333 419.5 60 C423.833 64.6667 427.667 69.2779 431 73.8338 L431 -22 C431 -65.3333 415.5 -102.5 384.5 -133.5 C353.5 -164.5 316.333 -180 273 -180 C229.667 -180 192.5 -164.5 161.5 -133.5 C139.833 -111.833 125.781 -87.3333 119.343 -60 L119.343 -60 Z " />
<glyph glyph-name="h" unicode="h" horiz-adv-x="509" d="M145 0 L145 184 C145 245.2 155.5 291.7 176.5 323.5 C188.167 341.167 203.333 354.833 222 364.5 C240.667 374.167 265 379 295 379 C325 379 346.5 368.833 359.5 348.5 C372.5 328.167 379 303.667 379 275 L379 0 L449 0 L449 275 C449 326 435.667 367.167 409 398.5 C395.667 414.167 379.333 426.5 360 435.5 C340.667 444.5 315.333 449 284 449 C252.667 449 225 440.833 201 424.5 C178.312 409.059 159.645 389.018 145 364.375 L145 750 L75 750 L75 0 L145 0 Z " />
<glyph glyph-name="i" unicode="i" horiz-adv-x="229" d="M146 592 C137.333 600.667 126.833 605 114.5 605 C102.167 605 91.6667 600.667 83 592 C74.3333 583.333 70 572.833 70 560.5 C70 548.167 74.3333 537.667 83 529 C91.6667 520.333 102.167 516 114.5 516 C126.833 516 137.333 520.333 146 529 C154.667 537.667 159 548.167 159 560.5 C159 572.833 154.667 583.333 146 592 L146 592 Z M150 0 L150 440 L80 440 L80 0 L150 0 Z " />
<glyph glyph-name="j" unicode="j" horiz-adv-x="235" d="M165 560 C165 572.667 160.667 583.333 152 592 C143.333 600.667 132.667 605 120 605 C107.333 605 96.6667 600.667 88 592 C79.3333 583.333 75 572.667 75 560 C75 547.333 79.3333 536.667 88 528 C96.6667 519.333 107.333 515 120 515 C132.667 515 143.333 519.333 152 528 C160.667 536.667 165 547.333 165 560 L165 560 Z M155 -84 L155 440 L85 440 L85 -85 C85 -133.667 70.8333 -163.667 42.5 -175 C30.8333 -179.667 18.8333 -180.5 6.5 -177.5 C-5.83333 -174.5 -16.3333 -169 -25 -161 L-25 -228 C-11.6667 -236.667 5.33333 -241.667 26 -243 C46.6667 -244.333 66.5 -240 85.5 -230 C104.5 -220 120.833 -203.5 134.5 -180.5 C148.167 -157.5 155 -125.333 155 -84 L155 -84 Z " />
<glyph glyph-name="k" unicode="k" horiz-adv-x="421" d="M145 0 L145 211.134 L318 0 L411 0 L218 227 L399 441 L306 441 L145 242.989 L145 750 L75 750 L75 0 L145 0 Z " />
<glyph glyph-name="l" unicode="l" horiz-adv-x="220" d="M145 0 L145 750 L75 750 L75 0 L145 0 Z " />
<glyph glyph-name="m" unicode="m" horiz-adv-x="763" d="M633 2 L703 2 L703 277 C703 326.766 690.833 367.432 666.5 399 C654.167 415 638.667 427.833 620 437.5 C601.333 447.167 576.667 452 546 452 C515.333 452 488.5 443.667 465.5 427 C444.707 411.933 427.537 392.4 413.99 368.404 C408.904 379.408 402.741 389.607 395.5 399 C383.167 415 367.667 427.833 349 437.5 C330.333 447.167 305.667 452 275 452 C244.333 452 217.5 443.667 194.5 427 C174.722 412.668 158.222 394.297 145 371.886 L145 442 L75 442 L75 2 L145 2 L145 227.115 C148.744 262.757 157.744 293.052 172 318 C182.667 336.667 197 352 215 364 C233 376 252.333 382 273 382 C293.667 382 309 378.833 319 372.5 C347.667 354.344 362 322.511 362 277 L362 2.00002 L432 2.00002 L432 277 C432 282.757 431.837 288.393 431.511 293.907 C434.861 302.427 438.69 310.458 443 318 C453.667 336.667 468 352 486 364 C504 376 523.333 382 544 382 C564.667 382 580 378.833 590 372.5 C618.667 354.344 633 322.511 633 277 L633 2 Z " />
<glyph glyph-name="n" unicode="n" horiz-adv-x="509" d="M379 0 L449 0 L449 275 C449 326 435.667 367.167 409 398.5 C395.667 414.167 379.333 426.5 360 435.5 C340.667 444.5 315.333 449 284 449 C252.667 449 225 440.833 201 424.5 C178.312 409.059 159.645 389.018 145 364.375 L145 440 L75 440 L75 0 L145 0 L145 184 C145 240 155.5 284.5 176.5 317.5 C188.167 335.833 203.333 350.667 222 362 C240.667 373.333 265 379 295 379 C325 379 346.5 368.833 359.5 348.5 C372.5 328.167 379 303.667 379 275 L379 0 Z " />
<glyph glyph-name="o" unicode="o" horiz-adv-x="550" d="M435 222 C435 178.667 419.333 141.333 388 110 C356.667 78.6667 319 63 275 63 C231 63 193.333 78.6667 162 110 C130.667 141.333 115 178.667 115 222 C115 266 130.667 303.667 162 335 C193.333 366.333 231 382 275 382 C319 382 356.667 366.333 388 335 C419.333 303.667 435 266 435 222 L435 222 Z M505 222 C505 285.333 482.5 339.5 437.5 384.5 C392.5 429.5 338.333 452 275 452 C211.667 452 157.5 429.5 112.5 384.5 C67.5 339.5 45 285.333 45 222 C45 158.286 67.5 104.286 112.5 60 C157.887 15.3333 212.054 -7 275 -7 C337.946 -7 392.113 15.3333 437.5 60 C482.5 104.286 505 158.286 505 222 L505 222 Z " />
<glyph glyph-name="p" unicode="p" horiz-adv-x="570" d="M145 -250 L145 75.1345 C148.926 69.9936 153.093 64.9488 157.5 60 C199.062 13.3333 250.229 -9.99998 311 -9.99998 C371.771 -9.99998 422.938 13.3333 464.5 60 C504.833 105.287 525 158.62 525 220 C525 281.38 504.833 334.713 464.5 380 C422.938 426.667 371.771 450 311 450 C250.229 450 199.062 426.667 157.5 380 C153.093 375.051 148.926 370.006 145 364.865 L145 440 L75 440 L75 -250 L145 -250 Z M455 220 C455 177.171 440.167 139.837 410.5 108 C380.682 76 343.848 60 300 60 C256.152 60 219.318 76 189.5 108 C159.833 139.837 145 177.171 145 220 C145 262.829 159.833 300.163 189.5 332 C219.318 364 256.152 380 300 380 C343.848 380 380.682 364 410.5 332 C440.167 300.163 455 262.829 455 220 L455 220 Z " />
<glyph glyph-name="q" unicode="q" horiz-adv-x="570" d="M425 220 C425 177.171 410.167 139.837 380.5 108 C350.682 76 313.848 60 270 60 C226.152 60 189.318 76 159.5 108 C129.833 139.837 115 177.171 115 220 C115 262.829 129.833 300.163 159.5 332 C189.318 364 226.152 380 270 380 C313.848 380 350.682 364 380.5 332 C410.167 300.163 425 262.829 425 220 L425 220 Z M495 -250 L495 440 L425 440 L425 364.865 C421.074 370.006 416.907 375.051 412.5 380 C370.938 426.667 319.771 450 259 450 C198.229 450 147.062 426.667 105.5 380 C65.1667 334.713 45 281.38 45 220 C45 158.62 65.1667 105.287 105.5 60 C147.062 13.3333 198.229 -10 259 -10 C319.771 -10 370.938 13.3333 412.5 60 C416.907 64.9487 421.074 69.9936 425 75.1345 L425 -250 L495 -250 Z " />
<glyph glyph-name="r" unicode="r" horiz-adv-x="311" d="M301 349 L301 440 C287 446 272.333 449 257 449 C207.762 449 171.429 421.667 148 367 L145 349 L145 440 L75 440 L75 0 L145 0 L145 220 C145 256.154 153.333 288.654 170 317.5 C178.667 332.5 189.5 345.167 202.5 355.5 C215.5 365.833 231.133 371 249.4 371 C267.667 371 284.867 363.667 301 349 L301 349 Z " />
<glyph glyph-name="s" unicode="s" horiz-adv-x="402" d="M138.771 62.666 C121.048 74.3698 108.473 94.4811 101.047 123 L27 123 C42.1816 32.3333 100.784 -13 202.806 -13 C226.709 -13 248.887 -10.1882 269.343 -4.56445 C290.019 1.08723 308.873 9.56316 325.907 20.8633 C359.851 43.3789 376.822 78.3591 376.822 125.804 C376.822 173.185 354.179 207.675 308.894 229.276 C289.295 238.624 268.266 245.802 245.807 250.812 C223.524 255.841 202.711 261.376 183.368 267.415 C163.955 273.476 147.75 281.059 134.753 290.164 C121.466 299.41 114.822 313.924 114.822 333.706 C114.822 353.518 122.818 368.212 138.811 377.787 C154.449 387.262 173.162 392 194.949 392 C216.716 392 235.2 387.962 250.401 379.887 C265.743 371.842 277.132 355.546 284.566 331 L359.593 331 C350.162 375.449 331.397 406.331 303.298 423.648 C274.792 441.216 239.33 450 196.913 450 C154.403 450 117.735 438.735 86.9102 416.206 C56.1849 393.75 40.8223 360.664 40.8223 316.948 C40.8223 295.116 46.4697 276.154 57.7646 260.062 C69.0589 243.971 86.0501 230.709 108.738 220.274 C128.339 211.259 149.294 204.078 171.603 198.732 C193.887 193.368 214.701 187.498 234.044 181.124 C279.896 166.195 302.822 144.772 302.822 116.854 C302.822 68.9515 270.793 45 206.734 45 C179.038 45 156.384 50.8887 138.771 62.666 L138.771 62.666 Z " />
<glyph glyph-name="t" unicode="t" horiz-adv-x="329" d="M20 375 L130 375 L130 0 L200 0 L200 375 L309 375 L309 440 L200 440 L200 611 L130 611 L130 440 L20 440 L20 375 Z " />
<glyph glyph-name="u" unicode="u" horiz-adv-x="509" d="M379 75.3954 L379 0 L449 0 L449 440 L379 440 L379 256 C379 194.8 367.642 147 344.925 112.6 C322.208 78.2 283.566 61 229 61 C199 61 177.5 71.1667 164.5 91.5 C151.5 111.833 145 136.333 145 165 L145 440 L75 440 L75 165 C75 114 88.8298 72.25 116.489 39.75 C144.149 7.25 182.652 -9 232 -9 C297.022 -9 346.022 19.1318 379 75.3954 L379 75.3954 Z " />
<glyph glyph-name="v" unicode="v" horiz-adv-x="425" d="M213 -42 L415 440 L339 440 L213 113 L86 440 L10 440 L213 -42 Z " />
<glyph glyph-name="w" unicode="w" horiz-adv-x="724" d="M505 -56 L714 440 L636 440 L504 101 L362 463 L220 101 L88 440 L10 440 L221 -56 L362 299 L505 -56 Z " />
<glyph glyph-name="x" unicode="x" horiz-adv-x="448" d="M334 0 L423 0 L269 220 L423 440 L334 440 L224 271 L114 440 L25 440 L179 221 L25 0 L114 0 L224 171 L334 0 Z " />
<glyph glyph-name="y" unicode="y" horiz-adv-x="425" d="M131 -250 L435 440 L357 440 L231 145 L90 440 L10 440 L194 72 L46 -250 L131 -250 Z " />
<glyph glyph-name="z" unicode="z" horiz-adv-x="455" d="M10 0 L445 0 L445 65 L144 65 L432 440 L27 440 L27 375 L298 375 L10 0 Z " />
<glyph glyph-name="braceleft" unicode="&#x7b;" horiz-adv-x="380" d="M144 355 C144 306.333 122.667 274 80 258 L80 190 C96 183.333 110.667 173.833 124 161.5 C137.333 149.167 144 133.333 144 114 L144 -112 C144 -154.667 149.167 -184.464 159.5 -201.392 C169.833 -218.464 181.667 -230.833 195 -238.5 C208.333 -246.167 222.667 -250 238 -250 L273.5 -250 C281.833 -250 290.667 -249.667 300 -249 L300 -200 C243.333 -211.93 215 -181.596 215 -109 L215 116 C215 152 197.5 180.833 162.5 202.5 C152.167 208.833 141.333 214.667 130 220 C156.667 234.667 177.5 251.667 192.5 271 C207.5 290.333 215 316 215 348 L215 661 C215 697 243.333 709.667 300 699 L300 749 C291.333 749.667 282.833 750 274.5 750 L249 750 C191.667 750 158.167 723.667 148.5 671 C145.5 655 144 637.667 144 619 L144 355 Z " />
<glyph glyph-name="bar" unicode="&#x7c;" horiz-adv-x="290" d="M118 -225 L173 -225 L173 725 L118 725 L118 -225 Z " />
<glyph glyph-name="braceright" unicode="&#x7d;" horiz-adv-x="380" d="M236 355 L236 619 C236 637.667 234.5 655 231.5 671 C221.833 723.667 188.333 750 131 750 L105.5 750 C97.1667 750 88.6667 749.667 80 749 L80 699 C136.667 709.667 165 697 165 661 L165 348 C165 316 172.5 290.333 187.5 271 C202.5 251.667 223.333 234.667 250 220 C238.667 214.667 227.833 208.833 217.5 202.5 C182.5 180.833 165 152 165 116 L165 -109 C165 -181.596 136.667 -211.93 80 -200 L80 -249 C89.3333 -249.667 98.1667 -250 106.5 -250 L142 -250 C157.333 -250 171.667 -246.167 185 -238.5 C198.333 -230.833 210.167 -218.464 220.5 -201.391 C230.833 -184.464 236 -154.667 236 -112 L236 114 C236 133.333 242.667 149.167 256 161.5 C269.333 173.833 284 183.333 300 190 L300 258 C257.333 274 236 306.333 236 355 L236 355 Z " />
<glyph glyph-name="asciitilde" unicode="&#x7e;" horiz-adv-x="526" d="M397 771 C376.63 734.333 356.341 716 336.134 716 C315.927 716 290.382 723.5 259.5 738.5 C247.833 744.167 235.833 749.333 223.5 754 C211.167 758.667 196.5 761 179.5 761 C162.5 761 140.556 747.556 113.667 720.667 C99.4444 706.444 86.8889 689.222 76 669 L128 635 C148 675 168 695 188 695 C202.667 695 216 692.667 228 688 C240 683.333 251.833 678.333 263.5 673 C275.167 667.667 286.833 662.667 298.5 658 C310.167 653.333 322.167 651 334.5 651 C346.833 651 358.5 654 369.5 660 C399.357 676.286 426.19 702.286 450 738 L397 771 Z " />
<glyph glyph-name="uni00A0" unicode="&#xa0;" horiz-adv-x="270" d="" />
<glyph glyph-name="dieresis" unicode="&#xa8;" horiz-adv-x="564" d="M413 826 C404.333 834.667 393.667 839 381 839 C368.333 839 357.833 834.667 349.5 826 C341.167 817.333 337 806.833 337 794.5 C337 782.167 341.167 771.667 349.5 763 C357.833 754.333 368.333 750 381 750 C393.667 750 404.333 754.333 413 763 C421.667 771.667 426 782.167 426 794.5 C426 806.833 421.667 817.333 413 826 L413 826 Z M231 826 C222.333 834.667 211.667 839 199 839 C186.333 839 175.833 834.667 167.5 826 C159.167 817.333 155 806.833 155 794.5 C155 782.167 159.167 771.667 167.5 763 C175.833 754.333 186.333 750 199 750 C211.667 750 222.333 754.333 231 763 C239.667 771.667 244 782.167 244 794.5 C244 806.833 239.667 817.333 231 826 L231 826 Z " />
<glyph glyph-name="copyright" unicode="&#xa9;" horiz-adv-x="747" d="M529 303 L469 303 C446.185 275 415.981 261 378.389 261 C340.796 261 310.667 272.333 288 295 C264.667 318.333 253 345.333 253 376 C253 407.333 264.667 434.667 288 458 C310.667 480.667 338.333 492 371 492 C412.843 492 445.843 477.333 470 448 L530 448 C517.156 473.687 499.99 494.52 478.5 510.5 C447.569 533.5 411.736 545 371 545 C323.783 545 282.783 528.333 248 495 C214 462.417 197 422.75 197 376 C197 329.917 214 290.583 248 258 C282.783 224.667 323.783 208 371 208 C440.143 208 492.81 239.667 529 303 L529 303 Z M636 375 C636 303.861 610.333 243.694 559 194.5 C507.87 145.5 445.87 121 373 121 C300.42 121 238.92 145.5 188.5 194.5 C136.833 244.711 111 304.878 111 375 C111 444.455 136.833 504.289 188.5 554.5 C238.92 603.5 300.42 628 373 628 C445.87 628 507.87 603.5 559 554.5 C610.333 505.306 636 445.472 636 375 L636 375 Z M699 375 C699 418.333 690.333 459 673 497 C655.667 535 632.333 568.333 603 597 C573.667 625.667 539.167 648.167 499.5 664.5 C459.833 680.833 417.667 689 373 689 C283.473 689 206.973 658.333 143.5 597 C113.833 568.333 90.3333 535 73 497 C55.6667 459 47 418.333 47 375 C47 331.667 55.6667 290.833 73 252.5 C90.3333 214.167 113.833 180.667 143.5 152 C206.973 90.6667 283.473 60 373 60 C417.667 60 459.833 68.1667 499.5 84.5 C539.167 100.833 573.667 123.333 603 152 C632.333 180.667 655.667 214.167 673 252.5 C690.333 290.833 699 331.667 699 375 L699 375 Z " />
<glyph glyph-name="registered" unicode="&#xae;" horiz-adv-x="747" d="M439 442 C439 426.667 433 414.167 421 404.5 C409 394.833 395.333 390 380 390 L333 390 L333 494 L380 494 C395.333 494 409 489.167 421 479.5 C433 469.833 439 457.333 439 442 L439 442 Z M500 218 L420 358 C445.333 374.667 462.5 389.5 471.5 402.5 C480.5 415.5 485 428.667 485 442 C485 466.506 474.833 487.172 454.5 504 C432.75 522 407.917 531 380 531 L287 531 L287 218 L333 218 L333 354 L378 354 L441 218 L500 218 Z M636 375 C636 303.861 610.333 243.694 559 194.5 C507.87 145.5 445.87 121 373 121 C300.42 121 238.92 145.5 188.5 194.5 C136.833 244.711 111 304.878 111 375 C111 444.455 136.833 504.289 188.5 554.5 C238.92 603.5 300.42 628 373 628 C445.87 628 507.87 603.5 559 554.5 C610.333 505.306 636 445.472 636 375 L636 375 Z M699 375 C699 418.333 690.333 459 673 497 C655.667 535 632.333 568.333 603 597 C573.667 625.667 539.167 648.167 499.5 664.5 C459.833 680.833 417.667 689 373 689 C283.473 689 206.973 658.333 143.5 597 C79.8333 535.479 48 461.479 48 375 C48 331.667 56.5 290.833 73.5 252.5 C90.5 214.167 113.833 180.667 143.5 152 C206.973 90.6667 283.473 60 373 60 C417.667 60 459.833 68.1667 499.5 84.5 C539.167 100.833 573.667 123.333 603 152 C632.333 180.667 655.667 214.167 673 252.5 C690.333 290.833 699 331.667 699 375 L699 375 Z " />
<glyph glyph-name="degree" unicode="&#xb0;" horiz-adv-x="460" d="M325 532 C325 504.545 318.667 483.045 306 467.5 C298.667 458.5 288.833 451.333 276.5 446 C264.167 440.667 248.5 438 229.5 438 C210.5 438 195 440.667 183 446 C171 451.333 160 460.136 150 472.409 C140 484.682 135 504.545 135 532 C135 557.97 141.667 579.136 155 595.5 C171.568 615.833 196.568 626 230 626 C248.667 626 264 623.167 276 617.5 C308.667 602.074 325 573.574 325 532 L325 532 Z M395 532.5 C395 576.136 379 612.136 347 640.5 C315.786 668.167 276.786 682 230 682 C183.214 682 144.214 668.167 113 640.5 C81 612.136 65 576.303 65 533 C65 488.439 80.6667 452.273 112 424.5 C142.462 397.5 181.795 384 230 384 C278.205 384 317.538 397.5 348 424.5 C362.667 437.5 374.167 453.167 382.5 471.5 C390.833 489.833 395 510.167 395 532.5 L395 532.5 Z " />
<glyph glyph-name="acute" unicode="&#xb4;" horiz-adv-x="186" d="M176 893 L100 893 L20 750 L76 750 L176 893 Z " />
<glyph glyph-name="paragraph" unicode="&#xb6;" horiz-adv-x="520" d="M412 0 L412 655 L274 655 C211.722 655 158.556 633.333 114.5 590 C70.1667 546.393 48 493.727 48 432 C48 373.708 68.1667 324.041 108.5 283 C148.517 242.281 199.683 217.281 262 208 L262 0 L306 0 L306 612 L369 612 L369 0 L412 0 Z " />
<glyph glyph-name="cedilla" unicode="&#xb8;" horiz-adv-x="539" d="M265 -46 L316 61 L260 60 L186 -103 C199.333 -101 213.667 -98.6667 229 -96 C244.333 -93.3333 259 -93 273 -95 C310.39 -100.539 326.056 -120.873 320 -156 C317.499 -177.259 298.666 -189.759 263.5 -193.5 C229.136 -197.156 193.303 -192.322 156 -179 L131 -231 C178.086 -249.549 224.419 -255.716 270 -249.5 C319.384 -242.766 351.718 -220.932 367 -184 C381.249 -150.32 379.916 -118.487 363 -88.5 C355.667 -75.5 345.833 -65 333.5 -57 C321.167 -49 306.917 -45 290.75 -45 C274.583 -45 266 -45.3333 265 -46 L265 -46 Z " />
<glyph glyph-name="Agrave" unicode="&#xc0;" horiz-adv-x="617" d="M185.023 250 L309 563 L432.421 250 L185.023 250 Z M607 0 L309 727 L10 0 L86 0 L159.277 185 L458.052 185 L531 0 L607 0 Z M346 750 L256 893 L180 893 L290 750 L346 750 Z " />
<glyph glyph-name="Aacute" unicode="&#xc1;" horiz-adv-x="617" d="M185.023 250 L309 563 L432.421 250 L185.023 250 Z M607 0 L309 727 L10 0 L86 0 L159.277 185 L458.052 185 L531 0 L607 0 Z M444 893 L358 893 L278 750 L334 750 L444 893 Z " />
<glyph glyph-name="Acircumflex" unicode="&#xc2;" horiz-adv-x="617" d="M185.023 250 L309 563 L432.421 250 L185.023 250 Z M607 0 L309 727 L10 0 L86 0 L159.277 185 L458.052 185 L531 0 L607 0 Z M308 856 L380 750 L451 750 L341 893 L275 893 L165 750 L236 750 L308 856 Z " />
<glyph glyph-name="Atilde" unicode="&#xc3;" horiz-adv-x="617" d="M185.023 250 L309 563 L432.421 250 L185.023 250 Z M607 0 L309 727 L10 0 L86 0 L159.277 185 L458.052 185 L531 0 L607 0 Z M144 750 L193 750 C191.667 762.667 192.333 774 195 784 C200.385 807.333 214.051 819 236 819 C249.333 819 260 814.833 268 806.5 C276 798.167 284.167 788.833 292.5 778.5 C300.833 768.167 311 758.833 323 750.5 C335 742.167 353.833 738 379.5 738 C405.167 738 424.833 744.5 438.5 757.5 C465.766 783.436 476.933 818.603 472 863 L423 863 C423 837.917 421.333 821.417 418 813.5 C415.333 807.167 411 802.333 405 799 C399 795.667 390 794 378 794 C366 794 356.167 798.167 348.5 806.5 C340.833 814.833 332.833 824 324.5 834 C316.167 844 306 853.167 294 861.5 C282 869.833 263.667 874 239 874 C214.333 874 195.167 867.5 181.5 854.5 C155.224 829.505 142.724 794.672 144 750 L144 750 Z " />
<glyph glyph-name="Adieresis" unicode="&#xc4;" horiz-adv-x="617" d="M185.023 250 L309 563 L432.421 250 L185.023 250 Z M607 0 L309 727 L10 0 L86 0 L159.277 185 L458.052 185 L531 0 L607 0 Z M431 826 C422.333 834.667 411.667 839 399 839 C386.333 839 375.833 834.667 367.5 826 C359.167 817.333 355 806.833 355 794.5 C355 782.167 359.167 771.667 367.5 763 C375.833 754.333 386.333 750 399 750 C411.667 750 422.333 754.333 431 763 C439.667 771.667 444 782.167 444 794.5 C444 806.833 439.667 817.333 431 826 L431 826 Z M249 826 C240.333 834.667 229.667 839 217 839 C204.333 839 193.833 834.667 185.5 826 C177.167 817.333 173 806.833 173 794.5 C173 782.167 177.167 771.667 185.5 763 C193.833 754.333 204.333 750 217 750 C229.667 750 240.333 754.333 249 763 C257.667 771.667 262 782.167 262 794.5 C262 806.833 257.667 817.333 249 826 L249 826 Z " />
<glyph glyph-name="Aring" unicode="&#xc5;" horiz-adv-x="617" d="M185.023 250 L309 563 L432.421 250 L185.023 250 Z M607 0 L327.566 681.708 C346.197 685.096 362.509 693.527 376.5 707 C396.167 725.938 406 748.605 406 775 C406 802.457 396.167 825.29 376.5 843.5 C356.7 861.833 333.867 871 308 871 C281.718 871 258.885 861.667 239.5 843 C219.833 824.062 210 801.395 210 775 C210 748.21 219.833 725.71 239.5 707.5 C254.654 693.468 271.585 684.807 290.293 681.514 L9.99998 -1.52588e-05 L86 -1.52588e-05 L159.277 185 L458.052 185 L531 -1.52588e-05 L607 0 Z M277.5 804 C285.833 812 296 816 308 816 C320 816 330.167 812 338.5 804 C346.833 796 351 786.5 351 775.5 C351 764.5 347 755 339 747 C331 739 320.833 735 308.5 735 C296.167 735 285.833 739 277.5 747 C269.167 755 265 764.5 265 775.5 C265 786.5 269.167 796 277.5 804 L277.5 804 Z " />
<glyph glyph-name="AE" unicode="&#xc6;" horiz-adv-x="818" d="M338 582 L338 237 L195 237 L332 541 L338 582 Z M338 0 L743 0 L743 72 L410 70 L410 302 L733 304 L733 376 L410 374 L410 606 L743 608 L743 680 L334 680 L15 0 L93 0 L169 175 L338 175 L338 0 Z " />
<glyph glyph-name="Ccedilla" unicode="&#xc7;" horiz-adv-x="729" d="M699 208 L622 208 C598.667 164 565.833 128.667 523.5 102 C481.167 75.3333 434.667 62 384 62 C309.482 62 245.649 89.6667 192.5 145 C140.833 198.79 115 263.456 115 339 C115 415.21 140.833 480.21 192.5 534 C216.833 559.333 245.333 579.5 278 594.5 C310.667 609.5 342.667 617 374 617 C405.333 617 432.833 613.5 456.5 606.5 C529.379 584.944 584.212 540.444 621 473 L698 473 C672.405 537.661 631.072 589.828 574 629.5 C516.936 669.167 453.602 689 384 689 C289.778 689 209.445 654.333 143 585 C112.333 553 88.3333 515.833 71 473.5 C53.6667 431.167 45 386.333 45 339 C45 243.84 77.6667 162.174 143 94 C198.951 35.6163 264.751 1.81427 340.398 -7.40613 L297 -103 C310.333 -101 324.667 -98.6667 340 -96 C355.333 -93.3333 370 -93 384 -95 C421.39 -100.539 437.057 -120.872 431 -156 C428.499 -177.259 409.665 -189.759 374.5 -193.5 C340.136 -197.156 304.303 -192.322 267 -179 L242 -231 C289.086 -249.549 335.419 -255.715 381 -249.5 C430.384 -242.766 462.717 -220.932 478 -184 C492.249 -150.32 490.916 -118.487 474 -88.5 C466.667 -75.5 456.833 -65 444.5 -57 C432.167 -49 417.917 -45 401.75 -45 C385.583 -45 377 -45.3333 376 -46 L393.216 -9.88028 C458.963 -8.16592 519.558 11.9608 575 50.5 C632.432 90.4225 673.766 142.923 699 208 L699 208 Z " />
<glyph glyph-name="Egrave" unicode="&#xc8;" horiz-adv-x="554" d="M479 0 L479 65 L145 65 L145 307 L469 307 L469 373 L145 373 L145 615 L479 615 L479 680 L75 680 L75 0 L479 0 Z M355 750 L265 893 L189 893 L299 750 L355 750 Z " />
<glyph glyph-name="Eacute" unicode="&#xc9;" horiz-adv-x="554" d="M479 0 L479 65 L145 65 L145 307 L469 307 L469 373 L145 373 L145 615 L479 615 L479 680 L75 680 L75 0 L479 0 Z M420 893 L334 893 L254 750 L310 750 L420 893 Z " />
<glyph glyph-name="Ecircumflex" unicode="&#xca;" horiz-adv-x="554" d="M479 0 L479 65 L145 65 L145 307 L469 307 L469 373 L145 373 L145 615 L479 615 L479 680 L75 680 L75 0 L479 0 Z M277 856 L349 750 L420 750 L310 893 L244 893 L134 750 L205 750 L277 856 Z " />
<glyph glyph-name="Edieresis" unicode="&#xcb;" horiz-adv-x="554" d="M479 0 L479 65 L145 65 L145 307 L469 307 L469 373 L145 373 L145 615 L479 615 L479 680 L75 680 L75 0 L479 0 Z M401 826 C392.333 834.667 381.667 839 369 839 C356.333 839 345.833 834.667 337.5 826 C329.167 817.333 325 806.833 325 794.5 C325 782.167 329.167 771.667 337.5 763 C345.833 754.333 356.333 750 369 750 C381.667 750 392.333 754.333 401 763 C409.667 771.667 414 782.167 414 794.5 C414 806.833 409.667 817.333 401 826 L401 826 Z M219 826 C210.333 834.667 199.667 839 187 839 C174.333 839 163.833 834.667 155.5 826 C147.167 817.333 143 806.833 143 794.5 C143 782.167 147.167 771.667 155.5 763 C163.833 754.333 174.333 750 187 750 C199.667 750 210.333 754.333 219 763 C227.667 771.667 232 782.167 232 794.5 C232 806.833 227.667 817.333 219 826 L219 826 Z " />
<glyph glyph-name="Igrave" unicode="&#xcc;" horiz-adv-x="220" d="M145 0 L145 680 L75 680 L75 0 L145 0 Z M147 750 L57 893 L-19 893 L91 750 L147 750 Z " />
<glyph glyph-name="Iacute" unicode="&#xcd;" horiz-adv-x="220" d="M145 0 L145 680 L75 680 L75 0 L145 0 Z M254 893 L168 893 L88 750 L144 750 L254 893 Z " />
<glyph glyph-name="Icircumflex" unicode="&#xce;" horiz-adv-x="220" d="M145 0 L145 680 L75 680 L75 0 L145 0 Z M111 856 L183 750 L254 750 L144 893 L78 893 L-32 750 L39 750 L111 856 Z " />
<glyph glyph-name="Idieresis" unicode="&#xcf;" horiz-adv-x="220" d="M145 0 L145 680 L75 680 L75 0 L145 0 Z M234 826 C225.333 834.667 214.667 839 202 839 C189.333 839 178.833 834.667 170.5 826 C162.167 817.333 158 806.833 158 794.5 C158 782.167 162.167 771.667 170.5 763 C178.833 754.333 189.333 750 202 750 C214.667 750 225.333 754.333 234 763 C242.667 771.667 247 782.167 247 794.5 C247 806.833 242.667 817.333 234 826 L234 826 Z M52 826 C43.3333 834.667 32.6667 839 20 839 C7.33333 839 -3.16667 834.667 -11.5 826 C-19.8333 817.333 -24 806.833 -24 794.5 C-24 782.167 -19.8333 771.667 -11.5 763 C-3.16667 754.333 7.33333 750 20 750 C32.6667 750 43.3333 754.333 52 763 C60.6667 771.667 65 782.167 65 794.5 C65 806.833 60.6667 817.333 52 826 L52 826 Z " />
<glyph glyph-name="Eth" unicode="&#xd0;" horiz-adv-x="648" d="M535 340 C535 262.456 507.667 197.789 453 146 C399.519 95.3333 333.519 70 255 70 L145 70 L145 295 L343 295 L343 352 L145 352 L145 610 L255 610 C333.519 610 399.519 584.667 453 534 C507.667 482.211 535 417.544 535 340 L535 340 Z M603 340 C603 389.333 593.833 434.833 575.5 476.5 C557.167 518.167 532.333 554 501 584 C469.667 614 432.667 637.5 390 654.5 C347.333 671.5 301.667 680 253 680 L75 680 L75 352 L8 352 L8 295 L75 295 L75 0 L253 0 C301.667 0 347.333 8.5 390 25.5 C432.667 42.5 469.667 66 501 96 C532.333 126 557.167 161.833 575.5 203.5 C593.833 245.167 603 290.667 603 340 L603 340 Z " />
<glyph glyph-name="Ntilde" unicode="&#xd1;" horiz-adv-x="602" d="M145 501 L527 -42 L527 680 L457 680 L457 180 L75 723 L75 0 L145 0 L145 501 Z M138 750 L187 750 C185.667 762.667 186.333 774 189 784 C194.385 807.333 208.051 819 230 819 C243.333 819 254 814.833 262 806.5 C270 798.167 278.167 788.833 286.5 778.5 C294.833 768.167 305 758.833 317 750.5 C329 742.167 347.833 738 373.5 738 C399.167 738 418.833 744.5 432.5 757.5 C459.766 783.436 470.933 818.603 466 863 L417 863 C417 837.917 415.333 821.417 412 813.5 C409.333 807.167 405 802.333 399 799 C393 795.667 384 794 372 794 C360 794 350.167 798.167 342.5 806.5 C334.833 814.833 326.833 824 318.5 834 C310.167 844 300 853.167 288 861.5 C276 869.833 257.667 874 233 874 C208.333 874 189.167 867.5 175.5 854.5 C149.224 829.505 136.724 794.672 138 750 L138 750 Z " />
<glyph glyph-name="Ograve" unicode="&#xd2;" horiz-adv-x="789" d="M674 342 C674 264.667 646.667 198.667 592 144 C537.333 89.3333 471.333 62 394 62 C317.333 62 251.667 89.3333 197 144 C142.333 198.667 115 264.667 115 342 C115 418.667 142.333 484.333 197 539 C251.667 593.667 317.333 621 394 621 C471.333 621 537.333 593.667 592 539 C646.667 484.333 674 418.667 674 342 L674 342 Z M744 342 C744 390 734.833 435.333 716.5 478 C698.167 520.667 673.167 557.667 641.5 589 C609.833 620.333 572.667 645.167 530 663.5 C487.333 681.833 442 691 394 691 C346 691 300.833 681.833 258.5 663.5 C216.167 645.167 179.167 620.333 147.5 589 C115.833 557.667 90.8333 520.667 72.5 478 C54.1667 435.333 45 390 45 342 C45 294 54.1667 248.667 72.5 206 C90.8333 163.333 115.833 126.167 147.5 94.5 C179.167 62.8333 216.167 37.8333 258.5 19.5 C300.833 1.16667 346 -8 394 -8 C442 -8 487.333 1.16667 530 19.5 C572.667 37.8333 609.833 62.8333 641.5 94.5 C673.167 126.167 698.167 163.333 716.5 206 C734.833 248.667 744 294 744 342 L744 342 Z M422 750 L332 893 L256 893 L366 750 L422 750 Z " />
<glyph glyph-name="Oacute" unicode="&#xd3;" horiz-adv-x="789" d="M674 342 C674 264.667 646.667 198.667 592 144 C537.333 89.3333 471.333 62 394 62 C317.333 62 251.667 89.3333 197 144 C142.333 198.667 115 264.667 115 342 C115 418.667 142.333 484.333 197 539 C251.667 593.667 317.333 621 394 621 C471.333 621 537.333 593.667 592 539 C646.667 484.333 674 418.667 674 342 L674 342 Z M744 342 C744 390 734.833 435.333 716.5 478 C698.167 520.667 673.167 557.667 641.5 589 C609.833 620.333 572.667 645.167 530 663.5 C487.333 681.833 442 691 394 691 C346 691 300.833 681.833 258.5 663.5 C216.167 645.167 179.167 620.333 147.5 589 C115.833 557.667 90.8333 520.667 72.5 478 C54.1667 435.333 45 390 45 342 C45 294 54.1667 248.667 72.5 206 C90.8333 163.333 115.833 126.167 147.5 94.5 C179.167 62.8333 216.167 37.8333 258.5 19.5 C300.833 1.16667 346 -8 394 -8 C442 -8 487.333 1.16667 530 19.5 C572.667 37.8333 609.833 62.8333 641.5 94.5 C673.167 126.167 698.167 163.333 716.5 206 C734.833 248.667 744 294 744 342 L744 342 Z M532 893 L446 893 L366 750 L422 750 L532 893 Z " />
<glyph glyph-name="Ocircumflex" unicode="&#xd4;" horiz-adv-x="789" d="M674 342 C674 264.667 646.667 198.667 592 144 C537.333 89.3333 471.333 62 394 62 C317.333 62 251.667 89.3333 197 144 C142.333 198.667 115 264.667 115 342 C115 418.667 142.333 484.333 197 539 C251.667 593.667 317.333 621 394 621 C471.333 621 537.333 593.667 592 539 C646.667 484.333 674 418.667 674 342 L674 342 Z M744 342 C744 390 734.833 435.333 716.5 478 C698.167 520.667 673.167 557.667 641.5 589 C609.833 620.333 572.667 645.167 530 663.5 C487.333 681.833 442 691 394 691 C346 691 300.833 681.833 258.5 663.5 C216.167 645.167 179.167 620.333 147.5 589 C115.833 557.667 90.8333 520.667 72.5 478 C54.1667 435.333 45 390 45 342 C45 294 54.1667 248.667 72.5 206 C90.8333 163.333 115.833 126.167 147.5 94.5 C179.167 62.8333 216.167 37.8333 258.5 19.5 C300.833 1.16667 346 -8 394 -8 C442 -8 487.333 1.16667 530 19.5 C572.667 37.8333 609.833 62.8333 641.5 94.5 C673.167 126.167 698.167 163.333 716.5 206 C734.833 248.667 744 294 744 342 L744 342 Z M394 856 L466 750 L537 750 L427 893 L361 893 L251 750 L322 750 L394 856 Z " />
<glyph glyph-name="Otilde" unicode="&#xd5;" horiz-adv-x="789" d="M674 342 C674 264.667 646.667 198.667 592 144 C537.333 89.3333 471.333 62 394 62 C317.333 62 251.667 89.3333 197 144 C142.333 198.667 115 264.667 115 342 C115 418.667 142.333 484.333 197 539 C251.667 593.667 317.333 621 394 621 C471.333 621 537.333 593.667 592 539 C646.667 484.333 674 418.667 674 342 L674 342 Z M744 342 C744 390 734.833 435.333 716.5 478 C698.167 520.667 673.167 557.667 641.5 589 C609.833 620.333 572.667 645.167 530 663.5 C487.333 681.833 442 691 394 691 C346 691 300.833 681.833 258.5 663.5 C216.167 645.167 179.167 620.333 147.5 589 C115.833 557.667 90.8333 520.667 72.5 478 C54.1667 435.333 45 390 45 342 C45 294 54.1667 248.667 72.5 206 C90.8333 163.333 115.833 126.167 147.5 94.5 C179.167 62.8333 216.167 37.8333 258.5 19.5 C300.833 1.16667 346 -8 394 -8 C442 -8 487.333 1.16667 530 19.5 C572.667 37.8333 609.833 62.8333 641.5 94.5 C673.167 126.167 698.167 163.333 716.5 206 C734.833 248.667 744 294 744 342 L744 342 Z M230 750 L279 750 C277.667 762.667 278.333 774 281 784 C286.385 807.333 300.051 819 322 819 C335.333 819 346 814.833 354 806.5 C362 798.167 370.167 788.833 378.5 778.5 C386.833 768.167 397 758.833 409 750.5 C421 742.167 439.833 738 465.5 738 C491.167 738 510.833 744.5 524.5 757.5 C551.766 783.436 562.933 818.603 558 863 L509 863 C509 837.917 507.333 821.417 504 813.5 C501.333 807.167 497 802.333 491 799 C485 795.667 476 794 464 794 C452 794 442.167 798.167 434.5 806.5 C426.833 814.833 418.833 824 410.5 834 C402.167 844 392 853.167 380 861.5 C368 869.833 349.667 874 325 874 C300.333 874 281.167 867.5 267.5 854.5 C241.224 829.505 228.724 794.672 230 750 L230 750 Z " />
<glyph glyph-name="Odieresis" unicode="&#xd6;" horiz-adv-x="789" d="M674 342 C674 264.667 646.667 198.667 592 144 C537.333 89.3333 471.333 62 394 62 C317.333 62 251.667 89.3333 197 144 C142.333 198.667 115 264.667 115 342 C115 418.667 142.333 484.333 197 539 C251.667 593.667 317.333 621 394 621 C471.333 621 537.333 593.667 592 539 C646.667 484.333 674 418.667 674 342 L674 342 Z M744 342 C744 390 734.833 435.333 716.5 478 C698.167 520.667 673.167 557.667 641.5 589 C609.833 620.333 572.667 645.167 530 663.5 C487.333 681.833 442 691 394 691 C346 691 300.833 681.833 258.5 663.5 C216.167 645.167 179.167 620.333 147.5 589 C115.833 557.667 90.8333 520.667 72.5 478 C54.1667 435.333 45 390 45 342 C45 294 54.1667 248.667 72.5 206 C90.8333 163.333 115.833 126.167 147.5 94.5 C179.167 62.8333 216.167 37.8333 258.5 19.5 C300.833 1.16667 346 -8 394 -8 C442 -8 487.333 1.16667 530 19.5 C572.667 37.8333 609.833 62.8333 641.5 94.5 C673.167 126.167 698.167 163.333 716.5 206 C734.833 248.667 744 294 744 342 L744 342 Z M517 826 C508.333 834.667 497.667 839 485 839 C472.333 839 461.833 834.667 453.5 826 C445.167 817.333 441 806.833 441 794.5 C441 782.167 445.167 771.667 453.5 763 C461.833 754.333 472.333 750 485 750 C497.667 750 508.333 754.333 517 763 C525.667 771.667 530 782.167 530 794.5 C530 806.833 525.667 817.333 517 826 L517 826 Z M335 826 C326.333 834.667 315.667 839 303 839 C290.333 839 279.833 834.667 271.5 826 C263.167 817.333 259 806.833 259 794.5 C259 782.167 263.167 771.667 271.5 763 C279.833 754.333 290.333 750 303 750 C315.667 750 326.333 754.333 335 763 C343.667 771.667 348 782.167 348 794.5 C348 806.833 343.667 817.333 335 826 L335 826 Z " />
<glyph glyph-name="multiply" unicode="&#xd7;" horiz-adv-x="460" d="M386 106 L271 222 L386 338 L346 379 L230 263 L114 379 L74 338 L189 222 L74 106 L114 66 L230 182 L346 66 L386 106 Z " />
<glyph glyph-name="Oslash" unicode="&#xd8;" horiz-adv-x="789" d="M744 342 C744 390 734.833 435.333 716.5 478 C702.199 511.282 683.842 541.116 661.428 567.502 L704 610 L665 649 L622.438 606.511 C595.197 629.729 564.385 648.725 530 663.5 C487.333 681.833 442 691 394 691 C346 691 300.833 681.833 258.5 663.5 C216.167 645.167 179.167 620.333 147.5 589 C115.833 557.667 90.8333 520.667 72.5 478 C54.1667 435.333 45 390 45 342 C45 294 54.1667 248.667 72.5 206 C87.1605 171.881 106.084 141.279 129.271 114.194 L85 70 L124 31 L168.346 75.2698 C195.085 52.5389 225.136 33.949 258.5 19.5 C300.833 1.16666 346 -8.00002 394 -8.00002 C442 -8.00002 487.333 1.16666 530 19.5 C572.667 37.8333 609.833 62.8333 641.5 94.5 C673.167 126.167 698.167 163.333 716.5 206 C734.833 248.667 744 294 744 342 L744 342 Z M217.976 124.814 L611.494 517.653 C653.165 467.487 674 408.936 674 342 C674 264.667 646.667 198.667 592 144 C537.333 89.3333 471.333 62 394 62 C326.899 62 268.225 82.938 217.976 124.814 L217.976 124.814 Z M178.88 163.718 C136.293 214.316 115 273.744 115 342 C115 418.667 142.333 484.333 197 539 C251.667 593.667 317.333 621 394 621 C462.422 621 521.972 599.603 572.65 556.809 L178.88 163.718 Z " />
<glyph glyph-name="Ugrave" unicode="&#xd9;" horiz-adv-x="627" d="M567 225 L567 680 L497 680 L497 215 C497 187.667 492 164.333 482 145 C453.035 89 397.035 61 314 61 C260.544 61 217.71 73 185.5 97 C148.5 124.568 130 163.902 130 215 L130 680 L60 680 L60 225 C60 151.353 84 93.3529 132 51 C177.333 11 238 -9 314 -9 C389.333 -9 449.667 11 495 51 C543 93.3529 567 151.353 567 225 L567 225 Z M352 750 L262 893 L186 893 L296 750 L352 750 Z " />
<glyph glyph-name="Uacute" unicode="&#xda;" horiz-adv-x="627" d="M567 225 L567 680 L497 680 L497 215 C497 187.667 492 164.333 482 145 C453.035 89 397.035 61 314 61 C260.544 61 217.71 73 185.5 97 C148.5 124.568 130 163.902 130 215 L130 680 L60 680 L60 225 C60 151.353 84 93.3529 132 51 C177.333 11 238 -9 314 -9 C389.333 -9 449.667 11 495 51 C543 93.3529 567 151.353 567 225 L567 225 Z M456 893 L370 893 L290 750 L346 750 L456 893 Z " />
<glyph glyph-name="Ucircumflex" unicode="&#xdb;" horiz-adv-x="627" d="M567 225 L567 680 L497 680 L497 215 C497 187.667 492 164.333 482 145 C453.035 89 397.035 61 314 61 C260.544 61 217.71 73 185.5 97 C148.5 124.568 130 163.902 130 215 L130 680 L60 680 L60 225 C60 151.353 84 93.3529 132 51 C177.333 11 238 -9 314 -9 C389.333 -9 449.667 11 495 51 C543 93.3529 567 151.353 567 225 L567 225 Z M314 856 L386 750 L457 750 L347 893 L281 893 L171 750 L242 750 L314 856 Z " />
<glyph glyph-name="Udieresis" unicode="&#xdc;" horiz-adv-x="627" d="M567 225 L567 680 L497 680 L497 215 C497 187.667 492 164.333 482 145 C453.035 89 397.035 61 314 61 C260.544 61 217.71 73 185.5 97 C148.5 124.568 130 163.902 130 215 L130 680 L60 680 L60 225 C60 151.353 84 93.3529 132 51 C177.333 11 238 -9 314 -9 C389.333 -9 449.667 11 495 51 C543 93.3529 567 151.353 567 225 L567 225 Z M437 826 C428.333 834.667 417.667 839 405 839 C392.333 839 381.833 834.667 373.5 826 C365.167 817.333 361 806.833 361 794.5 C361 782.167 365.167 771.667 373.5 763 C381.833 754.333 392.333 750 405 750 C417.667 750 428.333 754.333 437 763 C445.667 771.667 450 782.167 450 794.5 C450 806.833 445.667 817.333 437 826 L437 826 Z M255 826 C246.333 834.667 235.667 839 223 839 C210.333 839 199.833 834.667 191.5 826 C183.167 817.333 179 806.833 179 794.5 C179 782.167 183.167 771.667 191.5 763 C199.833 754.333 210.333 750 223 750 C235.667 750 246.333 754.333 255 763 C263.667 771.667 268 782.167 268 794.5 C268 806.833 263.667 817.333 255 826 L255 826 Z " />
<glyph glyph-name="Yacute" unicode="&#xdd;" horiz-adv-x="605" d="M338 320.024 L595 680 L506 680 L303 389 L100 680 L10 680 L268 319.856 L268 0 L338 0 L338 320.024 Z M448 893 L362 893 L282 750 L338 750 L448 893 Z " />
<glyph glyph-name="Thorn" unicode="&#xde;" horiz-adv-x="529" d="M509 375 C509 435 487.833 484.333 445.5 523 C403.833 561 353 580 293 580 L145 580 L145 680.286 L75 680.286 L75 0 L145 0 L145 169 L293 169 C353.667 169 404.5 188.167 445.5 226.5 C487.833 266.167 509 315.667 509 375 L509 375 Z M145 513 L303 513 C344.333 513 377.333 500.333 402 475 C426.667 449.667 439 416.931 439 376.792 C439 336.931 426 303.5 400 276.5 C374.667 250.167 342.333 237 303 237 L145 237 L145 513 Z " />
<glyph glyph-name="germandbls" unicode="&#xdf;" horiz-adv-x="552" d="M235 0 L301 0 C358.455 0 408.455 19.5 451 58.5 C495 98.8333 517 147.667 517 205 C517 249.667 503.333 287.167 476 317.5 C448.667 347.833 415 370.667 375 386 C401 399.333 422.5 417.5 439.5 440.5 C456.5 463.5 465 490.333 465 521 C465 571.176 445.833 612.176 407.5 644 C370.561 674.667 327.061 690 277 690 C201.818 690 148.318 666.667 116.5 620 C89.5 580.4 76 520.733 76 441 L76 0 L148 0 L148 416 C148 440.667 148.667 465 150 489 C151.333 513 156 534.5 164 553.5 C172 572.5 184.833 587.833 202.5 599.5 C220.167 611.167 244.899 617 276.696 617 C308.494 617 335.095 607.333 356.5 588 C379.5 567.226 391 541.892 391 512 C391 481.441 379.5 455.774 356.5 435 C335.095 415.667 308.595 406 277 406 L267 406 L267 344 L301 344 C339.857 344 373.19 331.833 401 307.5 C429.667 282.417 444 250.583 444 212 C444 171.617 429.667 137.45 401 109.5 C371.94 81.1667 338.607 67 301 67 L232 67 L235 0 Z " />
<glyph glyph-name="agrave" unicode="&#xe0;" horiz-adv-x="570" d="M425 220 C425 177.171 410.167 139.837 380.5 108 C350.682 76 313.848 60 270 60 C226.152 60 189.318 76 159.5 108 C129.833 139.837 115 177.171 115 220 C115 262.829 129.833 300.163 159.5 332 C189.318 364 226.152 380 270 380 C313.848 380 350.682 364 380.5 332 C410.167 300.163 425 262.829 425 220 L425 220 Z M495 0 L495 440 L425 440 L425 364.865 C421.074 370.007 416.908 375.051 412.5 380 C370.938 426.667 319.771 450 259 450 C198.229 450 147.062 426.667 105.5 380 C65.1667 334.714 45 281.38 45 220 C45 158.62 65.1667 105.286 105.5 60 C147.062 13.3333 198.229 -10 259 -10 C319.771 -10 370.938 13.3333 412.5 60 C416.908 64.9486 421.074 69.9935 425 75.1348 L425 0 L495 0 Z M304 517 L214 660 L138 660 L248 517 L304 517 Z " />
<glyph glyph-name="aacute" unicode="&#xe1;" horiz-adv-x="570" d="M425 220 C425 177.171 410.167 139.837 380.5 108 C350.682 76 313.848 60 270 60 C226.152 60 189.318 76 159.5 108 C129.833 139.837 115 177.171 115 220 C115 262.829 129.833 300.163 159.5 332 C189.318 364 226.152 380 270 380 C313.848 380 350.682 364 380.5 332 C410.167 300.163 425 262.829 425 220 L425 220 Z M495 0 L495 440 L425 440 L425 364.865 C421.074 370.007 416.908 375.051 412.5 380 C370.938 426.667 319.771 450 259 450 C198.229 450 147.062 426.667 105.5 380 C65.1667 334.714 45 281.38 45 220 C45 158.62 65.1667 105.286 105.5 60 C147.062 13.3333 198.229 -10 259 -10 C319.771 -10 370.938 13.3333 412.5 60 C416.908 64.9486 421.074 69.9935 425 75.1348 L425 0 L495 0 Z M378 681 L292 681 L212 538 L268 538 L378 681 Z " />
<glyph glyph-name="acircumflex" unicode="&#xe2;" horiz-adv-x="570" d="M425 220 C425 177.171 410.167 139.837 380.5 108 C350.682 76 313.848 60 270 60 C226.152 60 189.318 76 159.5 108 C129.833 139.837 115 177.171 115 220 C115 262.829 129.833 300.163 159.5 332 C189.318 364 226.152 380 270 380 C313.848 380 350.682 364 380.5 332 C410.167 300.163 425 262.829 425 220 L425 220 Z M495 0 L495 440 L425 440 L425 364.865 C421.074 370.007 416.908 375.051 412.5 380 C370.938 426.667 319.771 450 259 450 C198.229 450 147.062 426.667 105.5 380 C65.1667 334.714 45 281.38 45 220 C45 158.62 65.1667 105.286 105.5 60 C147.062 13.3333 198.229 -10 259 -10 C319.771 -10 370.938 13.3333 412.5 60 C416.908 64.9486 421.074 69.9935 425 75.1348 L425 0 L495 0 Z M265 623 L337 517 L408 517 L298 660 L232 660 L122 517 L193 517 L265 623 Z " />
<glyph glyph-name="atilde" unicode="&#xe3;" horiz-adv-x="570" d="M425 220 C425 177.171 410.167 139.837 380.5 108 C350.682 76 313.848 60 270 60 C226.152 60 189.318 76 159.5 108 C129.833 139.837 115 177.171 115 220 C115 262.829 129.833 300.163 159.5 332 C189.318 364 226.152 380 270 380 C313.848 380 350.682 364 380.5 332 C410.167 300.163 425 262.829 425 220 L425 220 Z M495 0 L495 440 L425 440 L425 364.865 C421.074 370.007 416.908 375.051 412.5 380 C370.938 426.667 319.771 450 259 450 C198.229 450 147.062 426.667 105.5 380 C65.1667 334.714 45 281.38 45 220 C45 158.62 65.1667 105.286 105.5 60 C147.062 13.3333 198.229 -10 259 -10 C319.771 -10 370.938 13.3333 412.5 60 C416.908 64.9486 421.074 69.9935 425 75.1348 L425 0 L495 0 Z M105 518 L154 518 C152.667 530.667 153.333 542 156 552 C161.385 575.333 175.051 587 197 587 C210.333 587 221 582.833 229 574.5 C237 566.167 245.167 556.833 253.5 546.5 C261.833 536.167 272 526.833 284 518.5 C296 510.167 314.833 506 340.5 506 C366.167 506 385.833 512.5 399.5 525.5 C426.766 551.436 437.933 586.603 433 631 L384 631 C384 605.917 382.333 589.417 379 581.5 C376.333 575.167 372 570.333 366 567 C360 563.667 351 562 339 562 C327 562 317.167 566.167 309.5 574.5 C301.833 582.833 293.833 592 285.5 602 C277.167 612 267 621.167 255 629.5 C243 637.833 224.667 642 200 642 C175.333 642 156.167 635.5 142.5 622.5 C116.224 597.505 103.724 562.672 105 518 L105 518 Z " />
<glyph glyph-name="adieresis" unicode="&#xe4;" horiz-adv-x="570" d="M425 220 C425 177.171 410.167 139.837 380.5 108 C350.682 76 313.848 60 270 60 C226.152 60 189.318 76 159.5 108 C129.833 139.837 115 177.171 115 220 C115 262.829 129.833 300.163 159.5 332 C189.318 364 226.152 380 270 380 C313.848 380 350.682 364 380.5 332 C410.167 300.163 425 262.829 425 220 L425 220 Z M495 0 L495 440 L425 440 L425 364.865 C421.074 370.007 416.908 375.051 412.5 380 C370.938 426.667 319.771 450 259 450 C198.229 450 147.062 426.667 105.5 380 C65.1667 334.714 45 281.38 45 220 C45 158.62 65.1667 105.286 105.5 60 C147.062 13.3333 198.229 -10 259 -10 C319.771 -10 370.938 13.3333 412.5 60 C416.908 64.9486 421.074 69.9935 425 75.1348 L425 0 L495 0 Z M379 593 C370.333 601.667 359.667 606 347 606 C334.333 606 323.833 601.667 315.5 593 C307.167 584.333 303 573.833 303 561.5 C303 549.167 307.167 538.667 315.5 530 C323.833 521.333 334.333 517 347 517 C359.667 517 370.333 521.333 379 530 C387.667 538.667 392 549.167 392 561.5 C392 573.833 387.667 584.333 379 593 L379 593 Z M197 593 C188.333 601.667 177.667 606 165 606 C152.333 606 141.833 601.667 133.5 593 C125.167 584.333 121 573.833 121 561.5 C121 549.167 125.167 538.667 133.5 530 C141.833 521.333 152.333 517 165 517 C177.667 517 188.333 521.333 197 530 C205.667 538.667 210 549.167 210 561.5 C210 573.833 205.667 584.333 197 593 L197 593 Z " />
<glyph glyph-name="aring" unicode="&#xe5;" horiz-adv-x="570" d="M425 220 C425 177.171 410.167 139.837 380.5 108 C350.682 76 313.848 60 270 60 C226.152 60 189.318 76 159.5 108 C129.833 139.837 115 177.171 115 220 C115 262.829 129.833 300.163 159.5 332 C189.318 364 226.152 380 270 380 C313.848 380 350.682 364 380.5 332 C410.167 300.163 425 262.829 425 220 L425 220 Z M495 0 L495 440 L425 440 L425 364.865 C421.074 370.007 416.908 375.051 412.5 380 C370.938 426.667 319.771 450 259 450 C198.229 450 147.062 426.667 105.5 380 C65.1667 334.714 45 281.38 45 220 C45 158.62 65.1667 105.286 105.5 60 C147.062 13.3333 198.229 -10 259 -10 C319.771 -10 370.938 13.3333 412.5 60 C416.908 64.9486 421.074 69.9935 425 75.1348 L425 0 L495 0 Z M224.5 625 C232.833 633 243 637 255 637 C267 637 277.167 633 285.5 625 C293.833 617 298 607.5 298 596.5 C298 585.5 294 576 286 568 C278 560 267.833 556 255.5 556 C243.167 556 232.833 560 224.5 568 C216.167 576 212 585.5 212 596.5 C212 607.5 216.167 617 224.5 625 L224.5 625 Z M157 596 C157 569.21 166.833 546.71 186.5 528.5 C206.3 510.167 229.133 501 255 501 C281.975 501 304.808 510 323.5 528 C343.167 546.938 353 569.605 353 596 C353 623.457 343.167 646.29 323.5 664.5 C303.7 682.833 280.867 692 255 692 C228.718 692 205.885 682.667 186.5 664 C166.833 645.062 157 622.395 157 596 L157 596 Z " />
<glyph glyph-name="ae" unicode="&#xe6;" horiz-adv-x="867" d="M387 119 C363 99.6667 334.833 84.5 302.5 73.5 C270.167 62.5 239.333 57 210 57 C180.667 57 157.5 63.1667 140.5 75.5 C123.5 87.8333 115 109.652 115 140.957 C115 172.261 131.667 196.609 165 214 L362 214 L362 213 C364.903 176.714 373.236 145.381 387 119 L387 119 Z M748 258 L436 258 C444.667 294.667 463.5 324.5 492.5 347.5 C521.5 370.5 554.833 382 592.5 382 C630.167 382 663.333 370.5 692 347.5 C720.667 324.5 739.333 294.667 748 258 L748 258 Z M416 74 C461.692 20 523.359 -7 601 -7 C641 -7 679.833 5.16667 717.5 29.5 C755.167 53.8333 783.333 87 802 129 L722 129 C706.667 108.333 687.5 92.1667 664.5 80.5 C641.5 68.8333 617.333 63 592 63 C554.471 63 520.471 75.3333 490 100 C460.08 124.221 441.746 155.221 435 193 L822 193 L822 230 C822 290.54 798.833 342.873 752.5 387 C731.5 407 707 422.833 679 434.5 C651 446.167 620.833 452 588.5 452 C556.167 452 524.5 444.667 493.5 430 C462.5 415.333 436 394.667 414 368 C398 398 374.5 419.167 343.5 431.5 C312.5 443.833 279.5 450 244.5 450 C209.5 450 175.667 442 143 426 C110.333 410 86.3333 383.667 71 347 L135 320 C144.333 342.667 159.833 359.667 181.5 371 C203.167 382.333 223.5 388 242.5 388 C261.5 388 277.667 386.167 291 382.5 C338.333 369.483 362 340.317 362 295 L362 270 L140 270 C111.333 258 88.3333 240 71 216 C53.6667 192 45 164 45 132 C45 88.2051 58.8333 53.5385 86.5 28 C99.5 16 115.167 6.66667 133.5 0 C151.833 -6.66667 170.833 -10 190.5 -10 C210.167 -10 230.333 -7.83333 251 -3.5 C319.567 10.877 374.567 36.7103 416 74 L416 74 Z " />
<glyph glyph-name="ccedilla" unicode="&#xe7;" horiz-adv-x="521" d="M486 282 C472.178 331.757 445.678 371.757 406.5 402 C365.909 433.333 320.409 449 270 449 C207.204 449 153.871 426.333 110 381 C66.6667 336.222 45 282.555 45 220 C45 157.833 66.6667 104 110 58.5 C130 37.5 153.667 20.8333 181 8.5 C200.16 -0.145432 219.484 -5.76073 238.972 -8.34587 L196 -103 C209.333 -101 223.667 -98.6667 239 -96 C254.333 -93.3333 269 -93 283 -95 C320.39 -100.539 336.057 -120.872 330 -156 C327.499 -177.259 308.665 -189.759 273.5 -193.5 C239.136 -197.156 203.303 -192.322 166 -179 L141 -231 C188.086 -249.549 234.419 -255.715 280 -249.5 C329.384 -242.766 361.717 -220.932 377 -184 C391.249 -150.32 389.916 -118.487 373 -88.5 C365.667 -75.5 355.833 -65 343.5 -57 C331.167 -49 316.917 -45 300.75 -45 C284.583 -45 276 -45.3333 275 -46 L292.858 -8.5325 C309.478 -6.77211 324.859 -3.42795 339 1.5 C409.471 26.0579 457.138 73.5579 482 144 L403 144 C389.667 119.333 371.167 99.6667 347.5 85 C323.833 70.3333 298 63 270 63 C227.225 63 191.058 78.5 161.5 109.5 C131.833 140.614 117 177.447 117 220 C117 261.886 131.833 298.386 161.5 329.5 C175.167 343.833 191.333 355.167 210 363.5 C228.667 371.833 251 376 277 376 C303 376 328.667 367.333 354 350 C379.333 332.667 398 310 410 282 L486 282 Z " />
<glyph glyph-name="egrave" unicode="&#xe8;" horiz-adv-x="550" d="M505 230 C505 290.54 481.833 342.873 435.5 387 C390 430.333 336.5 452 275 452 C211.667 452 157.5 429.5 112.5 384.5 C67.5 339.5 45 285.333 45 222 C45 158.286 67.5 104.286 112.5 60 C133.5 39.3333 157.833 23 185.5 11 C213.167 -1 246.5 -7 285.5 -7 C324.5 -7 362.833 5.16667 400.5 29.5 C438.167 53.8333 466.333 87 485 129 L405 129 C389.667 108.333 370.5 92.1667 347.5 80.5 C324.5 68.8333 300.333 63 275 63 C237.471 63 203.471 75.3333 173 100 C143.079 124.221 124.746 155.221 118 193 L505 193 L505 230 Z M431 253 L119 253 C123 271.667 130 288.833 140 304.5 C172.979 356.167 217.979 382 275 382 C312.392 382 345.559 370 374.5 346 C404.15 321.412 422.983 290.412 431 253 L431 253 Z M314 517 L224 660 L148 660 L258 517 L314 517 Z " />
<glyph glyph-name="eacute" unicode="&#xe9;" horiz-adv-x="550" d="M505 230 C505 290.54 481.833 342.873 435.5 387 C390 430.333 336.5 452 275 452 C211.667 452 157.5 429.5 112.5 384.5 C67.5 339.5 45 285.333 45 222 C45 158.286 67.5 104.286 112.5 60 C133.5 39.3333 157.833 23 185.5 11 C213.167 -1 246.5 -7 285.5 -7 C324.5 -7 362.833 5.16667 400.5 29.5 C438.167 53.8333 466.333 87 485 129 L405 129 C389.667 108.333 370.5 92.1667 347.5 80.5 C324.5 68.8333 300.333 63 275 63 C237.471 63 203.471 75.3333 173 100 C143.079 124.221 124.746 155.221 118 193 L505 193 L505 230 Z M431 253 L119 253 C123 271.667 130 288.833 140 304.5 C172.979 356.167 217.979 382 275 382 C312.392 382 345.559 370 374.5 346 C404.15 321.412 422.983 290.412 431 253 L431 253 Z M408 681 L322 681 L242 538 L298 538 L408 681 Z " />
<glyph glyph-name="ecircumflex" unicode="&#xea;" horiz-adv-x="550" d="M505 230 C505 290.54 481.833 342.873 435.5 387 C390 430.333 336.5 452 275 452 C211.667 452 157.5 429.5 112.5 384.5 C67.5 339.5 45 285.333 45 222 C45 158.286 67.5 104.286 112.5 60 C133.5 39.3333 157.833 23 185.5 11 C213.167 -1 246.5 -7 285.5 -7 C324.5 -7 362.833 5.16667 400.5 29.5 C438.167 53.8333 466.333 87 485 129 L405 129 C389.667 108.333 370.5 92.1667 347.5 80.5 C324.5 68.8333 300.333 63 275 63 C237.471 63 203.471 75.3333 173 100 C143.079 124.221 124.746 155.221 118 193 L505 193 L505 230 Z M431 253 L119 253 C123 271.667 130 288.833 140 304.5 C172.979 356.167 217.979 382 275 382 C312.392 382 345.559 370 374.5 346 C404.15 321.412 422.983 290.412 431 253 L431 253 Z M275 623 L347 517 L418 517 L308 660 L242 660 L132 517 L203 517 L275 623 Z " />
<glyph glyph-name="edieresis" unicode="&#xeb;" horiz-adv-x="550" d="M505 230 C505 290.54 481.833 342.873 435.5 387 C390 430.333 336.5 452 275 452 C211.667 452 157.5 429.5 112.5 384.5 C67.5 339.5 45 285.333 45 222 C45 158.286 67.5 104.286 112.5 60 C133.5 39.3333 157.833 23 185.5 11 C213.167 -1 246.5 -7 285.5 -7 C324.5 -7 362.833 5.16667 400.5 29.5 C438.167 53.8333 466.333 87 485 129 L405 129 C389.667 108.333 370.5 92.1667 347.5 80.5 C324.5 68.8333 300.333 63 275 63 C237.471 63 203.471 75.3333 173 100 C143.079 124.221 124.746 155.221 118 193 L505 193 L505 230 Z M431 253 L119 253 C123 271.667 130 288.833 140 304.5 C172.979 356.167 217.979 382 275 382 C312.392 382 345.559 370 374.5 346 C404.15 321.412 422.983 290.412 431 253 L431 253 Z M399 593 C390.333 601.667 379.667 606 367 606 C354.333 606 343.833 601.667 335.5 593 C327.167 584.333 323 573.833 323 561.5 C323 549.167 327.167 538.667 335.5 530 C343.833 521.333 354.333 517 367 517 C379.667 517 390.333 521.333 399 530 C407.667 538.667 412 549.167 412 561.5 C412 573.833 407.667 584.333 399 593 L399 593 Z M217 593 C208.333 601.667 197.667 606 185 606 C172.333 606 161.833 601.667 153.5 593 C145.167 584.333 141 573.833 141 561.5 C141 549.167 145.167 538.667 153.5 530 C161.833 521.333 172.333 517 185 517 C197.667 517 208.333 521.333 217 530 C225.667 538.667 230 549.167 230 561.5 C230 573.833 225.667 584.333 217 593 L217 593 Z " />
<glyph glyph-name="igrave" unicode="&#xec;" horiz-adv-x="229" d="M150 0 L150 440 L80 440 L80 0 L150 0 Z M144 517 L54 660 L-22 660 L88 517 L144 517 Z " />
<glyph glyph-name="iacute" unicode="&#xed;" horiz-adv-x="229" d="M150 0 L150 440 L80 440 L80 0 L150 0 Z M265 681 L179 681 L99 538 L155 538 L265 681 Z " />
<glyph glyph-name="icircumflex" unicode="&#xee;" horiz-adv-x="229" d="M150 0 L150 440 L80 440 L80 0 L150 0 Z M115 623 L187 517 L258 517 L148 660 L82 660 L-28 517 L43 517 L115 623 Z " />
<glyph glyph-name="idieresis" unicode="&#xef;" horiz-adv-x="229" d="M150 0 L150 440 L80 440 L80 0 L150 0 Z M239 593 C230.333 601.667 219.667 606 207 606 C194.333 606 183.833 601.667 175.5 593 C167.167 584.333 163 573.833 163 561.5 C163 549.167 167.167 538.667 175.5 530 C183.833 521.333 194.333 517 207 517 C219.667 517 230.333 521.333 239 530 C247.667 538.667 252 549.167 252 561.5 C252 573.833 247.667 584.333 239 593 L239 593 Z M57 593 C48.3333 601.667 37.6667 606 25 606 C12.3333 606 1.83333 601.667 -6.5 593 C-14.8333 584.333 -19 573.833 -19 561.5 C-19 549.167 -14.8333 538.667 -6.5 530 C1.83333 521.333 12.3333 517 25 517 C37.6667 517 48.3333 521.333 57 530 C65.6667 538.667 70 549.167 70 561.5 C70 573.833 65.6667 584.333 57 593 L57 593 Z " />
<glyph glyph-name="eth" unicode="&#xf0;" horiz-adv-x="570" d="M495 0 L495 546 L560 546 L560 603 L495 603 L495 750 L425 750 L425 603 L225 603 L225 546 L425 546 L425 364.865 C421.074 370.006 416.907 375.051 412.5 380 C370.938 426.667 319.771 450 259 450 C198.229 450 147.062 426.667 105.5 380 C65.1667 334.713 45 281.38 45 220 C45 158.62 65.1667 105.287 105.5 60 C147.062 13.3333 198.229 -10 259 -10 C319.771 -10 370.938 13.3333 412.5 60 C416.907 64.9487 421.074 69.9936 425 75.1345 L425 -1.52588e-05 L495 0 Z M425 220 C425 177.171 410.167 139.837 380.5 108 C350.682 76 313.848 60 270 60 C226.152 60 189.318 76 159.5 108 C129.833 139.837 115 177.171 115 220 C115 262.829 129.833 300.163 159.5 332 C189.318 364 226.152 380 270 380 C313.848 380 350.682 364 380.5 332 C410.167 300.163 425 262.829 425 220 L425 220 Z " />
<glyph glyph-name="ntilde" unicode="&#xf1;" horiz-adv-x="509" d="M379 0 L449 0 L449 275 C449 326 435.667 367.167 409 398.5 C395.667 414.167 379.333 426.5 360 435.5 C340.667 444.5 315.333 449 284 449 C252.667 449 225 440.833 201 424.5 C178.312 409.059 159.645 389.018 145 364.375 L145 440 L75 440 L75 0 L145 0 L145 184 C145 240 155.5 284.5 176.5 317.5 C188.167 335.833 203.333 350.667 222 362 C240.667 373.333 265 379 295 379 C325 379 346.5 368.833 359.5 348.5 C372.5 328.167 379 303.667 379 275 L379 0 Z M90 518 L139 518 C137.667 530.667 138.333 542 141 552 C146.385 575.333 160.051 587 182 587 C195.333 587 206 582.833 214 574.5 C222 566.167 230.167 556.833 238.5 546.5 C246.833 536.167 257 526.833 269 518.5 C281 510.167 299.833 506 325.5 506 C351.167 506 370.833 512.5 384.5 525.5 C411.766 551.436 422.933 586.603 418 631 L369 631 C369 605.917 367.333 589.417 364 581.5 C361.333 575.167 357 570.333 351 567 C345 563.667 336 562 324 562 C312 562 302.167 566.167 294.5 574.5 C286.833 582.833 278.833 592 270.5 602 C262.167 612 252 621.167 240 629.5 C228 637.833 209.667 642 185 642 C160.333 642 141.167 635.5 127.5 622.5 C101.224 597.505 88.724 562.672 90 518 L90 518 Z " />
<glyph glyph-name="ograve" unicode="&#xf2;" horiz-adv-x="550" d="M435 222 C435 178.667 419.333 141.333 388 110 C356.667 78.6667 319 63 275 63 C231 63 193.333 78.6667 162 110 C130.667 141.333 115 178.667 115 222 C115 266 130.667 303.667 162 335 C193.333 366.333 231 382 275 382 C319 382 356.667 366.333 388 335 C419.333 303.667 435 266 435 222 L435 222 Z M505 222 C505 285.333 482.5 339.5 437.5 384.5 C392.5 429.5 338.333 452 275 452 C211.667 452 157.5 429.5 112.5 384.5 C67.5 339.5 45 285.333 45 222 C45 158.286 67.5 104.286 112.5 60 C157.887 15.3333 212.054 -7 275 -7 C337.946 -7 392.113 15.3333 437.5 60 C482.5 104.286 505 158.286 505 222 L505 222 Z M313 517 L223 660 L147 660 L257 517 L313 517 Z " />
<glyph glyph-name="oacute" unicode="&#xf3;" horiz-adv-x="550" d="M435 222 C435 178.667 419.333 141.333 388 110 C356.667 78.6667 319 63 275 63 C231 63 193.333 78.6667 162 110 C130.667 141.333 115 178.667 115 222 C115 266 130.667 303.667 162 335 C193.333 366.333 231 382 275 382 C319 382 356.667 366.333 388 335 C419.333 303.667 435 266 435 222 L435 222 Z M505 222 C505 285.333 482.5 339.5 437.5 384.5 C392.5 429.5 338.333 452 275 452 C211.667 452 157.5 429.5 112.5 384.5 C67.5 339.5 45 285.333 45 222 C45 158.286 67.5 104.286 112.5 60 C157.887 15.3333 212.054 -7 275 -7 C337.946 -7 392.113 15.3333 437.5 60 C482.5 104.286 505 158.286 505 222 L505 222 Z M418 681 L332 681 L252 538 L308 538 L418 681 Z " />
<glyph glyph-name="ocircumflex" unicode="&#xf4;" horiz-adv-x="550" d="M435 222 C435 178.667 419.333 141.333 388 110 C356.667 78.6667 319 63 275 63 C231 63 193.333 78.6667 162 110 C130.667 141.333 115 178.667 115 222 C115 266 130.667 303.667 162 335 C193.333 366.333 231 382 275 382 C319 382 356.667 366.333 388 335 C419.333 303.667 435 266 435 222 L435 222 Z M505 222 C505 285.333 482.5 339.5 437.5 384.5 C392.5 429.5 338.333 452 275 452 C211.667 452 157.5 429.5 112.5 384.5 C67.5 339.5 45 285.333 45 222 C45 158.286 67.5 104.286 112.5 60 C157.887 15.3333 212.054 -7 275 -7 C337.946 -7 392.113 15.3333 437.5 60 C482.5 104.286 505 158.286 505 222 L505 222 Z M275 623 L347 517 L418 517 L308 660 L242 660 L132 517 L203 517 L275 623 Z " />
<glyph glyph-name="otilde" unicode="&#xf5;" horiz-adv-x="550" d="M435 222 C435 178.667 419.333 141.333 388 110 C356.667 78.6667 319 63 275 63 C231 63 193.333 78.6667 162 110 C130.667 141.333 115 178.667 115 222 C115 266 130.667 303.667 162 335 C193.333 366.333 231 382 275 382 C319 382 356.667 366.333 388 335 C419.333 303.667 435 266 435 222 L435 222 Z M505 222 C505 285.333 482.5 339.5 437.5 384.5 C392.5 429.5 338.333 452 275 452 C211.667 452 157.5 429.5 112.5 384.5 C67.5 339.5 45 285.333 45 222 C45 158.286 67.5 104.286 112.5 60 C157.887 15.3333 212.054 -7 275 -7 C337.946 -7 392.113 15.3333 437.5 60 C482.5 104.286 505 158.286 505 222 L505 222 Z M110 518 L159 518 C157.667 530.667 158.333 542 161 552 C166.385 575.333 180.051 587 202 587 C215.333 587 226 582.833 234 574.5 C242 566.167 250.167 556.833 258.5 546.5 C266.833 536.167 277 526.833 289 518.5 C301 510.167 319.833 506 345.5 506 C371.167 506 390.833 512.5 404.5 525.5 C431.766 551.436 442.933 586.603 438 631 L389 631 C389 605.917 387.333 589.417 384 581.5 C381.333 575.167 377 570.333 371 567 C365 563.667 356 562 344 562 C332 562 322.167 566.167 314.5 574.5 C306.833 582.833 298.833 592 290.5 602 C282.167 612 272 621.167 260 629.5 C248 637.833 229.667 642 205 642 C180.333 642 161.167 635.5 147.5 622.5 C121.224 597.505 108.724 562.672 110 518 L110 518 Z " />
<glyph glyph-name="odieresis" unicode="&#xf6;" horiz-adv-x="550" d="M435 222 C435 178.667 419.333 141.333 388 110 C356.667 78.6667 319 63 275 63 C231 63 193.333 78.6667 162 110 C130.667 141.333 115 178.667 115 222 C115 266 130.667 303.667 162 335 C193.333 366.333 231 382 275 382 C319 382 356.667 366.333 388 335 C419.333 303.667 435 266 435 222 L435 222 Z M505 222 C505 285.333 482.5 339.5 437.5 384.5 C392.5 429.5 338.333 452 275 452 C211.667 452 157.5 429.5 112.5 384.5 C67.5 339.5 45 285.333 45 222 C45 158.286 67.5 104.286 112.5 60 C157.887 15.3333 212.054 -7 275 -7 C337.946 -7 392.113 15.3333 437.5 60 C482.5 104.286 505 158.286 505 222 L505 222 Z M399 593 C390.333 601.667 379.667 606 367 606 C354.333 606 343.833 601.667 335.5 593 C327.167 584.333 323 573.833 323 561.5 C323 549.167 327.167 538.667 335.5 530 C343.833 521.333 354.333 517 367 517 C379.667 517 390.333 521.333 399 530 C407.667 538.667 412 549.167 412 561.5 C412 573.833 407.667 584.333 399 593 L399 593 Z M217 593 C208.333 601.667 197.667 606 185 606 C172.333 606 161.833 601.667 153.5 593 C145.167 584.333 141 573.833 141 561.5 C141 549.167 145.167 538.667 153.5 530 C161.833 521.333 172.333 517 185 517 C197.667 517 208.333 521.333 217 530 C225.667 538.667 230 549.167 230 561.5 C230 573.833 225.667 584.333 217 593 L217 593 Z " />
<glyph glyph-name="divide" unicode="&#xf7;" horiz-adv-x="410" d="M268 57 C268 72.3333 262.5 85.5 251.5 96.5 C240.5 107.5 227.333 113 212 113 C196.667 113 183.667 107.5 173 96.5 C162.333 85.5 157 72.3333 157 57 C157 41.6667 162.333 28.6667 173 18 C183.667 7.33333 196.667 2 212 2 C227.333 2 240.5 7.33333 251.5 18 C262.5 28.6667 268 41.6667 268 57 L268 57 Z M373 194 L373 251 L38 251 L38 194 L373 194 Z M268 381 C268 396.333 262.5 409.5 251.5 420.5 C240.5 431.5 227.333 437 212 437 C196.667 437 183.667 431.5 173 420.5 C162.333 409.5 157 396.333 157 381 C157 365.667 162.333 352.667 173 342 C183.667 331.333 196.667 326 212 326 C227.333 326 240.5 331.333 251.5 342 C262.5 352.667 268 365.667 268 381 L268 381 Z " />
<glyph glyph-name="oslash" unicode="&#xf8;" horiz-adv-x="550" d="M505 222 C505 275.706 488.82 322.821 456.461 363.344 L506 413 L467 452 L417.582 402.466 C376.782 435.489 329.254 452 275 452 C211.667 452 157.5 429.5 112.5 384.5 C67.5 339.5 45 285.333 45 222 C45 167.175 61.6599 119.542 94.9797 79.1023 L43 27 L82 -12 L134.506 40.6297 C175.096 8.87659 221.927 -6.99997 275 -6.99997 C337.946 -6.99997 392.113 15.3334 437.5 60 C482.5 104.286 505 158.286 505 222 L505 222 Z M184.625 90.8667 L406.501 313.266 C425.5 286.685 435 256.262 435 222 C435 178.667 419.333 141.333 388 110 C356.667 78.6667 319 63 275 63 C241.12 63 210.995 72.2889 184.625 90.8667 L184.625 90.8667 Z M145.165 129.406 C125.055 156.42 115 187.284 115 222 C115 266 130.667 303.667 162 335 C193.333 366.333 231 382 275 382 C309.88 382 340.779 372.155 367.699 352.465 L145.165 129.406 Z " />
<glyph glyph-name="ugrave" unicode="&#xf9;" horiz-adv-x="509" d="M379 75.3955 L379 0 L449 0 L449 440 L379 440 L379 256 C379 194.8 367.642 147 344.925 112.6 C322.207 78.1999 283.566 61 229 61 C199 61 177.5 71.1667 164.5 91.5 C151.5 111.833 145 136.333 145 165 L145 440 L75 440 L75 165 C75 114 88.8298 72.25 116.489 39.75 C144.149 7.25 182.652 -9 232 -9 C297.022 -9 346.022 19.1318 379 75.3955 L379 75.3955 Z M293 517 L203 660 L127 660 L237 517 L293 517 Z " />
<glyph glyph-name="uacute" unicode="&#xfa;" horiz-adv-x="509" d="M379 75.3955 L379 0 L449 0 L449 440 L379 440 L379 256 C379 194.8 367.642 147 344.925 112.6 C322.207 78.1999 283.566 61 229 61 C199 61 177.5 71.1667 164.5 91.5 C151.5 111.833 145 136.333 145 165 L145 440 L75 440 L75 165 C75 114 88.8298 72.25 116.489 39.75 C144.149 7.25 182.652 -9 232 -9 C297.022 -9 346.022 19.1318 379 75.3955 L379 75.3955 Z M405 681 L319 681 L239 538 L295 538 L405 681 Z " />
<glyph glyph-name="ucircumflex" unicode="&#xfb;" horiz-adv-x="509" d="M379 75.3955 L379 0 L449 0 L449 440 L379 440 L379 256 C379 194.8 367.642 147 344.925 112.6 C322.207 78.1999 283.566 61 229 61 C199 61 177.5 71.1667 164.5 91.5 C151.5 111.833 145 136.333 145 165 L145 440 L75 440 L75 165 C75 114 88.8298 72.25 116.489 39.75 C144.149 7.25 182.652 -9 232 -9 C297.022 -9 346.022 19.1318 379 75.3955 L379 75.3955 Z M255 623 L327 517 L398 517 L288 660 L222 660 L112 517 L183 517 L255 623 Z " />
<glyph glyph-name="udieresis" unicode="&#xfc;" horiz-adv-x="509" d="M379 75.3955 L379 0 L449 0 L449 440 L379 440 L379 256 C379 194.8 367.642 147 344.925 112.6 C322.207 78.1999 283.566 61 229 61 C199 61 177.5 71.1667 164.5 91.5 C151.5 111.833 145 136.333 145 165 L145 440 L75 440 L75 165 C75 114 88.8298 72.25 116.489 39.75 C144.149 7.25 182.652 -9 232 -9 C297.022 -9 346.022 19.1318 379 75.3955 L379 75.3955 Z M379 593 C370.333 601.667 359.667 606 347 606 C334.333 606 323.833 601.667 315.5 593 C307.167 584.333 303 573.833 303 561.5 C303 549.167 307.167 538.667 315.5 530 C323.833 521.333 334.333 517 347 517 C359.667 517 370.333 521.333 379 530 C387.667 538.667 392 549.167 392 561.5 C392 573.833 387.667 584.333 379 593 L379 593 Z M197 593 C188.333 601.667 177.667 606 165 606 C152.333 606 141.833 601.667 133.5 593 C125.167 584.333 121 573.833 121 561.5 C121 549.167 125.167 538.667 133.5 530 C141.833 521.333 152.333 517 165 517 C177.667 517 188.333 521.333 197 530 C205.667 538.667 210 549.167 210 561.5 C210 573.833 205.667 584.333 197 593 L197 593 Z " />
<glyph glyph-name="yacute" unicode="&#xfd;" horiz-adv-x="425" d="M131 -250 L435 440 L357 440 L231 145 L90 440 L10 440 L194 72 L46 -250 L131 -250 Z M368 681 L282 681 L202 538 L258 538 L368 681 Z " />
<glyph glyph-name="thorn" unicode="&#xfe;" horiz-adv-x="570" d="M145 -250 L145 75.1345 C149 69.7115 153.167 64.6667 157.5 60 C200.5 13.3333 251.667 -9.99998 311 -9.99998 C371.667 -9.99998 422.833 13.3333 464.5 60 C504.833 105.333 525 158.667 525 220 C525 281.333 504.833 334.667 464.5 380 C422.833 426.667 371.667 450 311 450 C250.333 450 199.167 426.667 157.5 380 C153.167 375.333 149 370.288 145 364.865 L145 750 L75 750 L75 -250 L145 -250 Z M455 220 C455 177.171 440.167 139.837 410.5 108 C380.682 76 343.848 60 300 60 C256.152 60 219.318 76 189.5 108 C159.833 139.837 145 177.171 145 220 C145 262.829 159.833 300.163 189.5 332 C219.318 364 256.152 380 300 380 C343.848 380 380.682 364 410.5 332 C440.167 300.163 455 262.829 455 220 L455 220 Z " />
<glyph glyph-name="ydieresis" unicode="&#xff;" horiz-adv-x="425" d="M131 -250 L435 440 L357 440 L231 145 L90 440 L10 440 L194 72 L46 -250 L131 -250 Z M337 593 C328.333 601.667 317.667 606 305 606 C292.333 606 281.833 601.667 273.5 593 C265.167 584.333 261 573.833 261 561.5 C261 549.167 265.167 538.667 273.5 530 C281.833 521.333 292.333 517 305 517 C317.667 517 328.333 521.333 337 530 C345.667 538.667 350 549.167 350 561.5 C350 573.833 345.667 584.333 337 593 L337 593 Z M155 593 C146.333 601.667 135.667 606 123 606 C110.333 606 99.8333 601.667 91.5 593 C83.1667 584.333 79 573.833 79 561.5 C79 549.167 83.1667 538.667 91.5 530 C99.8333 521.333 110.333 517 123 517 C135.667 517 146.333 521.333 155 530 C163.667 538.667 168 549.167 168 561.5 C168 573.833 163.667 584.333 155 593 L155 593 Z " />
<glyph glyph-name="dotlessi" unicode="&#x131;" horiz-adv-x="229" d="M150 0 L150 440 L80 440 L80 0 L150 0 Z " />
<glyph glyph-name="OE" unicode="&#x152;" horiz-adv-x="998" d="M143 340 C143 417.544 170.333 482.21 225 534 C278.482 584.667 344.482 610 423 610 L533 610 L533 70 L423 70 C344.482 70 278.482 95.3333 225 146 C170.333 197.79 143 262.456 143 340 L143 340 Z M75 340 C75 290.667 84.1667 245.167 102.5 203.5 C120.833 161.833 145.667 126 177 96 C208.333 66 245.333 42.5 288 25.5 C330.667 8.5 376.333 0 425 0 L603 0 L603 0.380859 L937 0.380859 L937 65.3809 L603 65.3809 L603 307.381 L927 307.381 L927 373.381 L603 373.381 L603 615.381 L937 615.381 L937 680.381 L425 680 C376.333 680 330.667 671.5 288 654.5 C245.333 637.5 208.333 614 177 584 C145.667 554 120.833 518.167 102.5 476.5 C84.1667 434.833 75 389.333 75 340 L75 340 Z " />
<glyph glyph-name="oe" unicode="&#x153;" horiz-adv-x="939" d="M435 222 C435 178.667 419.333 141.333 388 110 C356.667 78.6667 319 63 275 63 C231 63 193.333 78.6667 162 110 C130.667 141.333 115 178.667 115 222 C115 266 130.667 303.667 162 335 C193.333 366.333 231 382 275 382 C319 382 356.667 366.333 388 335 C419.333 303.667 435 266 435 222 L435 222 Z M821 258 L509 258 C517.167 294.75 535.833 324.583 565 347.5 C594.273 370.5 627.606 382 665 382 C703 382 736.167 370.5 764.5 347.5 C792.833 324.5 811.667 294.667 821 258 L821 258 Z M470 100 C491.333 66 519.167 39.6667 553.5 21 C587.833 2.33333 626.333 -7 669 -7 C711.667 -7 752 5.16667 790 29.5 C828 53.8333 856.333 87 875 129 L795 129 C779.667 108.333 760.5 92.1667 737.5 80.5 C714.5 68.8333 690.333 63 665 63 C626.804 63 592.471 75.3333 562 100 C532.08 124.221 513.746 155.221 507 193 L894 193 L894 230 C894 291.175 871.167 343.508 825.5 387 C804.5 407 780 422.833 752 434.5 C724 446.167 692.5 452 657.5 452 C622.5 452 587.833 442.667 553.5 424 C519.167 405.333 491.333 379 470 345 C448.667 378.333 420.833 404.5 386.5 423.5 C352.167 442.5 315 452 275 452 C211.667 452 157.5 429.5 112.5 384.5 C67.5 339.5 45 285.333 45 222 C45 158.286 67.5 104.286 112.5 60 C133.5 39.3333 157.833 23 185.5 11 C213.167 -1 245 -7 281 -7 C317 -7 352.167 2.5 386.5 21.5 C420.833 40.5 448.667 66.6667 470 100 L470 100 Z " />
<glyph glyph-name="circumflex" unicode="&#x2c6;" horiz-adv-x="306" d="M153 856 L225 750 L296 750 L186 893 L120 893 L10 750 L81 750 L153 856 Z " />
<glyph glyph-name="caron" unicode="&#x2c7;" horiz-adv-x="1060" d="" />
<glyph glyph-name="ring" unicode="&#x2da;" horiz-adv-x="267" d="M102.5 804 C110.833 812 121 816 133 816 C145 816 155.167 812 163.5 804 C171.833 796 176 786.5 176 775.5 C176 764.5 172 755 164 747 C156 739 145.833 735 133.5 735 C121.167 735 110.833 739 102.5 747 C94.1667 755 90 764.5 90 775.5 C90 786.5 94.1667 796 102.5 804 L102.5 804 Z M35 775 C35 748.21 44.8333 725.71 64.5 707.5 C84.3 689.167 107.133 680 133 680 C159.974 680 182.808 689 201.5 707 C221.167 725.938 231 748.605 231 775 C231 802.457 221.167 825.29 201.5 843.5 C181.7 861.833 158.867 871 133 871 C106.718 871 83.8846 861.667 64.5 843 C44.8333 824.062 35 801.395 35 775 L35 775 Z " />
<glyph glyph-name="tilde" unicode="&#x2dc;" horiz-adv-x="419" d="M45 730 L94 730 C92.6667 742.667 93.3333 754 96 764 C101.385 787.333 115.051 799 137 799 C150.333 799 161 794.833 169 786.5 C177 778.167 185.167 768.833 193.5 758.5 C201.833 748.167 212 738.833 224 730.5 C236 722.167 254.833 718 280.5 718 C306.167 718 325.833 724.5 339.5 737.5 C366.766 763.436 377.933 798.603 373 843 L324 843 C324 817.917 322.333 801.417 319 793.5 C316.333 787.167 312 782.333 306 779 C300 775.667 291 774 279 774 C267 774 257.167 778.167 249.5 786.5 C241.833 794.833 233.833 804 225.5 814 C217.167 824 207 833.167 195 841.5 C183 849.833 164.667 854 140 854 C115.333 854 96.1667 847.5 82.5 834.5 C56.2236 809.505 43.7236 774.672 45 730 L45 730 Z " />
<glyph glyph-name="endash" unicode="&#x2013;" horiz-adv-x="390" d="M368 180 L368 238 L23 238 L23 180 L368 180 Z " />
<glyph glyph-name="emdash" unicode="&#x2014;" horiz-adv-x="689" d="M667 180 L667 238 L23 238 L23 180 L667 180 Z " />
<glyph glyph-name="quoteleft" unicode="&#x2018;" horiz-adv-x="204" d="M25 491 L121 491 L179 750 L137 750 L25 491 Z " />
<glyph glyph-name="quoteright" unicode="&#x2019;" horiz-adv-x="204" d="M179 750 L83 750 L25 491 L67 491 L179 750 Z " />
<glyph glyph-name="quotedblleft" unicode="&#x201c;" horiz-adv-x="361" d="M182 491 L278 491 L336 750 L294 750 L182 491 Z M25 491 L121 491 L179 750 L137 750 L25 491 Z " />
<glyph glyph-name="quotedblright" unicode="&#x201d;" horiz-adv-x="361" d="M179 750 L83 750 L25 491 L67 491 L179 750 Z M336 750 L240 750 L182 491 L224 491 L336 750 Z " />
<glyph glyph-name="bullet" unicode="&#x2022;" horiz-adv-x="300" d="M264 342 C264 373.333 252.833 400.167 230.5 422.5 C208.167 444.833 181.333 456 150 456 C118.667 456 91.8333 444.833 69.5 422.5 C47.1667 400.167 36 373.333 36 342 C36 310.667 47.1667 283.833 69.5 261.5 C91.8333 239.167 118.667 228 150 228 C181.333 228 208.167 239.167 230.5 261.5 C252.833 283.833 264 310.667 264 342 L264 342 Z " />
<glyph glyph-name="ellipsis" unicode="&#x2026;" horiz-adv-x="667" d="M133 -10 C148.333 -10 162 -4.5 174 6.5 C186 17.5 192 30.8333 192 46.5 C192 62.1667 186.167 75.5 174.5 86.5 C162.833 97.5 149 103 133 103 C117 103 103.333 97.3333 92 86 C80.6667 74.6667 75 61.3333 75 46 C75 30.6667 80.8333 17.5 92.5 6.5 C104.167 -4.5 117.667 -10 133 -10 L133 -10 Z M333 -10 C348.333 -10 362 -4.5 374 6.5 C386 17.5 392 30.8333 392 46.5 C392 62.1667 386.167 75.5 374.5 86.5 C362.833 97.5 349 103 333 103 C317 103 303.333 97.3333 292 86 C280.667 74.6667 275 61.3333 275 46 C275 30.6667 280.833 17.5 292.5 6.5 C304.167 -4.5 317.667 -10 333 -10 L333 -10 Z M533 -10 C548.333 -10 562 -4.5 574 6.5 C586 17.5 592 30.8333 592 46.5 C592 62.1667 586.167 75.5 574.5 86.5 C562.833 97.5 549 103 533 103 C517 103 503.333 97.3333 492 86 C480.667 74.6667 475 61.3333 475 46 C475 30.6667 480.833 17.5 492.5 6.5 C504.167 -4.5 517.667 -10 533 -10 L533 -10 Z " />
<glyph glyph-name="fraction" unicode="&#x2044;" horiz-adv-x="444" d="M399 679 L331 679 L45 0 L112 0 L399 679 Z " />
<glyph glyph-name="trademark" unicode="&#x2122;" horiz-adv-x="779" d="M289 631.999 L289 679.999 L24 679.999 L24 631.999 L128 631.999 L128 337.999 L184 337.999 L184 631.999 L289 631.999 Z M755 337.999 L688 679.999 L612 679.999 L526 400.999 L440 679.999 L364 679.999 L297 337.999 L361 337.999 L411 624.999 L496 337.999 L556 337.999 L640 624.999 L691 337.999 L755 337.999 Z " />
<glyph glyph-name="minus" unicode="&#x2212;" horiz-adv-x="360" d="M323 193 L323 250 L38 250 L38 193 L323 193 Z " />
<glyph glyph-name="apple" unicode="&#xf8ff;" horiz-adv-x="926" d="M284 247 L284 509 C284 514.333 282.333 518.667 279 522 C275.667 525.333 271.5 527 266.5 527 C261.5 527 257.333 525.333 254 522 C250.667 518.667 249 514.333 249 509 L249 247 C249 241.667 250.667 237.5 254 234.5 C257.333 231.5 261.333 230 266 230 C278 230 284 235.667 284 247 L284 247 Z M397 395 L332 395 C320.667 395 315 389.333 315 378 C315 366.667 320.667 361 332 361 L397 361 C409 361 415 366.667 415 378 C415 389.333 409 395 397 395 L397 395 Z M463 527 C451.667 527 446 521 446 509 L446 247 C446 235.667 451.667 230 463 230 C474.333 230 480 235.667 480 247 L480 509 C480 521 474.333 527 463 527 L463 527 Z M663 526 L661 526 C654.833 526 650.5 524.333 648 521 L516 390 C512.667 386.667 511 382.667 511 378 C511 373.333 512.667 369.333 516 366 L648 235 C651.333 231.667 655.333 230 660 230 C664.667 230 668.667 231.667 672 235 C675.333 238.333 677 242.333 677 247 C677 251.667 675.333 255.667 672 259 L553 378 L672 497 C675.333 500.333 677 504.333 677 509 C677 513.667 674.333 518.667 669 524 L663 526 Z M806 378 C806 330.667 797 286.167 779 244.5 C761 202.833 736.5 166.5 705.5 135.5 C674.5 104.5 638.167 80 596.5 62 C554.833 44 510.333 35 463 35 C415.667 35 371.167 44 329.5 62 C287.833 80 251.5 104.5 220.5 135.5 C189.5 166.5 165 202.833 147 244.5 C129 286.167 120 330.667 120 378 C120 425.333 129 469.833 147 511.5 C165 553.167 189.5 589.5 220.5 620.5 C251.5 651.5 287.833 676 329.5 694 C371.167 712 415.667 721 463 721 C510.333 721 554.833 712 596.5 694 C638.167 676 674.5 651.5 705.5 620.5 C736.5 589.5 761 553.167 779 511.5 C797 469.833 806 425.333 806 378 L806 378 Z M841 378 C841 430 831.167 479 811.5 525 C791.833 571 764.833 611.167 730.5 645.5 C696.167 679.833 656 706.833 610 726.5 C564 746.167 515 756 463 756 C411 756 362 746.167 316 726.5 C270 706.833 229.833 679.833 195.5 645.5 C161.167 611.167 134.167 571 114.5 525 C94.8333 479 85 430 85 378 C85 326 94.8333 277 114.5 231 C134.167 185 161.167 144.833 195.5 110.5 C229.833 76.1667 270 49.1667 316 29.5 C362 9.83333 411 0 463 0 C515 0 564 9.83333 610 29.5 C656 49.1667 696.167 76.1667 730.5 110.5 C764.833 144.833 791.833 185 811.5 231 C831.167 277 841 326 841 378 L841 378 Z " />
</font>
</svg>
