<?xml version="1.0" encoding="UTF-8"?>
<svg xmlns="http://www.w3.org/2000/svg" xmlns:xlink="http://www.w3.org/1999/xlink" version="1.2" >
<font id="Glacial Indifference Italic">
<font-face  font-family="Glacial Indifference" units-per-em="1000" ascent="750" descent="-250" font-style="italic" font-weight="400" font-stretch="normal" cap-height="680" x-height="440" underline-position="-122" underline-thickness="45" />
<missing-glyph  horiz-adv-x="270" d="" />
<glyph glyph-name="NULL" d="" />
<glyph glyph-name="&amp;#x0;" d="" />
<glyph glyph-name="&amp;#xd;" unicode="&#xd;" d="" />
<glyph glyph-name="space" unicode="&#x20;" horiz-adv-x="270" d="" />
<glyph glyph-name="exclam" unicode="&#x21;" horiz-adv-x="300" d="M191.5 6.5 C203.167 17.5 209 30.833 209 46.5 C209 62.167 203.167 75.5 191.5 86.5 C179.833 97.5 166.166 103 150.499 103 C134.832 103 121.165 97.333 109.498 86 C97.8311 74.667 91.998 61.334 91.998 46.001 C91.998 30.668 97.8311 17.501 109.498 6.50098 C121.165 -4.49902 134.832 -9.99902 150.499 -9.99902 C166.166 -9.99902 179.833 -4.5 191.5 6.5 L191.5 6.5 Z M202 750.001 L98 750.001 L117 203.001 L183 203.001 L202 750.001 Z " />
<glyph glyph-name="quotedbl" unicode="&#x22;" horiz-adv-x="367" d="M130 750 L44 750 L61 498 L112 498 L130 750 Z M323 750 L237 750 L255 498 L306 498 L323 750 Z " />
<glyph glyph-name="numbersign" unicode="&#x23;" horiz-adv-x="569" d="M220 437 L378 437 L357 263 L197 263 L220 437 Z M432 437 L539 437 L539 488 L437 488 L461 680 L409 687 L384 488 L225 488 L249 680 L197 687 L173 488 L61 488 L61 437 L167 437 L144 263 L33 263 L33 212 L136 212 L110 5 L163 -2 L190 210 L350 210 L325 5 L377 -2 L403 210 L511 210 L511 263 L410 263 L432 437 Z " />
<glyph glyph-name="dollar" unicode="&#x24;" horiz-adv-x="590" d="M270 -70 L325 -70 L337 -12 C404 -6 459 12 503 41 C556 76 590 125 602 188 C613 247 598 292 557 323 C538 337 516 348 491 356 C466 364 440 372 413 379 L459 619 C471 617 482 614 494 610 C535 597 555 572 555 534 L638 534 C637 559 632 580 623 598 C597 648 548 678 473 687 L485 750 L430 750 L418 690 C355 689 301 673 254 644 C200 610 167 564 155 504 C144 448 159 404 201 372 C220 358 242 347 267 338 C292 329 318 321 345 314 L296 60 C204 63 159 99 160 167 L69 167 C68 136 74 109 85 87 C117 25 182 -8 281 -13 L270 -70 Z M360 392 C316 404 285 418 265 434 C240 454 231 482 238 518 C245 552 265 579 300 598 C331 614 366 622 405 622 L360 392 Z M397 300 C416 295 434 289 450 282 C505 259 529 225 520 179 C514 146 493 119 457 97 C425 78 390 65 351 61 L397 300 Z " />
<glyph glyph-name="percent" unicode="&#x25;" horiz-adv-x="731" d="M600 222 C625 222 642 212 649 192 C652 183 653 173 653 162 C653 151 652 138 649 121 C646 104 637 88 624 71 C617 62 609 55 599 49 C589 43 577 41 564 41 C551 41 541 43 533 49 C513 63 506 91 514 131 C519 156 528 176 540 192 C555 212 575 222 600 222 L600 222 Z M330 629 C338 623 344 617 347 608 C350 599 352 590 352 579 C352 568 349 554 346 536 C343 518 335 502 323 487 C307 467 287 457 263 457 C238 457 222 467 214 487 C211 496 209 505 209 516 C209 527 212 540 215 558 C218 576 226 592 238 608 C245 617 253 623 263 629 C273 635 285 638 299 638 C313 638 322 635 330 629 L330 629 Z M555 -10 C599 -10 636 6 666 39 C691 66 706 97 713 131 C719 163 716 193 703 220 C686 255 655 273 610 273 C565 273 527 255 496 220 C472 193 456 163 450 131 C443 97 448 66 463 39 C481 6 512 -10 555 -10 L555 -10 Z M269 0 L676 680 L604 680 L199 0 L269 0 Z M253 406 C296 406 334 422 365 455 C390 482 405 513 412 547 C418 579 415 609 402 636 C385 671 353 689 308 689 C263 689 226 671 195 636 C171 609 155 579 149 547 C142 513 147 482 161 455 C178 422 209 406 253 406 L253 406 Z " />
<glyph glyph-name="ampersand" unicode="&#x26;" horiz-adv-x="689" d="M330 345 L442 154 C430 144 417 133 403 122 C351 80 307 60 270 60 C236 60 209 73 190 100 C171 127 164 157 171 190 C176 218 199 248 238 281 C256 296 286 317 330 345 L330 345 Z M346 456 C323 487 313 517 319 546 C325 575 338 597 357 610 C376 623 396 629 416 628 C436 627 453 620 467 606 C481 592 486 573 481 548 C476 523 460 500 435 479 C424 470 412 462 400 454 C388 446 375 438 364 431 C358 440 352 448 346 456 L346 456 Z M647 265 L597 303 L550 255 C534 239 517 223 501 207 L396 386 C411 396 426 406 442 418 C502 461 538 505 546 549 C554 590 546 624 524 651 C502 677 470 690 428 690 C384 690 346 676 314 648 C282 620 262 586 254 544 C246 502 260 452 297 397 C274 382 252 368 231 354 C157 307 114 251 101 185 C90 128 100 81 130 43 C144 25 163 12 185 2 C207 -8 234 -12 265 -12 C296 -12 335 1 381 26 C404 39 434 62 474 95 L530 -2 L622 0 L535 153 C597 214 634 251 647 265 L647 265 Z " />
<glyph glyph-name="quotesingle" unicode="&#x27;" horiz-adv-x="173" d="M130 750 L44 750 L61 498 L112 498 L130 750 Z " />
<glyph glyph-name="parenleft" unicode="&#x28;" horiz-adv-x="308" d="M390 750 L322 750 C288 708 256 658 226 600 C173 496 134 383 111 263 C88 144 84 25 99 -93 C106 -149 117 -192 133 -224 L199 -224 C180 -174 167 -117 159 -51 C154 -10 152 37 154 90 C156 143 163 200 175 262 C187 324 203 381 222 433 C268 560 324 666 390 750 L390 750 Z " />
<glyph glyph-name="parenright" unicode="&#x29;" horiz-adv-x="308" d="M321 454 C323 578 309 676 278 750 L210 750 C229 701 243 642 250 574 C255 532 256 486 255 434 C254 382 247 324 235 262 C223 200 207 143 188 90 C142 -36 86 -140 21 -224 L87 -224 C115 -192 148 -141 184 -71 C205 -30 227 19 248 75 C269 131 285 194 299 264 C313 334 320 398 321 454 L321 454 Z " />
<glyph glyph-name="asterisk" unicode="&#x2a;" horiz-adv-x="530" d="M454 582 L427 664 L283 588 L308 750 L222 750 L247 588 L103 664 L77 582 L236 554 L122 443 L192 392 L265 533 L338 392 L408 443 L294 554 L454 582 Z " />
<glyph glyph-name="plus" unicode="&#x2b;" horiz-adv-x="460" d="M423 194 L423 251 L259 251 L259 415 L201 415 L201 251 L38 251 L38 194 L201 194 L201 30 L259 30 L259 194 L423 194 Z " />
<glyph glyph-name="comma" unicode="&#x2c;" horiz-adv-x="232" d="M204 118 L108 118 L50 -141 L92 -141 L204 118 Z " />
<glyph glyph-name="hyphen" unicode="&#x2d;" horiz-adv-x="410" d="M373 194 L373 251 L38 251 L38 194 L373 194 Z " />
<glyph glyph-name="period" unicode="&#x2e;" horiz-adv-x="267" d="M133 -10 C148.333 -10 162 -4.5 174 6.5 C186 17.5 192 30.833 192 46.5 C192 62.167 186.167 75.5 174.5 86.5 C162.833 97.5 149 103 133 103 C117 103 103.333 97.333 92 86 C80.667 74.667 75 61.334 75 46.001 C75 30.668 80.833 17.501 92.5 6.50098 C104.167 -4.49902 117.667 -10 133 -10 L133 -10 Z " />
<glyph glyph-name="slash" unicode="&#x2f;" horiz-adv-x="538" d="M652 750 L577 750 L4 -201 L79 -201 L652 750 Z " />
<glyph glyph-name="zero" unicode="0" horiz-adv-x="560" d="M451 601 C479 582 497 550 504 508 C513 454 512 398 500 338 C497 324 493 307 487 288 C465 214 435 157 396 115 C363 80 328 62 291 62 C249 62 219 80 200 115 C191 131 185 148 181 168 C177 188 175 207 175 228 C175 249 176 269 178 288 C180 307 184 330 189 355 C194 380 203 412 218 449 C226 469 236 489 247 509 C258 529 271 547 286 563 C301 579 317 592 335 602 C353 612 374 616 396 616 C418 616 437 611 451 601 L451 601 Z M278 -9 C358 -9 427 31 483 110 C528 173 558 250 576 341 C594 432 593 510 573 573 C548 652 494 691 414 691 C334 691 266 652 210 573 C165 510 134 432 116 341 C98 250 100 173 120 110 C145 31 198 -9 278 -9 L278 -9 Z " />
<glyph glyph-name="one" unicode="1" horiz-adv-x="287" d="M148 0 L218 0 L352 688 L180 670 L168 609 L266 609 L148 0 Z " />
<glyph glyph-name="two" unicode="2" horiz-adv-x="615" d="M63 0 L542 0 L556 70 L246 70 L528 305 C581 349 613 402 625 464 C637 527 626 580 589 624 C552 668 502 691 439 691 C374 691 314 668 259 621 C205 575 173 520 163 454 L234 454 C238 496 260 535 299 569 C337 602 377 619 422 619 C466 619 500 604 525 574 C550 544 558 507 550 465 C542 422 520 385 484 355 L63 0 Z " />
<glyph glyph-name="three" unicode="3" horiz-adv-x="520" d="M358 8 C388 20 415 36 440 56 C493 100 527 153 539 216 C551 279 539 334 502 378 C467 419 418 442 353 446 L319 428 L581 680 L215 680 L202 610 L426 610 L173 370 L218 327 C256 359 297 375 341 375 C385 375 419 359 444 328 C469 297 477 260 469 217 C461 175 438 138 400 107 C383 93 364 81 343 73 C322 65 298 61 271 61 C244 61 218 70 194 88 C170 106 156 132 151 163 L78 140 C85 95 107 59 142 31 C158 18 177 8 198 1 C219 -6 244 -10 272 -10 C300 -10 328 -4 358 8 L358 8 Z " />
<glyph glyph-name="four" unicode="4" horiz-adv-x="605" d="M516 604 L440 211 L180 211 L516 604 Z M499 139 L585 139 L599 211 L513 211 L603 680 L505 680 L42 139 L426 139 L399 0 L472 0 L499 139 Z " />
<glyph glyph-name="five" unicode="5" horiz-adv-x="550" d="M262 428 L344 610 L590 610 L603 680 L304 680 L167 375 L236 341 C269 362 306 373 346 373 C386 373 418 357 442 326 C466 294 475 257 467 215 C459 172 435 135 398 105 C381 91 362 80 341 72 C320 64 297 59 269 59 C241 59 216 68 192 87 C168 106 154 130 148 160 L76 138 C84 93 104 57 139 30 C174 2 216 -12 264 -12 C328 -12 387 10 441 56 C494 101 528 156 540 220 C552 283 541 336 505 379 C488 399 467 414 442 426 C417 438 389 444 360 444 C331 444 298 439 262 428 L262 428 Z " />
<glyph glyph-name="six" unicode="6" horiz-adv-x="512" d="M330 371 C373 371 406 355 431 324 C455 293 463 256 455 213 C447 171 425 135 388 104 C352 74 312 59 268 59 C225 59 192 75 166 106 C141 137 132 173 140 216 C148 259 171 295 208 325 C225 339 245 350 266 358 C287 366 308 371 330 371 L330 371 Z M527 218 C540 284 527 338 489 380 C453 419 402 440 334 443 L312 430 L568 680 L476 680 L148 359 C106 318 80 271 69 216 C57 153 69 100 105 56 C141 12 191 -11 254 -11 C318 -11 376 11 429 55 C454 76 475 100 492 127 C509 154 521 185 527 218 L527 218 Z " />
<glyph glyph-name="seven" unicode="7" horiz-adv-x="493" d="M158 0 L589 677 L162 677 L148 607 L466 607 L80 0 L158 0 Z " />
<glyph glyph-name="eight" unicode="8" horiz-adv-x="526" d="M330 346 C370 346 402 332 425 305 C447 278 455 245 447 205 C439 166 419 132 386 103 C353 74 316 60 275 60 C234 60 202 74 180 103 C158 132 151 166 159 205 C167 245 187 278 220 305 C253 332 290 346 330 346 L330 346 Z M384 622 C417 622 442 611 461 590 C480 568 486 541 480 509 C474 478 457 450 429 427 C402 404 372 393 339 393 C306 393 281 404 263 427 C244 450 238 478 244 509 C250 541 267 568 295 590 C322 611 351 622 384 622 L384 622 Z M261 -10 C323 -10 379 9 429 46 C453 64 473 85 490 110 C507 135 518 164 524 196 C530 228 527 260 513 292 C499 324 477 349 444 369 C507 414 543 462 553 514 C563 566 553 610 522 643 C493 675 451 691 397 691 C343 691 295 675 253 643 C210 610 183 567 173 515 C163 462 181 414 226 369 C185 349 152 323 126 291 C100 259 84 227 78 194 C66 133 78 83 114 45 C149 8 199 -10 261 -10 L261 -10 Z " />
<glyph glyph-name="nine" unicode="9" horiz-adv-x="512" d="M315 309 C272 309 238 325 213 356 C189 387 181 424 189 467 C197 509 219 545 256 576 C292 606 332 621 376 621 C419 621 453 605 479 574 C504 543 512 507 504 464 C496 422 474 386 436 355 C419 341 399 330 378 322 C357 314 337 309 315 309 L315 309 Z M117 462 C104 396 117 342 155 300 C191 261 242 240 310 237 L333 250 L76 0 L168 0 L496 321 C538 362 564 409 575 464 C587 527 575 580 539 624 C503 668 453 691 390 691 C326 691 268 669 215 625 C190 604 169 580 152 553 C135 526 123 495 117 462 L117 462 Z " />
<glyph glyph-name="colon" unicode="&#x3a;" horiz-adv-x="267" d="M131 -10 C146 -10 161 -5 175 6 C189 17 198 30 201 46 C204 62 201 75 191 86 C181 97 169 103 153 103 C137 103 123 97 109 86 C95 75 87 61 84 46 C81 31 84 18 94 7 C104 -4 116 -10 131 -10 L131 -10 Z M206 377 C221 377 236 383 250 394 C264 405 273 418 276 434 C279 450 277 463 267 474 C257 485 244 490 228 490 C212 490 198 484 184 473 C170 462 162 448 159 433 C156 418 159 405 169 394 C179 383 191 377 206 377 L206 377 Z " />
<glyph glyph-name="semicolon" unicode="&#x3b;" horiz-adv-x="267" d="M206 377 C221 377 236 383 250 394 C264 405 273 418 276 434 C279 450 277 463 267 474 C257 485 244 490 228 490 C212 490 198 484 184 473 C170 462 162 448 159 433 C156 418 159 405 169 394 C179 383 191 377 206 377 L206 377 Z M218 118 L122 118 L14 -141 L56 -141 L218 118 Z " />
<glyph glyph-name="less" unicode="&#x3c;" horiz-adv-x="516" d="M471 -38 L471 34 L103 208 L471 383 L471 455 L45 244 L45 173 L471 -38 Z " />
<glyph glyph-name="equal" unicode="&#x3d;" horiz-adv-x="460" d="M383 101 L383 158 L48 158 L48 101 L383 101 Z M383 282 L383 339 L48 339 L48 282 L383 282 Z " />
<glyph glyph-name="greater" unicode="&#x3e;" horiz-adv-x="516" d="M45 34 L45 -38 L471 173 L471 244 L45 455 L45 383 L413 208 L45 34 Z " />
<glyph glyph-name="question" unicode="&#x3f;" horiz-adv-x="506" d="M299 6 C313 17 321 30 324 46 C327 62 324 75 314 86 C304 97 293 103 277 103 C261 103 246 97 232 86 C218 75 210 61 207 46 C204 31 207 18 217 7 C227 -4 239 -10 255 -10 C271 -10 285 -5 299 6 L299 6 Z M337 203 L371 377 C376 402 393 426 424 450 C437 460 451 470 466 480 C481 490 495 500 508 511 C539 536 558 564 564 595 C574 648 562 690 529 720 C499 747 458 760 403 760 C347 760 300 747 262 721 C220 692 190 651 175 598 L258 598 C267 629 284 653 308 669 C332 685 360 692 390 692 C420 692 444 684 462 668 C480 652 485 628 479 595 C476 579 468 564 457 552 C446 540 422 523 386 503 C330 471 296 430 286 378 L252 203 L337 203 Z " />
<glyph glyph-name="at" unicode="&#x40;" horiz-adv-x="551" d="M325 180 C318 192 315 207 318 222 C321 237 329 250 341 262 C353 274 368 281 387 281 C406 281 420 274 427 262 C434 250 436 237 433 222 C430 207 423 192 411 180 C399 168 383 162 364 162 C345 162 332 168 325 180 L325 180 Z M475 113 L520 345 C527 379 519 408 496 431 C473 454 441 465 399 465 C329 465 268 442 217 397 C167 353 135 296 122 227 C109 159 121 104 159 62 C196 21 249 0 319 0 L449 0 L460 55 L330 55 C282 55 243 71 215 104 C185 138 175 179 184 227 C194 278 217 319 254 351 C272 366 292 378 315 386 C338 394 363 399 391 399 C419 399 438 391 451 377 C464 363 467 336 459 296 C445 325 420 339 383 338 C353 338 326 327 300 304 C276 283 261 257 255 227 C248 192 253 163 269 140 C277 129 287 120 299 113 C311 106 327 103 344 103 C361 103 378 107 395 116 C412 125 424 137 431 152 L423 113 L475 113 Z " />
<glyph glyph-name="A" unicode="A" horiz-adv-x="617" d="M234 250 L418 563 L481 250 L234 250 Z M607 0 L450 727 L10 0 L86 0 L195 185 L494 185 L531 0 L607 0 Z " />
<glyph glyph-name="B" unicode="B" horiz-adv-x="539" d="M556 190 C565 238 561 278 544 310 C527 342 500 364 462 375 C488 386 511 404 531 430 C540 442 548 454 554 467 C560 480 566 498 570 521 C574 544 573 566 567 588 C549 649 491 680 391 680 L207 680 L75 0 L283 0 C352 0 410 15 458 47 C483 63 503 85 521 110 C539 135 551 162 556 190 L556 190 Z M498 510 C491 473 474 446 449 428 C424 410 393 401 357 401 L223 401 L264 613 L378 613 C471 613 511 579 498 510 L498 510 Z M488 203 C480 163 461 130 428 104 C396 79 359 67 316 67 L158 67 L209 331 L378 331 C414 331 443 319 465 295 C475 284 482 271 487 256 C492 241 492 223 488 203 L488 203 Z " />
<glyph glyph-name="C" unicode="C" horiz-adv-x="729" d="M739 208 L662 208 C630 164 591 129 543 102 C495 75 447 62 396 62 C321 62 263 90 221 145 C180 199 166 263 181 339 C196 415 234 480 296 534 C325 559 358 579 394 594 C430 609 463 617 494 617 C525 617 552 613 574 606 C643 584 689 540 713 473 L790 473 C777 538 745 590 696 630 C647 670 588 689 518 689 C424 689 337 654 257 585 C220 553 189 516 163 474 C137 432 120 386 111 339 C93 244 109 162 161 94 C214 25 288 -10 382 -10 C451 -10 519 11 585 51 C650 91 701 143 739 208 L739 208 Z " />
<glyph glyph-name="D" unicode="D" horiz-adv-x="648" d="M669 340 C679 389 678 434 668 476 C658 518 641 554 615 584 C589 614 556 637 517 654 C478 671 434 680 385 680 L207 680 L75 0 L253 0 C302 0 349 9 395 26 C441 43 483 66 520 96 C557 126 589 162 615 204 C641 246 659 291 669 340 L669 340 Z M601 340 C586 262 546 198 481 146 C418 95 348 70 269 70 L159 70 L264 610 L374 610 C453 610 513 585 557 534 C602 482 616 418 601 340 L601 340 Z " />
<glyph glyph-name="E" unicode="E" horiz-adv-x="554" d="M479 0 L492 65 L158 65 L205 307 L529 307 L542 373 L218 373 L265 615 L599 615 L611 680 L207 680 L75 0 L479 0 Z " />
<glyph glyph-name="F" unicode="F" horiz-adv-x="499" d="M599 615 L611 680 L207 680 L75 0 L145 0 L205 307 L529 307 L542 373 L218 373 L265 615 L599 615 Z " />
<glyph glyph-name="G" unicode="G" horiz-adv-x="791" d="M808 318 L454 318 L442 257 L718 257 C686 198 642 151 585 115 C528 79 469 62 407 62 C329 62 269 90 225 145 C181 200 167 266 182 343 C197 420 237 486 302 541 C367 596 439 623 516 623 C574 623 624 607 665 574 C706 541 732 497 743 442 L817 442 C809 517 778 578 725 624 C672 670 604 693 523 693 C480 693 434 684 388 666 C342 648 300 623 262 591 C224 559 193 522 166 479 C139 436 121 390 112 342 C103 294 103 249 113 206 C123 163 140 126 166 94 C192 62 224 37 263 19 C302 1 345 -8 393 -8 C475 -8 556 19 632 72 C708 125 762 193 793 276 L808 318 Z " />
<glyph glyph-name="H" unicode="H" horiz-adv-x="599" d="M145 0 L204 304 L513 304 L454 0 L524 0 L656 680 L586 680 L527 374 L218 374 L277 680 L207 680 L75 0 L145 0 Z " />
<glyph glyph-name="I" unicode="I" horiz-adv-x="220" d="M145 0 L277 680 L207 680 L75 0 L145 0 Z " />
<glyph glyph-name="J" unicode="J" horiz-adv-x="365" d="M338 168 L437 680 L367 680 L268 168 C260 125 237 95 201 77 C171 62 137 56 99 61 C63 65 39 75 23 91 L8 14 C14 9 24 3 41 -2 C58 -7 78 -9 100 -10 C154 -12 200 0 241 24 C293 55 325 103 338 168 L338 168 Z " />
<glyph glyph-name="K" unicode="K" horiz-adv-x="474" d="M145 0 L207 319 L374 0 L464 0 L280 340 L596 680 L506 680 L215 361 L277 680 L207 680 L75 0 L145 0 Z " />
<glyph glyph-name="L" unicode="L" horiz-adv-x="408" d="M159 70 L277 680 L207 680 L75 0 L110 0 L145 0 L388 0 L402 70 L159 70 Z " />
<glyph glyph-name="M" unicode="M" horiz-adv-x="783" d="M702 0 L773 0 L756 725 L420 143 L310 725 L10 0 L82 0 L281 484 L384 -40 L690 484 L702 0 Z " />
<glyph glyph-name="N" unicode="N" horiz-adv-x="602" d="M242 501 L519 -42 L659 680 L589 680 L492 180 L216 723 L75 0 L145 0 L242 501 Z " />
<glyph glyph-name="O" unicode="O" horiz-adv-x="789" d="M740 342 C725 265 685 199 620 144 C555 89 483 62 406 62 C329 62 269 89 225 144 C181 199 166 265 181 342 C196 419 237 484 302 539 C367 594 438 621 515 621 C592 621 653 594 697 539 C741 484 755 419 740 342 L740 342 Z M810 342 C819 390 819 435 809 478 C799 521 782 558 756 589 C730 620 698 645 659 663 C620 681 576 691 528 691 C480 691 433 681 387 663 C341 645 300 620 262 589 C224 558 192 521 165 478 C138 435 120 390 111 342 C102 294 103 249 113 206 C123 163 140 126 166 94 C192 62 223 37 262 19 C301 1 344 -8 392 -8 C440 -8 488 1 534 19 C580 37 622 62 660 94 C698 126 730 163 757 206 C784 249 801 294 810 342 L810 342 Z " />
<glyph glyph-name="P" unicode="P" horiz-adv-x="529" d="M211 337 L264 613 L422 613 C463 613 494 600 514 575 C534 550 540 517 532 477 C524 437 504 404 473 377 C442 351 408 337 369 337 L211 337 Z M601 475 C613 535 602 584 567 623 C533 661 485 680 425 680 L207 680 L75 0 L145 0 L197 269 L345 269 C406 269 460 289 509 327 C559 366 589 415 601 475 L601 475 Z " />
<glyph glyph-name="Q" unicode="Q" horiz-adv-x="784" d="M810 339 C819 387 819 432 809 475 C799 518 782 555 756 587 C730 619 698 644 659 662 C620 680 576 689 528 689 C480 689 433 680 387 662 C341 644 300 619 262 587 C224 555 192 518 165 475 C138 432 120 387 111 339 C102 291 102 246 112 204 C122 162 139 124 165 92 C191 60 223 36 262 18 C301 0 344 -10 392 -10 C421 -10 450 -7 478 0 L754 0 L765 57 L663 57 C637 52 610 46 581 40 C609 55 635 73 659 93 C697 125 729 162 756 204 C783 246 801 291 810 339 L810 339 Z M740 339 C725 262 685 197 620 142 C555 87 483 60 406 60 C329 60 269 87 225 142 C181 197 166 262 181 339 C196 416 236 482 301 537 C366 592 437 619 514 619 C591 619 652 592 696 537 C740 482 755 416 740 339 L740 339 Z " />
<glyph glyph-name="R" unicode="R" horiz-adv-x="544" d="M210 336 L264 613 L422 613 C463 613 494 600 514 574 C534 548 540 517 532 477 C524 437 504 403 473 376 C443 349 407 336 368 336 L210 336 Z M601 475 C612 534 602 583 567 622 C533 660 486 680 425 680 L207 680 L75 0 L145 0 L197 269 L279 269 L426 0 L520 0 L363 270 C416 273 465 291 509 326 C559 365 589 415 601 475 L601 475 Z " />
<glyph glyph-name="S" unicode="S" horiz-adv-x="574" d="M326 321 C410 300 466 277 492 251 C510 233 517 210 511 182 C505 154 496 130 481 114 C443 72 385 51 309 51 C202 51 150 87 151 159 L68 159 C70 44 145 -13 296 -13 C363 -13 422 1 473 31 C534 66 571 119 584 187 C595 243 581 285 544 316 C517 338 471 358 405 376 C339 394 297 409 278 420 C237 443 221 475 229 517 C233 539 241 558 254 572 C288 611 337 630 403 630 C496 630 544 601 546 542 L621 542 C615 641 547 690 415 690 C355 690 299 675 248 643 C197 611 165 563 153 499 C136 412 194 353 326 321 L326 321 Z " />
<glyph glyph-name="T" unicode="T" horiz-adv-x="440" d="M140 617 L305 617 L185 2 L255 2 L375 617 L540 617 L553 682 L388 682 L318 682 L153 682 L140 617 Z " />
<glyph glyph-name="U" unicode="U" horiz-adv-x="627" d="M611 225 L699 680 L629 680 L539 215 C534 188 524 164 510 145 C470 89 409 61 326 61 C273 61 232 73 204 97 C172 125 162 164 172 215 L262 680 L192 680 L104 225 C90 151 102 93 142 51 C180 11 236 -9 312 -9 C387 -9 452 11 505 51 C561 93 597 151 611 225 L611 225 Z " />
<glyph glyph-name="V" unicode="V" horiz-adv-x="637" d="M311 -41 L759 680 L683 680 L345 132 L218 680 L142 680 L311 -41 Z " />
<glyph glyph-name="W" unicode="W" horiz-adv-x="783" d="M604 -55 L905 680 L834 680 L632 186 L532 720 L223 186 L214 680 L142 680 L158 -55 L496 537 L604 -55 Z " />
<glyph glyph-name="X" unicode="X" horiz-adv-x="606" d="M499 0 L585 0 L412 340 L717 680 L631 680 L379 390 L239 680 L152 680 L326 339 L21 0 L107 0 L359 290 L499 0 Z " />
<glyph glyph-name="Y" unicode="Y" horiz-adv-x="605" d="M400 320 L727 680 L638 680 L379 389 L232 680 L142 680 L330 320 L268 0 L338 0 L400 320 Z " />
<glyph glyph-name="Z" unicode="Z" horiz-adv-x="580" d="M165 65 L687 680 L178 680 L166 615 L548 615 L25 0 L538 0 L551 65 L165 65 Z " />
<glyph glyph-name="bracketleft" unicode="&#x5b;" horiz-adv-x="352" d="M238 -213 L247 -163 L132 -163 L300 701 L415 701 L425 750 L244 750 L57 -213 L238 -213 Z " />
<glyph glyph-name="backslash" unicode="&#x5c;" horiz-adv-x="538" d="M467 -201 L264 750 L189 750 L393 -201 L467 -201 Z " />
<glyph glyph-name="bracketright" unicode="&#x5d;" horiz-adv-x="352" d="M213 -213 L400 750 L219 750 L209 701 L324 701 L156 -163 L41 -163 L32 -213 L213 -213 Z " />
<glyph glyph-name="asciicircum" unicode="&#x5e;" horiz-adv-x="585" d="M594 343 L476 679 L373 679 L126 343 L203 343 L416 634 L517 343 L594 343 Z " />
<glyph glyph-name="underscore" unicode="&#x5f;" horiz-adv-x="585" d="M535 -146 L546 -88 L6 -88 L-5 -146 L535 -146 Z " />
<glyph glyph-name="grave" unicode="&#x60;" horiz-adv-x="186" d="M166 750 L76 893 L0 893 L110 750 L166 750 Z " />
<glyph glyph-name="a" unicode="a" horiz-adv-x="570" d="M468 220 C460 177 437 140 401 108 C365 76 326 60 282 60 C238 60 204 76 180 108 C157 140 150 177 158 220 C166 263 188 300 224 332 C260 364 300 380 344 380 C388 380 421 364 445 332 C468 300 476 263 468 220 L468 220 Z M495 0 L581 440 L511 440 L496 365 C493 370 489 375 486 380 C454 427 407 450 346 450 C285 450 230 427 179 380 C130 335 100 281 88 220 C76 159 85 105 117 60 C149 13 196 -10 257 -10 C318 -10 373 13 424 60 C429 65 435 70 440 75 L425 0 L495 0 Z " />
<glyph glyph-name="b" unicode="b" horiz-adv-x="570" d="M145 0 L160 75 L169 60 C201 13 248 -10 309 -10 C370 -10 425 13 476 60 C525 105 556 159 568 220 C580 281 570 335 538 380 C506 427 459 450 398 450 C337 450 282 427 231 380 L216 365 L291 750 L221 750 L75 0 L145 0 Z M498 220 C490 177 467 140 431 108 C395 76 356 60 312 60 C268 60 234 76 210 108 C187 140 180 177 188 220 C196 263 218 300 254 332 C290 364 330 380 374 380 C418 380 451 364 475 332 C498 300 506 263 498 220 L498 220 Z " />
<glyph glyph-name="c" unicode="c" horiz-adv-x="521" d="M541 282 C537 332 518 372 485 402 C451 433 407 449 357 449 C294 449 237 426 184 381 C132 336 100 283 88 220 C76 158 87 104 121 58 C137 37 158 20 183 8 C208 -4 234 -10 262 -10 C290 -10 316 -6 339 2 C414 27 471 74 510 144 L431 144 C413 119 391 100 364 85 C337 70 310 63 282 63 C239 63 207 78 183 109 C159 140 152 177 160 220 C168 262 190 298 226 329 C242 343 261 355 281 363 C301 371 324 376 350 376 C376 376 400 367 422 350 C444 333 458 310 465 282 L541 282 Z " />
<glyph glyph-name="d" unicode="d" horiz-adv-x="570" d="M468 220 C460 177 437 140 401 108 C365 76 326 60 282 60 C238 60 204 76 180 108 C157 140 150 177 158 220 C166 263 188 300 224 332 C260 364 300 380 344 380 C388 380 421 364 445 332 C468 300 476 263 468 220 L468 220 Z M495 0 L641 750 L571 750 L496 365 C493 370 489 375 486 380 C454 427 407 450 346 450 C285 450 230 427 179 380 C130 335 100 281 88 220 C76 159 85 105 117 60 C149 13 196 -10 257 -10 C318 -10 373 13 424 60 C429 65 435 70 440 75 L425 0 L495 0 Z " />
<glyph glyph-name="e" unicode="e" horiz-adv-x="545" d="M550 230 C562 291 549 343 511 387 C474 430 425 452 363 452 C300 452 241 429 187 384 C133 339 100 285 88 222 C76 158 88 104 124 60 C141 39 163 23 188 11 C213 -1 245 -7 284 -7 C323 -7 364 6 406 30 C448 54 483 87 510 129 L430 129 C411 108 388 92 363 80 C338 68 312 63 287 63 C249 63 218 75 192 100 C167 124 155 155 156 193 L543 193 L550 230 Z M480 253 L168 253 C176 272 186 288 199 304 C242 356 292 382 349 382 C386 382 418 370 442 346 C467 321 479 290 480 253 L480 253 Z " />
<glyph glyph-name="f" unicode="f" horiz-adv-x="341" d="M444 685 L457 750 L407 750 C358 750 320 738 294 714 C268 690 252 655 243 610 L210 440 L121 440 L108 375 L197 375 L124 0 L194 0 L267 375 L384 375 L397 440 L280 440 L316 630 C319 645 326 658 335 669 C344 680 361 685 384 685 L444 685 Z " />
<glyph glyph-name="g" unicode="g" horiz-adv-x="576" d="M474 220 C466 177 443 140 407 108 C371 76 332 60 288 60 C245 60 211 76 187 108 C163 139 156 177 164 220 C172 263 195 301 231 332 C268 364 307 380 350 380 C394 380 427 364 451 332 C474 300 482 263 474 220 L474 220 Z M108 -60 L36 -60 C34 -107 48 -148 76 -183 C112 -228 161 -250 224 -250 C287 -250 345 -228 398 -183 C451 -138 485 -85 497 -22 L587 440 L517 440 L502 366 C500 371 496 375 493 380 C458 427 412 450 353 450 C292 450 236 427 185 380 C136 335 106 281 94 220 C82 159 91 105 123 60 C156 13 203 -10 264 -10 C325 -10 380 13 431 60 C436 65 441 69 445 74 L427 -22 C419 -65 396 -102 359 -133 C322 -164 281 -180 238 -180 C195 -180 161 -164 136 -133 C119 -111 109 -87 108 -60 L108 -60 Z " />
<glyph glyph-name="h" unicode="h" horiz-adv-x="509" d="M145 0 L181 184 C193 245 212 292 239 324 C254 342 272 355 293 365 C314 375 339 379 369 379 C399 379 418 369 427 349 C436 329 438 304 432 275 L379 0 L449 0 L502 275 C512 326 507 368 486 399 C476 415 463 427 445 436 C427 445 402 449 371 449 C340 449 311 441 284 425 C258 410 235 389 216 364 L291 750 L221 750 L75 0 L145 0 Z " />
<glyph glyph-name="i" unicode="i" horiz-adv-x="229" d="M261 592 C254 601 244 605 232 605 C220 605 208 601 198 592 C188 583 181 572 179 560 C177 548 179 538 186 529 C193 520 203 516 215 516 C227 516 239 520 249 529 C259 538 266 548 268 560 C270 572 268 583 261 592 L261 592 Z M150 0 L236 440 L166 440 L80 0 L150 0 Z " />
<glyph glyph-name="j" unicode="j" horiz-adv-x="235" d="M274 560 C276 573 274 583 267 592 C260 601 251 605 238 605 C225 605 213 601 203 592 C193 583 186 573 184 560 C182 547 184 537 191 528 C198 519 207 515 220 515 C233 515 245 519 255 528 C265 537 272 547 274 560 L274 560 Z M139 -84 L241 440 L171 440 L68 -85 C59 -134 39 -164 8 -175 C-5 -180 -16 -181 -28 -178 C-40 -175 -49 -169 -56 -161 L-69 -228 C-57 -237 -41 -242 -21 -243 C-1 -244 20 -240 41 -230 C62 -220 81 -203 99 -180 C117 -157 131 -125 139 -84 L139 -84 Z " />
<glyph glyph-name="k" unicode="k" horiz-adv-x="421" d="M145 0 L186 211 L318 0 L411 0 L262 227 L485 441 L392 441 L192 243 L291 750 L221 750 L75 0 L145 0 Z " />
<glyph glyph-name="l" unicode="l" horiz-adv-x="220" d="M145 0 L291 750 L221 750 L75 0 L145 0 Z " />
<glyph glyph-name="m" unicode="m" horiz-adv-x="763" d="M633 2 L703 2 L757 277 C767 327 762 367 744 399 C735 415 722 428 705 438 C688 448 665 452 634 452 C603 452 574 444 548 427 C524 412 504 392 486 368 C483 379 478 390 473 399 C464 415 451 428 434 438 C417 448 394 452 363 452 C332 452 304 444 278 427 C255 413 235 394 217 372 L231 442 L161 442 L75 2 L145 2 L189 227 C200 263 215 293 234 318 C248 337 266 352 286 364 C306 376 326 382 347 382 C368 382 382 379 391 373 C416 355 425 323 416 277 L362 2 L432 2 L486 277 C487 283 488 288 489 294 C494 303 499 310 505 318 C519 337 537 352 557 364 C577 376 597 382 618 382 C639 382 653 379 662 373 C687 355 696 323 687 277 L633 2 Z " />
<glyph glyph-name="n" unicode="n" horiz-adv-x="509" d="M379 0 L449 0 L502 275 C512 326 507 367 486 398 C476 414 463 427 445 436 C427 445 402 449 371 449 C340 449 311 440 284 424 C258 409 235 389 216 364 L231 440 L161 440 L75 0 L145 0 L181 184 C192 240 211 285 238 318 C253 336 271 351 292 362 C313 373 339 379 369 379 C399 379 418 368 427 348 C436 328 438 304 432 275 L379 0 Z " />
<glyph glyph-name="o" unicode="o" horiz-adv-x="550" d="M478 222 C470 179 446 141 409 110 C372 79 331 63 287 63 C243 63 208 79 183 110 C158 141 150 179 158 222 C167 266 190 304 227 335 C264 366 305 382 349 382 C393 382 428 366 453 335 C478 304 487 266 478 222 L478 222 Z M548 222 C560 285 548 339 512 384 C476 429 426 452 363 452 C300 452 241 429 187 384 C133 339 100 285 88 222 C76 158 88 104 124 60 C161 15 211 -7 274 -7 C337 -7 395 15 449 60 C503 104 536 158 548 222 L548 222 Z " />
<glyph glyph-name="p" unicode="p" horiz-adv-x="570" d="M96 -250 L160 75 L169 60 C201 13 248 -10 309 -10 C370 -10 425 13 476 60 C525 105 556 159 568 220 C580 281 570 335 538 380 C506 427 459 450 398 450 C337 450 282 427 231 380 L216 365 L231 440 L161 440 L26 -250 L96 -250 Z M498 220 C490 177 467 140 431 108 C395 76 356 60 312 60 C268 60 234 76 210 108 C187 140 180 177 188 220 C196 263 218 300 254 332 C290 364 330 380 374 380 C418 380 451 364 475 332 C498 300 506 263 498 220 L498 220 Z " />
<glyph glyph-name="q" unicode="q" horiz-adv-x="570" d="M468 220 C460 177 437 140 401 108 C365 76 326 60 282 60 C238 60 204 76 180 108 C157 140 150 177 158 220 C166 263 188 300 224 332 C260 364 300 380 344 380 C388 380 421 364 445 332 C468 300 476 263 468 220 L468 220 Z M446 -250 L581 440 L511 440 L496 365 C493 370 489 375 486 380 C454 427 407 450 346 450 C285 450 230 427 179 380 C130 335 100 281 88 220 C76 159 85 105 117 60 C149 13 196 -10 257 -10 C318 -10 373 13 424 60 C429 65 435 70 440 75 L376 -250 L446 -250 Z " />
<glyph glyph-name="r" unicode="r" horiz-adv-x="311" d="M369 349 L387 440 C374 446 359 449 344 449 C295 449 253 422 219 367 L213 349 L231 440 L161 440 L75 0 L145 0 L188 220 C195 256 210 289 232 318 C244 333 257 346 272 356 C287 366 304 371 322 371 C340 371 356 364 369 349 L369 349 Z " />
<glyph glyph-name="s" unicode="s" horiz-adv-x="402" d="M151 63 C136 75 127 94 125 123 L51 123 C49 32 98 -13 200 -13 C224 -13 246 -11 268 -5 C290 1 311 10 330 21 C368 44 392 79 401 126 C410 173 394 207 353 229 C335 238 316 246 295 251 C274 256 253 261 235 267 C217 273 202 281 191 290 C180 299 176 314 180 334 C184 354 194 368 212 378 C229 387 249 392 271 392 C293 392 310 388 324 380 C338 372 346 356 349 331 L424 331 C423 375 411 407 386 424 C361 442 326 450 284 450 C241 450 203 439 168 416 C133 394 110 361 102 317 C98 295 100 276 108 260 C116 244 131 230 152 220 C170 211 189 204 210 199 C231 194 251 187 269 181 C312 166 331 145 326 117 C317 69 279 45 215 45 C187 45 166 51 151 63 L151 63 Z " />
<glyph glyph-name="t" unicode="t" horiz-adv-x="329" d="M93 375 L203 375 L130 0 L200 0 L273 375 L382 375 L395 440 L286 440 L319 611 L249 611 L216 440 L106 440 L93 375 Z " />
<glyph glyph-name="u" unicode="u" horiz-adv-x="509" d="M394 75 L379 0 L449 0 L535 440 L465 440 L429 256 C417 195 396 147 367 113 C338 79 296 61 241 61 C211 61 191 71 182 91 C173 111 171 136 177 165 L231 440 L161 440 L107 165 C97 114 103 72 124 40 C145 8 181 -9 230 -9 C295 -9 350 19 394 75 L394 75 Z " />
<glyph glyph-name="v" unicode="v" horiz-adv-x="425" d="M205 -42 L501 440 L425 440 L235 113 L172 440 L96 440 L205 -42 Z " />
<glyph glyph-name="w" unicode="w" horiz-adv-x="724" d="M494 -56 L800 440 L722 440 L524 101 L452 463 L240 101 L174 440 L96 440 L210 -56 L420 299 L494 -56 Z " />
<glyph glyph-name="x" unicode="x" horiz-adv-x="448" d="M334 0 L423 0 L312 220 L509 440 L420 440 L277 271 L200 440 L111 440 L222 221 L25 0 L114 0 L257 171 L334 0 Z " />
<glyph glyph-name="y" unicode="y" horiz-adv-x="425" d="M82 -250 L521 440 L443 440 L259 145 L176 440 L96 440 L208 72 L-3 -250 L82 -250 Z " />
<glyph glyph-name="z" unicode="z" horiz-adv-x="455" d="M10 0 L445 0 L458 65 L157 65 L518 440 L113 440 L100 375 L371 375 L10 0 Z " />
<glyph glyph-name="braceleft" unicode="&#x7b;" horiz-adv-x="380" d="M213 355 C204 306 176 274 130 258 L117 190 C132 183 144 174 155 162 C166 150 170 133 166 114 L122 -112 C114 -155 113 -184 120 -201 C127 -218 137 -230 149 -238 C161 -246 174 -250 189 -250 L225 -250 C233 -250 243 -250 252 -249 L261 -200 C202 -212 180 -182 194 -109 L238 116 C245 152 233 181 202 203 C193 209 183 215 173 220 C203 235 226 252 245 271 C264 290 277 316 283 348 L343 661 C350 697 381 710 436 699 L446 749 C437 750 428 750 420 750 L395 750 C338 750 299 724 279 671 C273 655 268 638 264 619 L213 355 Z " />
<glyph glyph-name="bar" unicode="&#x7c;" horiz-adv-x="290" d="M74 -225 L129 -225 L314 725 L259 725 L74 -225 Z " />
<glyph glyph-name="braceright" unicode="&#x7d;" horiz-adv-x="380" d="M305 355 L356 619 C360 638 362 655 362 671 C363 724 334 750 277 750 L251 750 C243 750 235 750 226 749 L216 699 C275 710 300 697 293 661 L233 348 C227 316 229 290 240 271 C251 252 269 235 293 220 C281 215 269 209 257 203 C218 181 195 152 188 116 L144 -109 C130 -182 95 -212 41 -200 L32 -249 C41 -250 50 -250 58 -250 L93 -250 C108 -250 124 -246 139 -238 C154 -230 167 -218 181 -201 C195 -184 206 -155 214 -112 L258 114 C262 133 271 150 287 162 C303 174 320 183 337 190 L350 258 C310 274 296 306 305 355 L305 355 Z " />
<glyph glyph-name="asciitilde" unicode="&#x7e;" horiz-adv-x="526" d="M397 771 C376.63 734.333 356.341 716 336.134 716 C315.927 716 290.382 723.5 259.499 738.5 C247.832 744.167 235.832 749.334 223.499 754.001 C211.166 758.668 196.499 761.001 179.499 761.001 C162.499 761.001 140.555 747.557 113.666 720.668 C99.4434 706.445 86.8877 689.223 75.999 669 L127.999 635 C147.999 675 167.999 695 187.999 695 C202.666 695 215.999 692.667 227.999 688 C239.999 683.333 251.832 678.333 263.499 673 C275.166 667.667 286.833 662.667 298.5 658 C310.167 653.333 322.167 651 334.5 651 C346.833 651 358.5 654 369.5 660 C399.357 676.286 426.19 702.286 450 738 L397 771 Z " />
<glyph glyph-name="uni00A0" unicode="&#xa0;" horiz-adv-x="270" d="" />
<glyph glyph-name="dieresis" unicode="&#xa8;" horiz-adv-x="564" d="M413 826 C404.333 834.667 393.666 839 380.999 839 C368.332 839 357.832 834.667 349.499 826 C341.166 817.333 336.999 806.833 336.999 794.5 C336.999 782.167 341.166 771.667 349.499 763 C357.832 754.333 368.332 750 380.999 750 C393.666 750 404.333 754.333 413 763 C421.667 771.667 426 782.167 426 794.5 C426 806.833 421.667 817.333 413 826 L413 826 Z M231 826 C222.333 834.667 211.666 839 198.999 839 C186.332 839 175.832 834.667 167.499 826 C159.166 817.333 154.999 806.833 154.999 794.5 C154.999 782.167 159.166 771.667 167.499 763 C175.832 754.333 186.332 750 198.999 750 C211.666 750 222.333 754.333 231 763 C239.667 771.667 244 782.167 244 794.5 C244 806.833 239.667 817.333 231 826 L231 826 Z " />
<glyph glyph-name="copyright" unicode="&#xa9;" horiz-adv-x="747" d="M529 303 L469 303 C446.186 275 415.981 261 378.389 261 C340.796 261 310.666 272.333 287.999 295 C264.666 318.333 252.999 345.333 252.999 376 C252.999 407.333 264.666 434.666 287.999 457.999 C310.666 480.666 338.333 491.999 371 491.999 C412.843 491.999 445.843 477.332 470 447.999 L530 447.999 C517.156 473.687 499.989 494.52 478.499 510.499 C447.568 533.499 411.735 544.999 371 544.999 C323.782 544.999 282.782 528.332 248 494.999 C214 462.416 197 422.749 197 375.999 C197 329.916 214 290.583 248 258 C282.782 224.667 323.782 208 371 208 C440.143 208 492.81 239.667 529 303 L529 303 Z M636 375 C636 303.861 610.333 243.694 559 194.5 C507.869 145.5 445.869 121 373 121 C300.42 121 238.92 145.5 188.5 194.5 C136.833 244.711 111 304.878 111 375 C111 444.455 136.833 504.288 188.5 554.499 C238.92 603.499 300.42 627.999 373 627.999 C445.869 627.999 507.869 603.499 559 554.499 C610.333 505.305 636 445.473 636 375 L636 375 Z M699 374.999 C699 418.332 690.333 458.999 673 496.999 C655.667 534.999 632.334 568.332 603.001 596.999 C573.668 625.666 539.168 648.166 499.501 664.499 C459.834 680.832 417.667 688.999 373 688.999 C283.473 688.999 206.973 658.332 143.5 596.999 C113.833 568.332 90.333 534.999 73 496.999 C55.667 458.999 47 418.332 47 374.999 C47 331.666 55.667 290.833 73 252.5 C90.333 214.167 113.833 180.667 143.5 152 C206.973 90.667 283.473 60 373 60 C417.667 60 459.834 68.167 499.501 84.5 C539.168 100.833 573.668 123.333 603.001 152 C632.334 180.667 655.667 214.167 673 252.5 C690.333 290.833 699 331.666 699 374.999 L699 374.999 Z " />
<glyph glyph-name="registered" unicode="&#xae;" horiz-adv-x="747" d="M439 442 C439 426.667 433 414.167 421 404.5 C409 394.833 395.333 390 380 390 L333 390 L333 494 L380 494 C395.333 494 409 489.167 421 479.5 C433 469.833 439 457.333 439 442 L439 442 Z M500 218 L420 358 C445.333 374.667 462.5 389.5 471.5 402.5 C480.5 415.5 485 428.667 485 442 C485 466.506 474.833 487.173 454.5 504 C432.75 522 407.917 531 380 531 L287 531 L287 218 L333 218 L333 354 L378 354 L441 218 L500 218 Z M636 375 C636 303.861 610.333 243.694 559 194.5 C507.869 145.5 445.869 121 373 121 C300.42 121 238.92 145.5 188.5 194.5 C136.833 244.711 111 304.878 111 375 C111 444.455 136.833 504.288 188.5 554.499 C238.92 603.499 300.42 627.999 373 627.999 C445.869 627.999 507.869 603.499 559 554.499 C610.333 505.305 636 445.473 636 375 L636 375 Z M699 374.999 C699 418.332 690.333 458.999 673 496.999 C655.667 534.999 632.334 568.332 603.001 596.999 C573.668 625.666 539.168 648.166 499.501 664.499 C459.834 680.832 417.667 688.999 373 688.999 C283.473 688.999 206.973 658.332 143.5 596.999 C79.833 535.479 48 461.479 48 374.999 C48 331.666 56.5 290.833 73.5 252.5 C90.5 214.167 113.833 180.667 143.5 152 C206.973 90.667 283.473 60 373 60 C417.667 60 459.834 68.167 499.501 84.5 C539.168 100.833 573.668 123.333 603.001 152 C632.334 180.667 655.667 214.167 673 252.5 C690.333 290.833 699 331.666 699 374.999 L699 374.999 Z " />
<glyph glyph-name="degree" unicode="&#xb0;" horiz-adv-x="460" d="M325 532 C325 504.546 318.667 483.046 306 467.5 C298.667 458.5 288.834 451.333 276.501 446 C264.168 440.667 248.501 438 229.501 438 C210.501 438 195.001 440.667 183.001 446 C171.001 451.333 160.001 460.136 150.001 472.408 C140.001 484.681 135.001 504.544 135.001 531.998 C135.001 557.968 141.668 579.135 155.001 595.498 C171.569 615.831 196.569 625.998 230.001 625.998 C248.668 625.998 264.001 623.165 276.001 617.498 C308.668 602.072 325 573.574 325 532 L325 532 Z M395.001 532.498 C395.001 576.135 379.001 612.135 347.001 640.498 C315.787 668.165 276.787 681.998 230.001 681.998 C183.215 681.998 144.215 668.165 113.001 640.498 C81.001 612.135 65.001 576.302 65.001 532.999 C65.001 488.438 80.668 452.271 112.001 424.499 C142.463 397.499 181.796 383.999 230.001 383.999 C278.206 383.999 317.539 397.499 348.001 424.499 C362.668 437.499 374.168 453.166 382.501 471.499 C390.834 489.832 395.001 510.165 395.001 532.498 L395.001 532.498 Z " />
<glyph glyph-name="acute" unicode="&#xb4;" horiz-adv-x="186" d="M176 893 L100 893 L20 750 L76 750 L176 893 Z " />
<glyph glyph-name="paragraph" unicode="&#xb6;" horiz-adv-x="520" d="M412 0 L412 655 L274 655 C211.723 655 158.556 633.333 114.5 590 C70.167 546.394 48 493.727 48 432 C48 373.708 68.167 324.041 108.5 283 C148.517 242.281 199.684 217.281 262 208 L262 0 L306 0 L306 612 L369 612 L369 0 L412 0 Z " />
<glyph glyph-name="cedilla" unicode="&#xb8;" horiz-adv-x="539" d="M265 -46 L316 61 L260 60 L186 -103 C199.333 -101 213.666 -98.667 228.999 -96 C244.332 -93.333 258.999 -93 272.999 -95 C310.389 -100.539 326.056 -120.872 319.999 -156 C317.498 -177.259 298.665 -189.759 263.499 -193.5 C229.135 -197.155 193.302 -192.322 155.999 -179 L130.999 -231 C178.085 -249.549 224.418 -255.716 269.999 -249.5 C319.383 -242.766 351.716 -220.933 366.998 -184 C381.247 -150.32 379.914 -118.487 362.998 -88.5 C355.665 -75.5 345.832 -65 333.499 -57 C321.166 -49 306.916 -45 290.749 -45 C274.582 -45 266 -45.333 265 -46 L265 -46 Z " />
<glyph glyph-name="Agrave" unicode="&#xc0;" horiz-adv-x="617" d="M234 250 L418 563 L481 250 L234 250 Z M607 0 L450 727 L10 0 L86 0 L195 185 L494 185 L531 0 L607 0 Z M492 750 L430 893 L354 893 L436 750 L492 750 Z " />
<glyph glyph-name="Aacute" unicode="&#xc1;" horiz-adv-x="617" d="M234 250 L418 563 L481 250 L234 250 Z M607 0 L450 727 L10 0 L86 0 L195 185 L494 185 L531 0 L607 0 Z M618 893 L532 893 L424 750 L480 750 L618 893 Z " />
<glyph glyph-name="Acircumflex" unicode="&#xc2;" horiz-adv-x="617" d="M234 250 L418 563 L481 250 L234 250 Z M607 0 L450 727 L10 0 L86 0 L195 185 L494 185 L531 0 L607 0 Z M474 856 L526 750 L597 750 L515 893 L449 893 L311 750 L382 750 L474 856 Z " />
<glyph glyph-name="Atilde" unicode="&#xc3;" horiz-adv-x="617" d="M234 250 L418 563 L481 250 L234 250 Z M607 0 L450 727 L10 0 L86 0 L195 185 L494 185 L531 0 L607 0 Z M290 750 L339 750 C340 763 342 774 347 784 C357 807 373 819 395 819 C408 819 419 814 425 806 C431 798 438 789 444 779 C450 769 459 759 469 751 C479 743 497 738 523 738 C549 738 570 745 586 758 C618 784 636 819 640 863 L591 863 C586 838 581 822 576 814 C572 808 567 802 560 799 C553 796 544 794 532 794 C520 794 511 799 505 807 C499 815 493 824 487 834 C481 844 471 854 461 862 C451 870 434 874 409 874 C384 874 364 868 348 855 C317 830 297 795 290 750 L290 750 Z " />
<glyph glyph-name="Adieresis" unicode="&#xc4;" horiz-adv-x="617" d="M234 250 L418 563 L481 250 L234 250 Z M607 0 L450 727 L10 0 L86 0 L195 185 L494 185 L531 0 L607 0 Z M592 826 C585 835 575 839 562 839 C549 839 538 835 528 826 C518 817 511 806 509 794 C507 782 509 772 516 763 C523 754 532 750 545 750 C558 750 569 754 579 763 C589 772 596 782 598 794 C600 806 599 817 592 826 L592 826 Z M410 826 C403 835 393 839 380 839 C367 839 356 835 346 826 C336 817 329 806 327 794 C325 782 327 772 334 763 C341 754 350 750 363 750 C376 750 387 754 397 763 C407 772 414 782 416 794 C418 806 417 817 410 826 L410 826 Z " />
<glyph glyph-name="Aring" unicode="&#xc5;" horiz-adv-x="617" d="M234 250 L418 563 L481 250 L234 250 Z M607 0 L460 682 C479 685 497 694 514 707 C537 726 552 749 557 775 C562 802 556 826 540 844 C524 862 503 871 477 871 C451 871 426 862 403 843 C380 824 366 801 361 775 C356 748 361 726 377 708 C389 694 405 685 423 682 L10 0 L86 0 L195 185 L494 185 L531 0 L607 0 Z M434 804 C444 812 455 816 467 816 C479 816 488 812 495 804 C502 796 504 787 502 776 C500 765 494 755 484 747 C474 739 463 735 451 735 C439 735 430 739 423 747 C416 755 414 765 416 776 C418 787 424 796 434 804 L434 804 Z " />
<glyph glyph-name="AE" unicode="&#xc6;" horiz-adv-x="818" d="M451 582 L384 237 L241 237 L437 541 L451 582 Z M338 0 L743 0 L757 72 L424 70 L469 302 L792 304 L806 376 L483 374 L528 606 L861 608 L875 680 L466 680 L15 0 L93 0 L203 175 L372 175 L338 0 Z " />
<glyph glyph-name="Ccedilla" unicode="&#xc7;" horiz-adv-x="729" d="M739 208 L662 208 C630 164 591 129 543 102 C495 75 447 62 396 62 C321 62 263 90 221 145 C180 199 166 263 181 339 C196 415 234 480 296 534 C325 559 358 580 394 595 C430 610 463 617 494 617 C525 617 552 614 574 607 C643 585 689 540 713 473 L790 473 C777 538 745 590 696 630 C647 670 588 689 518 689 C424 689 337 654 257 585 C220 553 189 516 163 474 C137 432 120 386 111 339 C93 244 109 162 161 94 C206 36 265 2 339 -7 L277 -103 C291 -101 305 -99 321 -96 C337 -93 352 -93 366 -95 C402 -101 414 -121 401 -156 C394 -177 373 -189 337 -193 C302 -197 267 -192 232 -179 L197 -231 C240 -250 286 -255 333 -249 C384 -242 420 -221 442 -184 C463 -150 468 -118 457 -88 C452 -75 444 -65 433 -57 C422 -49 409 -45 393 -45 C377 -45 368 -45 367 -46 L391 -10 C457 -8 522 12 585 51 C650 91 701 143 739 208 L739 208 Z " />
<glyph glyph-name="Egrave" unicode="&#xc8;" horiz-adv-x="554" d="M479 0 L492 65 L158 65 L205 307 L529 307 L542 373 L218 373 L265 615 L599 615 L611 680 L207 680 L75 0 L479 0 Z M501 750 L439 893 L363 893 L445 750 L501 750 Z " />
<glyph glyph-name="Eacute" unicode="&#xc9;" horiz-adv-x="554" d="M479 0 L492 65 L158 65 L205 307 L529 307 L542 373 L218 373 L265 615 L599 615 L611 680 L207 680 L75 0 L479 0 Z M594 893 L508 893 L400 750 L456 750 L594 893 Z " />
<glyph glyph-name="Ecircumflex" unicode="&#xca;" horiz-adv-x="554" d="M479 0 L492 65 L158 65 L205 307 L529 307 L542 373 L218 373 L265 615 L599 615 L611 680 L207 680 L75 0 L479 0 Z M443 856 L495 750 L566 750 L484 893 L418 893 L280 750 L351 750 L443 856 Z " />
<glyph glyph-name="Edieresis" unicode="&#xcb;" horiz-adv-x="554" d="M479 0 L492 65 L158 65 L205 307 L529 307 L542 373 L218 373 L265 615 L599 615 L611 680 L207 680 L75 0 L479 0 Z M562 826 C555 835 545 839 532 839 C519 839 508 835 498 826 C488 817 481 806 479 794 C477 782 479 772 486 763 C493 754 502 750 515 750 C528 750 539 754 549 763 C559 772 566 782 568 794 C570 806 569 817 562 826 L562 826 Z M380 826 C373 835 363 839 350 839 C337 839 326 835 316 826 C306 817 299 806 297 794 C295 782 297 772 304 763 C311 754 320 750 333 750 C346 750 357 754 367 763 C377 772 384 782 386 794 C388 806 387 817 380 826 L380 826 Z " />
<glyph glyph-name="Igrave" unicode="&#xcc;" horiz-adv-x="220" d="M145 0 L277 680 L207 680 L75 0 L145 0 Z M293 750 L231 893 L155 893 L237 750 L293 750 Z " />
<glyph glyph-name="Iacute" unicode="&#xcd;" horiz-adv-x="220" d="M145 0 L277 680 L207 680 L75 0 L145 0 Z M428 893 L342 893 L234 750 L290 750 L428 893 Z " />
<glyph glyph-name="Icircumflex" unicode="&#xce;" horiz-adv-x="220" d="M145 0 L277 680 L207 680 L75 0 L145 0 Z M277 856 L329 750 L400 750 L318 893 L252 893 L114 750 L185 750 L277 856 Z " />
<glyph glyph-name="Idieresis" unicode="&#xcf;" horiz-adv-x="220" d="M145 0 L277 680 L207 680 L75 0 L145 0 Z M395 826 C388 835 378 839 365 839 C352 839 341 835 331 826 C321 817 314 806 312 794 C310 782 312 772 319 763 C326 754 335 750 348 750 C361 750 372 754 382 763 C392 772 399 782 401 794 C403 806 402 817 395 826 L395 826 Z M213 826 C206 835 196 839 183 839 C170 839 159 835 149 826 C139 817 132 806 130 794 C128 782 130 772 137 763 C144 754 153 750 166 750 C179 750 190 754 200 763 C210 772 217 782 219 794 C221 806 220 817 213 826 L213 826 Z " />
<glyph glyph-name="Eth" unicode="&#xd0;" horiz-adv-x="648" d="M601 340 C586 262 546 198 481 146 C418 95 348 70 269 70 L159 70 L202 295 L400 295 L411 352 L213 352 L264 610 L374 610 C453 610 513 585 557 534 C602 482 616 418 601 340 L601 340 Z M669 340 C679 389 678 434 668 476 C658 518 641 554 615 584 C589 614 556 637 517 654 C478 671 434 680 385 680 L207 680 L143 352 L76 352 L65 295 L132 295 L75 0 L253 0 C302 0 349 9 395 26 C441 43 483 66 520 96 C557 126 589 162 615 204 C641 246 659 291 669 340 L669 340 Z " />
<glyph glyph-name="Ntilde" unicode="&#xd1;" horiz-adv-x="602" d="M242 501 L519 -42 L659 680 L589 680 L492 180 L216 723 L75 0 L145 0 L242 501 Z M284 750 L333 750 C334 763 336 774 341 784 C351 807 367 819 389 819 C402 819 413 814 419 806 C425 798 432 789 438 779 C444 769 453 759 463 751 C473 743 491 738 517 738 C543 738 564 745 580 758 C612 784 630 819 634 863 L585 863 C580 838 575 822 570 814 C566 808 561 802 554 799 C547 796 538 794 526 794 C514 794 505 799 499 807 C493 815 487 824 481 834 C475 844 465 854 455 862 C445 870 428 874 403 874 C378 874 358 868 342 855 C311 830 291 795 284 750 L284 750 Z " />
<glyph glyph-name="Ograve" unicode="&#xd2;" horiz-adv-x="789" d="M740 342 C725 265 685 199 620 144 C555 89 483 62 406 62 C329 62 269 89 225 144 C181 199 166 265 181 342 C196 419 237 484 302 539 C367 594 438 621 515 621 C592 621 653 594 697 539 C741 484 755 419 740 342 L740 342 Z M810 342 C819 390 819 435 809 478 C799 521 782 558 756 589 C730 620 698 645 659 663 C620 681 576 691 528 691 C480 691 433 681 387 663 C341 645 300 620 262 589 C224 558 192 521 165 478 C138 435 120 390 111 342 C102 294 103 249 113 206 C123 163 140 126 166 94 C192 62 223 37 262 19 C301 1 344 -8 392 -8 C440 -8 488 1 534 19 C580 37 622 62 660 94 C698 126 730 163 757 206 C784 249 801 294 810 342 L810 342 Z M568 750 L506 893 L430 893 L512 750 L568 750 Z " />
<glyph glyph-name="Oacute" unicode="&#xd3;" horiz-adv-x="789" d="M740 342 C725 265 685 199 620 144 C555 89 483 62 406 62 C329 62 269 89 225 144 C181 199 166 265 181 342 C196 419 237 484 302 539 C367 594 438 621 515 621 C592 621 653 594 697 539 C741 484 755 419 740 342 L740 342 Z M810 342 C819 390 819 435 809 478 C799 521 782 558 756 589 C730 620 698 645 659 663 C620 681 576 691 528 691 C480 691 433 681 387 663 C341 645 300 620 262 589 C224 558 192 521 165 478 C138 435 120 390 111 342 C102 294 103 249 113 206 C123 163 140 126 166 94 C192 62 223 37 262 19 C301 1 344 -8 392 -8 C440 -8 488 1 534 19 C580 37 622 62 660 94 C698 126 730 163 757 206 C784 249 801 294 810 342 L810 342 Z M706 893 L620 893 L512 750 L568 750 L706 893 Z " />
<glyph glyph-name="Ocircumflex" unicode="&#xd4;" horiz-adv-x="789" d="M740 342 C725 265 685 199 620 144 C555 89 483 62 406 62 C329 62 269 89 225 144 C181 199 166 265 181 342 C196 419 237 484 302 539 C367 594 438 621 515 621 C592 621 653 594 697 539 C741 484 755 419 740 342 L740 342 Z M810 342 C819 390 819 435 809 478 C799 521 782 558 756 589 C730 620 698 645 659 663 C620 681 576 691 528 691 C480 691 433 681 387 663 C341 645 300 620 262 589 C224 558 192 521 165 478 C138 435 120 390 111 342 C102 294 103 249 113 206 C123 163 140 126 166 94 C192 62 223 37 262 19 C301 1 344 -8 392 -8 C440 -8 488 1 534 19 C580 37 622 62 660 94 C698 126 730 163 757 206 C784 249 801 294 810 342 L810 342 Z M560 856 L612 750 L683 750 L601 893 L535 893 L397 750 L468 750 L560 856 Z " />
<glyph glyph-name="Otilde" unicode="&#xd5;" horiz-adv-x="789" d="M740 342 C725 265 685 199 620 144 C555 89 483 62 406 62 C329 62 269 89 225 144 C181 199 166 265 181 342 C196 419 237 484 302 539 C367 594 438 621 515 621 C592 621 653 594 697 539 C741 484 755 419 740 342 L740 342 Z M810 342 C819 390 819 435 809 478 C799 521 782 558 756 589 C730 620 698 645 659 663 C620 681 576 691 528 691 C480 691 433 681 387 663 C341 645 300 620 262 589 C224 558 192 521 165 478 C138 435 120 390 111 342 C102 294 103 249 113 206 C123 163 140 126 166 94 C192 62 223 37 262 19 C301 1 344 -8 392 -8 C440 -8 488 1 534 19 C580 37 622 62 660 94 C698 126 730 163 757 206 C784 249 801 294 810 342 L810 342 Z M376 750 L425 750 C426 763 428 774 433 784 C443 807 459 819 481 819 C494 819 505 814 511 806 C517 798 524 789 530 779 C536 769 545 759 555 751 C565 743 583 738 609 738 C635 738 656 745 672 758 C704 784 722 819 726 863 L677 863 C672 838 667 822 662 814 C658 808 653 802 646 799 C639 796 630 794 618 794 C606 794 597 799 591 807 C585 815 579 824 573 834 C567 844 557 854 547 862 C537 870 520 874 495 874 C470 874 450 868 434 855 C403 830 383 795 376 750 L376 750 Z " />
<glyph glyph-name="Odieresis" unicode="&#xd6;" horiz-adv-x="789" d="M740 342 C725 265 685 199 620 144 C555 89 483 62 406 62 C329 62 269 89 225 144 C181 199 166 265 181 342 C196 419 237 484 302 539 C367 594 438 621 515 621 C592 621 653 594 697 539 C741 484 755 419 740 342 L740 342 Z M810 342 C819 390 819 435 809 478 C799 521 782 558 756 589 C730 620 698 645 659 663 C620 681 576 691 528 691 C480 691 433 681 387 663 C341 645 300 620 262 589 C224 558 192 521 165 478 C138 435 120 390 111 342 C102 294 103 249 113 206 C123 163 140 126 166 94 C192 62 223 37 262 19 C301 1 344 -8 392 -8 C440 -8 488 1 534 19 C580 37 622 62 660 94 C698 126 730 163 757 206 C784 249 801 294 810 342 L810 342 Z M678 826 C671 835 661 839 648 839 C635 839 624 835 614 826 C604 817 597 806 595 794 C593 782 595 772 602 763 C609 754 618 750 631 750 C644 750 655 754 665 763 C675 772 682 782 684 794 C686 806 685 817 678 826 L678 826 Z M496 826 C489 835 479 839 466 839 C453 839 442 835 432 826 C422 817 415 806 413 794 C411 782 413 772 420 763 C427 754 436 750 449 750 C462 750 473 754 483 763 C493 772 500 782 502 794 C504 806 503 817 496 826 L496 826 Z " />
<glyph glyph-name="multiply" unicode="&#xd7;" horiz-adv-x="460" d="M386 106 L271 222 L386 338 L346 379 L230 263 L114 379 L74 338 L189 222 L74 106 L114 66 L230 182 L346 66 L386 106 Z " />
<glyph glyph-name="Oslash" unicode="&#xd8;" horiz-adv-x="789" d="M810 342 C819 390 819 435 809 478 C801 511 789 542 772 568 L823 610 L791 649 L740 607 C717 630 691 649 659 664 C620 682 576 691 528 691 C480 691 433 682 387 664 C341 646 300 620 262 589 C224 558 192 521 165 478 C138 435 120 390 111 342 C102 294 103 249 113 206 C121 172 133 141 151 114 L99 70 L130 31 L183 75 C205 52 231 34 262 20 C301 2 344 -8 392 -8 C440 -8 488 2 534 20 C580 38 622 63 660 95 C698 127 730 163 757 206 C784 249 801 294 810 342 L810 342 Z M242 125 L712 518 C744 468 753 409 740 342 C725 265 685 199 620 144 C555 89 483 62 406 62 C339 62 284 83 242 125 L242 125 Z M211 164 C178 215 168 274 181 342 C196 419 237 484 302 539 C367 594 438 621 515 621 C583 621 639 600 681 557 L211 164 Z " />
<glyph glyph-name="Ugrave" unicode="&#xd9;" horiz-adv-x="627" d="M611 225 L699 680 L629 680 L539 215 C534 188 524 164 510 145 C470 89 409 61 326 61 C273 61 232 73 204 97 C172 125 162 164 172 215 L262 680 L192 680 L104 225 C90 151 102 93 142 51 C180 11 236 -9 312 -9 C387 -9 452 11 505 51 C561 93 597 151 611 225 L611 225 Z M498 750 L436 893 L360 893 L442 750 L498 750 Z " />
<glyph glyph-name="Uacute" unicode="&#xda;" horiz-adv-x="627" d="M611 225 L699 680 L629 680 L539 215 C534 188 524 164 510 145 C470 89 409 61 326 61 C273 61 232 73 204 97 C172 125 162 164 172 215 L262 680 L192 680 L104 225 C90 151 102 93 142 51 C180 11 236 -9 312 -9 C387 -9 452 11 505 51 C561 93 597 151 611 225 L611 225 Z M630 893 L544 893 L436 750 L492 750 L630 893 Z " />
<glyph glyph-name="Ucircumflex" unicode="&#xdb;" horiz-adv-x="627" d="M611 225 L699 680 L629 680 L539 215 C534 188 524 164 510 145 C470 89 409 61 326 61 C273 61 232 73 204 97 C172 125 162 164 172 215 L262 680 L192 680 L104 225 C90 151 102 93 142 51 C180 11 236 -9 312 -9 C387 -9 452 11 505 51 C561 93 597 151 611 225 L611 225 Z M480 856 L532 750 L603 750 L521 893 L455 893 L317 750 L388 750 L480 856 Z " />
<glyph glyph-name="Udieresis" unicode="&#xdc;" horiz-adv-x="627" d="M611 225 L699 680 L629 680 L539 215 C534 188 524 164 510 145 C470 89 409 61 326 61 C273 61 232 73 204 97 C172 125 162 164 172 215 L262 680 L192 680 L104 225 C90 151 102 93 142 51 C180 11 236 -9 312 -9 C387 -9 452 11 505 51 C561 93 597 151 611 225 L611 225 Z M598 826 C591 835 581 839 568 839 C555 839 544 835 534 826 C524 817 517 807 515 795 C513 783 515 772 522 763 C529 754 538 750 551 750 C564 750 575 754 585 763 C595 772 602 783 604 795 C606 807 605 817 598 826 L598 826 Z M416 826 C409 835 399 839 386 839 C373 839 362 835 352 826 C342 817 335 807 333 795 C331 783 333 772 340 763 C347 754 356 750 369 750 C382 750 393 754 403 763 C413 772 420 783 422 795 C424 807 423 817 416 826 L416 826 Z " />
<glyph glyph-name="Yacute" unicode="&#xdd;" horiz-adv-x="605" d="M400 320 L727 680 L638 680 L379 389 L232 680 L142 680 L330 320 L268 0 L338 0 L400 320 Z M622 893 L536 893 L428 750 L484 750 L622 893 Z " />
<glyph glyph-name="Thorn" unicode="&#xde;" horiz-adv-x="529" d="M582 375 C594 435 582 484 547 523 C513 561 466 580 406 580 L258 580 L277 680 L207 680 L75 0 L145 0 L178 169 L326 169 C387 169 442 188 490 226 C540 266 570 316 582 375 L582 375 Z M245 513 L403 513 C444 513 474 500 494 475 C514 450 520 417 512 377 C504 337 485 303 454 276 C424 250 388 237 349 237 L191 237 L245 513 Z " />
<glyph glyph-name="germandbls" unicode="&#xdf;" horiz-adv-x="552" d="M235 0 L301 0 C358 0 412 19 462 58 C514 98 546 148 557 205 C566 250 559 287 538 317 C517 347 487 371 450 386 C479 399 504 417 525 440 C546 463 560 490 566 521 C576 571 565 612 533 644 C502 675 461 690 411 690 C336 690 278 667 237 620 C202 580 177 521 162 441 L76 0 L148 0 L229 416 C234 441 239 465 245 489 C251 513 260 534 272 553 C284 572 299 587 319 599 C339 611 365 617 397 617 C429 617 453 607 471 588 C490 567 497 542 491 512 C485 481 468 456 441 435 C416 416 388 406 356 406 L346 406 L334 344 L368 344 C407 344 438 331 461 307 C485 282 493 251 485 212 C477 172 456 137 422 109 C387 81 352 67 314 67 L245 67 L235 0 Z " />
<glyph glyph-name="agrave" unicode="&#xe0;" horiz-adv-x="570" d="M468 220 C460 177 437 140 401 108 C365 76 326 60 282 60 C238 60 204 76 180 108 C157 140 150 177 158 220 C166 263 188 300 224 332 C260 364 300 380 344 380 C388 380 421 364 445 332 C468 300 476 263 468 220 L468 220 Z M495 0 L581 440 L511 440 L496 365 C493 370 489 375 486 380 C454 427 407 450 346 450 C285 450 230 427 179 380 C130 335 100 281 88 220 C76 159 85 105 117 60 C149 13 196 -10 257 -10 C318 -10 373 13 424 60 C429 65 435 70 440 75 L425 0 L495 0 Z M404 517 L342 660 L266 660 L348 517 L404 517 Z " />
<glyph glyph-name="aacute" unicode="&#xe1;" horiz-adv-x="570" d="M468 220 C460 177 437 140 401 108 C365 76 326 60 282 60 C238 60 204 76 180 108 C157 140 150 177 158 220 C166 263 188 300 224 332 C260 364 300 380 344 380 C388 380 421 364 445 332 C468 300 476 263 468 220 L468 220 Z M495 0 L581 440 L511 440 L496 365 C493 370 489 375 486 380 C454 427 407 450 346 450 C285 450 230 427 179 380 C130 335 100 281 88 220 C76 159 85 105 117 60 C149 13 196 -10 257 -10 C318 -10 373 13 424 60 C429 65 435 70 440 75 L425 0 L495 0 Z M510 681 L424 681 L317 538 L373 538 L510 681 Z " />
<glyph glyph-name="acircumflex" unicode="&#xe2;" horiz-adv-x="570" d="M468 220 C460 177 437 140 401 108 C365 76 326 60 282 60 C238 60 204 76 180 108 C157 140 150 177 158 220 C166 263 188 300 224 332 C260 364 300 380 344 380 C388 380 421 364 445 332 C468 300 476 263 468 220 L468 220 Z M495 0 L581 440 L511 440 L496 365 C493 370 489 375 486 380 C454 427 407 450 346 450 C285 450 230 427 179 380 C130 335 100 281 88 220 C76 159 85 105 117 60 C149 13 196 -10 257 -10 C318 -10 373 13 424 60 C429 65 435 70 440 75 L425 0 L495 0 Z M386 623 L437 517 L508 517 L426 660 L360 660 L222 517 L293 517 L386 623 Z " />
<glyph glyph-name="atilde" unicode="&#xe3;" horiz-adv-x="570" d="M468 220 C460 177 437 140 401 108 C365 76 326 60 282 60 C238 60 204 76 180 108 C157 140 150 177 158 220 C166 263 188 300 224 332 C260 364 300 380 344 380 C388 380 421 364 445 332 C468 300 476 263 468 220 L468 220 Z M495 0 L581 440 L511 440 L496 365 C493 370 489 375 486 380 C454 427 407 450 346 450 C285 450 230 427 179 380 C130 335 100 281 88 220 C76 159 85 105 117 60 C149 13 196 -10 257 -10 C318 -10 373 13 424 60 C429 65 435 70 440 75 L425 0 L495 0 Z M206 518 L255 518 C256 531 258 542 263 552 C273 575 289 587 311 587 C324 587 335 583 341 575 C347 567 354 557 360 547 C366 537 375 527 385 519 C395 511 413 506 439 506 C465 506 486 513 502 526 C534 552 552 587 556 631 L507 631 C502 606 497 590 492 582 C488 576 483 570 476 567 C469 564 460 562 448 562 C436 562 427 567 421 575 C415 583 409 592 403 602 C397 612 387 622 377 630 C367 638 350 642 325 642 C300 642 280 636 264 623 C233 598 213 563 206 518 L206 518 Z " />
<glyph glyph-name="adieresis" unicode="&#xe4;" horiz-adv-x="570" d="M468 220 C460 177 437 140 401 108 C365 76 326 60 282 60 C238 60 204 76 180 108 C157 140 150 177 158 220 C166 263 188 300 224 332 C260 364 300 380 344 380 C388 380 421 364 445 332 C468 300 476 263 468 220 L468 220 Z M495 0 L581 440 L511 440 L496 365 C493 370 489 375 486 380 C454 427 407 450 346 450 C285 450 230 427 179 380 C130 335 100 281 88 220 C76 159 85 105 117 60 C149 13 196 -10 257 -10 C318 -10 373 13 424 60 C429 65 435 70 440 75 L425 0 L495 0 Z M494 593 C487 602 478 606 465 606 C452 606 441 602 431 593 C421 584 414 574 412 562 C410 550 412 539 419 530 C426 521 434 517 447 517 C460 517 472 521 482 530 C492 539 499 550 501 562 C503 574 501 584 494 593 L494 593 Z M312 593 C305 602 296 606 283 606 C270 606 259 602 249 593 C239 584 232 574 230 562 C228 550 230 539 237 530 C244 521 252 517 265 517 C278 517 290 521 300 530 C310 539 317 550 319 562 C321 574 319 584 312 593 L312 593 Z " />
<glyph glyph-name="aring" unicode="&#xe5;" horiz-adv-x="570" d="M468 220 C460 177 437 140 401 108 C365 76 326 60 282 60 C238 60 204 76 180 108 C157 140 150 177 158 220 C166 263 188 300 224 332 C260 364 300 380 344 380 C388 380 421 364 445 332 C468 300 476 263 468 220 L468 220 Z M495 0 L581 440 L511 440 L496 365 C493 370 489 375 486 380 C454 427 407 450 346 450 C285 450 230 427 179 380 C130 335 100 281 88 220 C76 159 85 105 117 60 C149 13 196 -10 257 -10 C318 -10 373 13 424 60 C429 65 435 70 440 75 L425 0 L495 0 Z M346 625 C356 633 367 637 379 637 C391 637 400 633 407 625 C414 617 416 608 414 597 C412 586 406 576 396 568 C386 560 376 556 364 556 C352 556 342 560 335 568 C328 576 326 586 328 597 C330 608 336 617 346 625 L346 625 Z M273 596 C268 569 273 547 289 529 C305 511 326 501 352 501 C379 501 404 510 426 528 C449 547 464 570 469 596 C474 623 469 647 453 665 C437 683 416 692 390 692 C364 692 339 683 316 664 C293 645 278 622 273 596 L273 596 Z " />
<glyph glyph-name="ae" unicode="&#xe6;" horiz-adv-x="867" d="M410 119 C382 100 351 85 317 74 C283 63 250 57 221 57 C192 57 170 64 155 76 C140 88 136 110 142 141 C148 172 170 197 207 214 L404 214 L403 213 C399 177 401 145 410 119 L410 119 Z M798 258 L486 258 C502 295 527 325 560 348 C593 371 629 382 667 382 C705 382 736 371 760 348 C784 325 796 295 798 258 L798 258 Z M430 74 C465 20 522 -7 600 -7 C640 -7 681 6 723 30 C765 54 800 87 827 129 L747 129 C728 108 705 92 680 80 C655 68 629 63 604 63 C566 63 535 75 509 100 C484 124 472 155 473 193 L860 193 L867 230 C879 291 866 343 828 387 C811 407 789 422 763 434 C737 446 708 452 676 452 C644 452 611 445 577 430 C543 415 513 395 486 368 C476 398 456 419 427 431 C398 443 367 450 332 450 C297 450 262 442 226 426 C190 410 160 384 138 347 L197 320 C211 343 230 360 254 371 C278 382 299 388 318 388 C337 388 352 386 365 382 C410 369 428 340 419 295 L414 270 L192 270 C161 258 135 240 113 216 C91 192 77 164 71 132 C62 88 69 54 92 28 C103 16 117 7 134 0 C151 -7 169 -10 189 -10 C209 -10 228 -8 250 -4 C321 10 381 37 430 74 L430 74 Z " />
<glyph glyph-name="ccedilla" unicode="&#xe7;" horiz-adv-x="521" d="M541 282 C537 332 518 372 485 402 C451 433 407 449 357 449 C294 449 237 426 184 381 C132 336 100 283 88 220 C76 158 87 104 121 58 C137 37 158 20 183 8 C200 -1 218 -5 237 -8 L176 -103 C190 -101 204 -99 220 -96 C236 -93 251 -93 265 -95 C301 -101 313 -121 300 -156 C293 -177 272 -190 236 -194 C201 -198 166 -192 131 -179 L96 -231 C139 -250 185 -256 232 -250 C283 -243 319 -221 341 -184 C362 -150 367 -119 356 -89 C351 -76 343 -65 332 -57 C321 -49 308 -45 292 -45 C276 -45 267 -45 266 -46 L291 -9 C308 -7 324 -4 339 1 C414 26 471 74 510 144 L431 144 C413 119 391 100 364 85 C337 70 310 63 282 63 C239 63 207 78 183 109 C159 140 152 177 160 220 C168 262 190 298 226 329 C242 343 261 355 281 363 C301 371 324 376 350 376 C376 376 400 367 422 350 C444 333 458 310 465 282 L541 282 Z " />
<glyph glyph-name="egrave" unicode="&#xe8;" horiz-adv-x="550" d="M550 230 C562 291 549 343 511 387 C474 430 425 452 363 452 C300 452 241 429 187 384 C133 339 100 285 88 222 C76 158 88 104 124 60 C141 39 163 23 188 11 C213 -1 245 -7 284 -7 C323 -7 364 6 406 30 C448 54 483 87 510 129 L430 129 C411 108 388 92 363 80 C338 68 312 63 287 63 C249 63 218 75 192 100 C167 124 155 155 156 193 L543 193 L550 230 Z M480 253 L168 253 C176 272 186 288 199 304 C242 356 292 382 349 382 C386 382 418 370 442 346 C467 321 479 290 480 253 L480 253 Z M414 517 L352 660 L276 660 L358 517 L414 517 Z " />
<glyph glyph-name="eacute" unicode="&#xe9;" horiz-adv-x="550" d="M550 230 C562 291 549 343 511 387 C474 430 425 452 363 452 C300 452 241 429 187 384 C133 339 100 285 88 222 C76 158 88 104 124 60 C141 39 163 23 188 11 C213 -1 245 -7 284 -7 C323 -7 364 6 406 30 C448 54 483 87 510 129 L430 129 C411 108 388 92 363 80 C338 68 312 63 287 63 C249 63 218 75 192 100 C167 124 155 155 156 193 L543 193 L550 230 Z M480 253 L168 253 C176 272 186 288 199 304 C242 356 292 382 349 382 C386 382 418 370 442 346 C467 321 479 290 480 253 L480 253 Z M540 681 L454 681 L347 538 L403 538 L540 681 Z " />
<glyph glyph-name="ecircumflex" unicode="&#xea;" horiz-adv-x="550" d="M550 230 C562 291 549 343 511 387 C474 430 425 452 363 452 C300 452 241 429 187 384 C133 339 100 285 88 222 C76 158 88 104 124 60 C141 39 163 23 188 11 C213 -1 245 -7 284 -7 C323 -7 364 6 406 30 C448 54 483 87 510 129 L430 129 C411 108 388 92 363 80 C338 68 312 63 287 63 C249 63 218 75 192 100 C167 124 155 155 156 193 L543 193 L550 230 Z M480 253 L168 253 C176 272 186 288 199 304 C242 356 292 382 349 382 C386 382 418 370 442 346 C467 321 479 290 480 253 L480 253 Z M396 623 L447 517 L518 517 L436 660 L370 660 L232 517 L303 517 L396 623 Z " />
<glyph glyph-name="edieresis" unicode="&#xeb;" horiz-adv-x="550" d="M550 230 C562 291 549 343 511 387 C474 430 425 452 363 452 C300 452 241 429 187 384 C133 339 100 285 88 222 C76 158 88 104 124 60 C141 39 163 23 188 11 C213 -1 245 -7 284 -7 C323 -7 364 6 406 30 C448 54 483 87 510 129 L430 129 C411 108 388 92 363 80 C338 68 312 63 287 63 C249 63 218 75 192 100 C167 124 155 155 156 193 L543 193 L550 230 Z M480 253 L168 253 C176 272 186 288 199 304 C242 356 292 382 349 382 C386 382 418 370 442 346 C467 321 479 290 480 253 L480 253 Z M514 593 C507 602 498 606 485 606 C472 606 461 602 451 593 C441 584 434 574 432 562 C430 550 432 539 439 530 C446 521 454 517 467 517 C480 517 492 521 502 530 C512 539 519 550 521 562 C523 574 521 584 514 593 L514 593 Z M332 593 C325 602 316 606 303 606 C290 606 279 602 269 593 C259 584 252 574 250 562 C248 550 250 539 257 530 C264 521 272 517 285 517 C298 517 310 521 320 530 C330 539 337 550 339 562 C341 574 339 584 332 593 L332 593 Z " />
<glyph glyph-name="igrave" unicode="&#xec;" horiz-adv-x="229" d="M150 0 L236 440 L166 440 L80 0 L150 0 Z M244 517 L182 660 L106 660 L188 517 L244 517 Z " />
<glyph glyph-name="iacute" unicode="&#xed;" horiz-adv-x="229" d="M150 0 L236 440 L166 440 L80 0 L150 0 Z M397 681 L311 681 L204 538 L260 538 L397 681 Z " />
<glyph glyph-name="icircumflex" unicode="&#xee;" horiz-adv-x="229" d="M150 0 L236 440 L166 440 L80 0 L150 0 Z M236 623 L287 517 L358 517 L276 660 L210 660 L72 517 L143 517 L236 623 Z " />
<glyph glyph-name="idieresis" unicode="&#xef;" horiz-adv-x="229" d="M150 0 L236 440 L166 440 L80 0 L150 0 Z M354 593 C347 602 338 606 325 606 C312 606 301 602 291 593 C281 584 274 574 272 562 C270 550 272 539 279 530 C286 521 294 517 307 517 C320 517 332 521 342 530 C352 539 359 550 361 562 C363 574 361 584 354 593 L354 593 Z M172 593 C165 602 156 606 143 606 C130 606 119 602 109 593 C99 584 92 574 90 562 C88 550 90 539 97 530 C104 521 112 517 125 517 C138 517 150 521 160 530 C170 539 177 550 179 562 C181 574 179 584 172 593 L172 593 Z " />
<glyph glyph-name="eth" unicode="&#xf0;" horiz-adv-x="570" d="M495 0 L601 546 L666 546 L677 603 L612 603 L641 750 L571 750 L542 603 L342 603 L331 546 L531 546 L496 365 C493 370 489 375 486 380 C454 427 407 450 346 450 C285 450 230 427 179 380 C130 335 100 281 88 220 C76 159 85 105 117 60 C149 13 196 -10 257 -10 C318 -10 373 13 424 60 C429 65 435 70 440 75 L425 0 L495 0 Z M468 220 C460 177 437 140 401 108 C365 76 326 60 282 60 C238 60 204 76 180 108 C157 140 150 177 158 220 C166 263 188 300 224 332 C260 364 300 380 344 380 C388 380 421 364 445 332 C468 300 476 263 468 220 L468 220 Z " />
<glyph glyph-name="ntilde" unicode="&#xf1;" horiz-adv-x="509" d="M379 0 L449 0 L502 275 C512 326 507 367 486 398 C476 414 463 427 445 436 C427 445 402 449 371 449 C340 449 311 440 284 424 C258 409 235 389 216 364 L231 440 L161 440 L75 0 L145 0 L181 184 C192 240 211 285 238 318 C253 336 271 351 292 362 C313 373 339 379 369 379 C399 379 418 368 427 348 C436 328 438 304 432 275 L379 0 Z M191 518 L240 518 C241 531 243 542 248 552 C258 575 274 587 296 587 C309 587 320 582 326 574 C332 566 339 556 345 546 C351 536 360 527 370 519 C380 511 398 506 424 506 C450 506 471 513 487 526 C519 552 537 587 541 631 L492 631 C487 606 482 590 477 582 C473 576 468 570 461 567 C454 564 445 562 433 562 C421 562 412 567 406 575 C400 583 394 592 388 602 C382 612 372 622 362 630 C352 638 335 642 310 642 C285 642 265 636 249 623 C218 598 198 563 191 518 L191 518 Z " />
<glyph glyph-name="ograve" unicode="&#xf2;" horiz-adv-x="550" d="M478 222 C470 179 446 141 409 110 C372 79 331 63 287 63 C243 63 208 79 183 110 C158 141 150 179 158 222 C167 266 190 304 227 335 C264 366 305 382 349 382 C393 382 428 366 453 335 C478 304 487 266 478 222 L478 222 Z M548 222 C560 285 548 339 512 384 C476 429 426 452 363 452 C300 452 241 429 187 384 C133 339 100 285 88 222 C76 158 88 104 124 60 C161 15 211 -7 274 -7 C337 -7 395 15 449 60 C503 104 536 158 548 222 L548 222 Z M413 517 L351 660 L275 660 L357 517 L413 517 Z " />
<glyph glyph-name="oacute" unicode="&#xf3;" horiz-adv-x="550" d="M478 222 C470 179 446 141 409 110 C372 79 331 63 287 63 C243 63 208 79 183 110 C158 141 150 179 158 222 C167 266 190 304 227 335 C264 366 305 382 349 382 C393 382 428 366 453 335 C478 304 487 266 478 222 L478 222 Z M548 222 C560 285 548 339 512 384 C476 429 426 452 363 452 C300 452 241 429 187 384 C133 339 100 285 88 222 C76 158 88 104 124 60 C161 15 211 -7 274 -7 C337 -7 395 15 449 60 C503 104 536 158 548 222 L548 222 Z M550 681 L464 681 L357 538 L413 538 L550 681 Z " />
<glyph glyph-name="ocircumflex" unicode="&#xf4;" horiz-adv-x="550" d="M478 222 C470 179 446 141 409 110 C372 79 331 63 287 63 C243 63 208 79 183 110 C158 141 150 179 158 222 C167 266 190 304 227 335 C264 366 305 382 349 382 C393 382 428 366 453 335 C478 304 487 266 478 222 L478 222 Z M548 222 C560 285 548 339 512 384 C476 429 426 452 363 452 C300 452 241 429 187 384 C133 339 100 285 88 222 C76 158 88 104 124 60 C161 15 211 -7 274 -7 C337 -7 395 15 449 60 C503 104 536 158 548 222 L548 222 Z M396 623 L447 517 L518 517 L436 660 L370 660 L232 517 L303 517 L396 623 Z " />
<glyph glyph-name="otilde" unicode="&#xf5;" horiz-adv-x="550" d="M478 222 C470 179 446 141 409 110 C372 79 331 63 287 63 C243 63 208 79 183 110 C158 141 150 179 158 222 C167 266 190 304 227 335 C264 366 305 382 349 382 C393 382 428 366 453 335 C478 304 487 266 478 222 L478 222 Z M548 222 C560 285 548 339 512 384 C476 429 426 452 363 452 C300 452 241 429 187 384 C133 339 100 285 88 222 C76 158 88 104 124 60 C161 15 211 -7 274 -7 C337 -7 395 15 449 60 C503 104 536 158 548 222 L548 222 Z M211 518 L260 518 C261 531 263 542 268 552 C278 575 294 587 316 587 C329 587 340 582 346 574 C352 566 359 557 365 547 C371 537 380 527 390 519 C400 511 418 506 444 506 C470 506 491 513 507 526 C539 552 557 587 561 631 L512 631 C507 606 502 590 497 582 C493 576 488 570 481 567 C474 564 465 562 453 562 C441 562 432 567 426 575 C420 583 414 592 408 602 C402 612 392 622 382 630 C372 638 355 642 330 642 C305 642 285 636 269 623 C238 598 218 563 211 518 L211 518 Z " />
<glyph glyph-name="odieresis" unicode="&#xf6;" horiz-adv-x="550" d="M478 222 C470 179 446 141 409 110 C372 79 331 63 287 63 C243 63 208 79 183 110 C158 141 150 179 158 222 C167 266 190 304 227 335 C264 366 305 382 349 382 C393 382 428 366 453 335 C478 304 487 266 478 222 L478 222 Z M548 222 C560 285 548 339 512 384 C476 429 426 452 363 452 C300 452 241 429 187 384 C133 339 100 285 88 222 C76 158 88 104 124 60 C161 15 211 -7 274 -7 C337 -7 395 15 449 60 C503 104 536 158 548 222 L548 222 Z M514 593 C507 602 498 606 485 606 C472 606 461 602 451 593 C441 584 434 574 432 562 C430 550 432 539 439 530 C446 521 454 517 467 517 C480 517 492 521 502 530 C512 539 519 550 521 562 C523 574 521 584 514 593 L514 593 Z M332 593 C325 602 316 606 303 606 C290 606 279 602 269 593 C259 584 252 574 250 562 C248 550 250 539 257 530 C264 521 272 517 285 517 C298 517 310 521 320 530 C330 539 337 550 339 562 C341 574 339 584 332 593 L332 593 Z " />
<glyph glyph-name="divide" unicode="&#xf7;" horiz-adv-x="410" d="M268 57 C268 72.333 262.5 85.5 251.5 96.5 C240.5 107.5 227.333 113 212 113 C196.667 113 183.667 107.5 173 96.5 C162.333 85.5 157 72.333 157 57 C157 41.667 162.333 28.667 173 18 C183.667 7.33301 196.667 2 212 2 C227.333 2 240.5 7.33301 251.5 18 C262.5 28.667 268 41.667 268 57 L268 57 Z M373 194 L373 251 L38 251 L38 194 L373 194 Z M268 381 C268 396.333 262.5 409.5 251.5 420.5 C240.5 431.5 227.333 437 212 437 C196.667 437 183.667 431.5 173 420.5 C162.333 409.5 157 396.333 157 381 C157 365.667 162.333 352.667 173 342 C183.667 331.333 196.667 326 212 326 C227.333 326 240.5 331.333 251.5 342 C262.5 352.667 268 365.667 268 381 L268 381 Z " />
<glyph glyph-name="oslash" unicode="&#xf8;" horiz-adv-x="550" d="M548 222 C558 276 551 322 527 363 L586 413 L555 452 L496 402 C462 435 417 452 363 452 C300 452 241 429 187 384 C133 339 100 285 88 222 C77 167 85 119 110 79 L48 27 L80 -12 L142 41 C176 9 221 -7 274 -7 C337 -7 395 15 449 60 C503 104 536 158 548 222 L548 222 Z M202 91 L467 313 C481 286 485 256 478 222 C470 179 446 141 409 110 C372 79 331 63 287 63 C253 63 225 72 202 91 L202 91 Z M170 129 C155 156 151 187 158 222 C167 266 190 304 227 335 C264 366 305 382 349 382 C384 382 413 372 436 352 L170 129 Z " />
<glyph glyph-name="ugrave" unicode="&#xf9;" horiz-adv-x="509" d="M394 75 L379 0 L449 0 L535 440 L465 440 L429 256 C417 195 396 147 367 113 C338 79 296 61 241 61 C211 61 191 72 182 92 C173 112 171 136 177 165 L231 440 L161 440 L107 165 C97 114 103 72 124 40 C145 8 181 -9 230 -9 C295 -9 350 19 394 75 L394 75 Z M393 517 L331 660 L255 660 L337 517 L393 517 Z " />
<glyph glyph-name="uacute" unicode="&#xfa;" horiz-adv-x="509" d="M394 75 L379 0 L449 0 L535 440 L465 440 L429 256 C417 195 396 147 367 113 C338 79 296 61 241 61 C211 61 191 72 182 92 C173 112 171 136 177 165 L231 440 L161 440 L107 165 C97 114 103 72 124 40 C145 8 181 -9 230 -9 C295 -9 350 19 394 75 L394 75 Z M537 681 L451 681 L344 538 L400 538 L537 681 Z " />
<glyph glyph-name="ucircumflex" unicode="&#xfb;" horiz-adv-x="509" d="M394 75 L379 0 L449 0 L535 440 L465 440 L429 256 C417 195 396 147 367 113 C338 79 296 61 241 61 C211 61 191 72 182 92 C173 112 171 136 177 165 L231 440 L161 440 L107 165 C97 114 103 72 124 40 C145 8 181 -9 230 -9 C295 -9 350 19 394 75 L394 75 Z M376 623 L427 517 L498 517 L416 660 L350 660 L212 517 L283 517 L376 623 Z " />
<glyph glyph-name="udieresis" unicode="&#xfc;" horiz-adv-x="509" d="M394 75 L379 0 L449 0 L535 440 L465 440 L429 256 C417 195 396 147 367 113 C338 79 296 61 241 61 C211 61 191 72 182 92 C173 112 171 136 177 165 L231 440 L161 440 L107 165 C97 114 103 72 124 40 C145 8 181 -9 230 -9 C295 -9 350 19 394 75 L394 75 Z M494 593 C487 602 478 606 465 606 C452 606 441 602 431 593 C421 584 414 574 412 562 C410 550 412 539 419 530 C426 521 434 517 447 517 C460 517 472 521 482 530 C492 539 499 550 501 562 C503 574 501 584 494 593 L494 593 Z M312 593 C305 602 296 606 283 606 C270 606 259 602 249 593 C239 584 232 574 230 562 C228 550 230 539 237 530 C244 521 252 517 265 517 C278 517 290 521 300 530 C310 539 317 550 319 562 C321 574 319 584 312 593 L312 593 Z " />
<glyph glyph-name="yacute" unicode="&#xfd;" horiz-adv-x="425" d="M82 -250 L521 440 L443 440 L259 145 L176 440 L96 440 L208 72 L-3 -250 L82 -250 Z M500 681 L414 681 L307 538 L363 538 L500 681 Z " />
<glyph glyph-name="thorn" unicode="&#xfe;" horiz-adv-x="570" d="M96 -250 L160 75 L169 60 C203 13 250 -10 309 -10 C370 -10 425 13 476 60 C525 105 556 159 568 220 C580 281 570 335 538 380 C505 427 459 450 398 450 C337 450 282 427 231 380 L216 365 L291 750 L221 750 L26 -250 L96 -250 Z M498 220 C490 177 467 140 431 108 C395 76 356 60 312 60 C268 60 234 76 210 108 C187 140 180 177 188 220 C196 263 218 300 254 332 C290 364 330 380 374 380 C418 380 451 364 475 332 C498 300 506 263 498 220 L498 220 Z " />
<glyph glyph-name="ydieresis" unicode="&#xff;" horiz-adv-x="425" d="M82 -250 L521 440 L443 440 L259 145 L176 440 L96 440 L208 72 L-3 -250 L82 -250 Z M452 593 C445 602 436 606 423 606 C410 606 399 602 389 593 C379 584 372 574 370 562 C368 550 370 539 377 530 C384 521 392 517 405 517 C418 517 430 521 440 530 C450 539 457 550 459 562 C461 574 459 584 452 593 L452 593 Z M270 593 C263 602 254 606 241 606 C228 606 217 602 207 593 C197 584 190 574 188 562 C186 550 188 539 195 530 C202 521 210 517 223 517 C236 517 248 521 258 530 C268 539 275 550 277 562 C279 574 277 584 270 593 L270 593 Z " />
<glyph glyph-name="dotlessi" unicode="&#x131;" horiz-adv-x="229" d="M150 0 L236 440 L166 440 L80 0 L150 0 Z " />
<glyph glyph-name="OE" unicode="&#x152;" horiz-adv-x="998" d="M209 340 C224 418 264 482 329 534 C392 585 463 610 542 610 L652 610 L547 70 L437 70 C358 70 297 95 253 146 C208 198 194 262 209 340 L209 340 Z M141 340 C131 291 132 246 142 204 C152 162 170 126 196 96 C222 66 254 43 293 26 C332 9 376 0 425 0 L603 0 L937 0 L950 65 L616 65 L663 307 L987 307 L1000 373 L676 373 L723 615 L1057 615 L1069 680 L557 680 C508 680 461 672 415 655 C369 638 328 614 291 584 C254 554 221 519 195 477 C169 435 151 389 141 340 L141 340 Z " />
<glyph glyph-name="oe" unicode="&#x153;" horiz-adv-x="939" d="M478 222 C470 179 446 141 409 110 C372 79 331 63 287 63 C243 63 208 79 183 110 C158 141 150 179 158 222 C167 266 190 304 227 335 C264 366 305 382 349 382 C393 382 428 366 453 335 C478 304 487 266 478 222 L478 222 Z M871 258 L559 258 C574 295 599 325 633 348 C667 371 702 382 739 382 C777 382 808 371 832 348 C856 325 869 295 871 258 L871 258 Z M489 100 C504 66 527 40 558 21 C589 2 625 -7 668 -7 C711 -7 753 6 796 30 C839 54 873 87 900 129 L820 129 C801 108 778 92 753 80 C728 68 702 63 677 63 C639 63 607 75 581 100 C556 124 544 155 545 193 L932 193 L939 230 C951 291 938 344 901 387 C884 407 862 422 836 434 C810 446 780 452 745 452 C710 452 674 443 636 424 C598 405 565 379 537 345 C522 378 500 404 469 423 C438 442 403 452 363 452 C300 452 241 429 187 384 C133 339 100 285 88 222 C76 158 88 104 124 60 C141 39 163 23 188 11 C213 -1 244 -7 280 -7 C316 -7 353 2 391 21 C429 40 461 67 489 100 L489 100 Z " />
<glyph glyph-name="circumflex" unicode="&#x2c6;" horiz-adv-x="306" d="M153 856 L225 750 L296 750 L186 893 L120 893 L10 750 L81 750 L153 856 Z " />
<glyph glyph-name="caron" unicode="&#x2c7;" horiz-adv-x="1060" d="" />
<glyph glyph-name="ring" unicode="&#x2da;" horiz-adv-x="267" d="M102.5 804 C110.833 812 121 816 133 816 C145 816 155.167 812 163.5 804 C171.833 796 176 786.5 176 775.5 C176 764.5 172 755 164 747 C156 739 145.833 735 133.5 735 C121.167 735 110.834 739 102.501 747 C94.168 755 90.001 764.5 90.001 775.5 C90.001 786.5 94.167 796 102.5 804 L102.5 804 Z M35.001 775 C35.001 748.21 44.834 725.71 64.501 707.5 C84.3008 689.167 107.134 680 133 680 C159.975 680 182.808 689 201.5 707 C221.167 725.938 231 748.605 231 775.001 C231 802.458 221.167 825.291 201.5 843.501 C181.7 861.834 158.867 871.001 133.001 871.001 C106.719 871.001 83.8857 861.668 64.501 843.001 C44.834 824.062 35.001 801.396 35.001 775 L35.001 775 Z " />
<glyph glyph-name="tilde" unicode="&#x2dc;" horiz-adv-x="419" d="M187 730 L236 730 C237 743 240 754 245 764 C255 787 270 799 292 799 C305 799 316 794 322 786 C328 778 335 769 341 759 C347 749 356 739 366 731 C376 723 394 718 420 718 C446 718 467 725 483 738 C515 764 533 799 537 843 L488 843 C483 818 478 802 473 794 C469 788 464 782 457 779 C450 776 441 774 429 774 C417 774 408 779 402 787 C396 795 390 804 384 814 C378 824 369 834 359 842 C349 850 331 854 306 854 C281 854 261 848 245 835 C214 810 194 775 187 730 L187 730 Z " />
<glyph glyph-name="endash" unicode="&#x2013;" horiz-adv-x="390" d="M403 180 L414 238 L69 238 L58 180 L403 180 Z " />
<glyph glyph-name="emdash" unicode="&#x2014;" horiz-adv-x="689" d="M702 180 L713 238 L69 238 L58 180 L702 180 Z " />
<glyph glyph-name="quoteleft" unicode="&#x2018;" horiz-adv-x="204" d="M120 491 L216 491 L325 750 L283 750 L120 491 Z " />
<glyph glyph-name="quoteright" unicode="&#x2019;" horiz-adv-x="204" d="M325 750 L229 750 L120 491 L162 491 L325 750 Z " />
<glyph glyph-name="quotedblleft" unicode="&#x201c;" horiz-adv-x="361" d="M277 491 L373 491 L482 750 L440 750 L277 491 Z M120 491 L216 491 L325 750 L283 750 L120 491 Z " />
<glyph glyph-name="quotedblright" unicode="&#x201d;" horiz-adv-x="361" d="M325 750 L229 750 L120 491 L162 491 L325 750 Z M482 750 L386 750 L277 491 L319 491 L482 750 Z " />
<glyph glyph-name="bullet" unicode="&#x2022;" horiz-adv-x="300" d="M264 342 C264 373.333 252.833 400.166 230.5 422.499 C208.167 444.832 181.334 455.999 150.001 455.999 C118.668 455.999 91.835 444.832 69.502 422.499 C47.1689 400.166 36.002 373.333 36.002 342 C36.002 310.667 47.1689 283.834 69.502 261.501 C91.835 239.168 118.668 228.001 150.001 228.001 C181.334 228.001 208.167 239.168 230.5 261.501 C252.833 283.834 264 310.667 264 342 L264 342 Z " />
<glyph glyph-name="ellipsis" unicode="&#x2026;" horiz-adv-x="667" d="M133 -10 C148.333 -10 162 -4.5 174 6.5 C186 17.5 192 30.833 192 46.5 C192 62.167 186.167 75.5 174.5 86.5 C162.833 97.5 149 103 133 103 C117 103 103.333 97.333 92 86 C80.667 74.667 75 61.334 75 46.001 C75 30.668 80.833 17.501 92.5 6.50098 C104.167 -4.49902 117.667 -10 133 -10 L133 -10 Z M333 -9.99902 C348.333 -9.99902 362 -4.49902 374 6.50098 C386 17.501 392 30.834 392 46.501 C392 62.168 386.167 75.501 374.5 86.501 C362.833 97.501 349 103.001 333 103.001 C317 103.001 303.333 97.334 292 86.001 C280.667 74.668 275 61.335 275 46.002 C275 30.6689 280.833 17.502 292.5 6.50195 C304.167 -4.49805 317.667 -9.99902 333 -9.99902 L333 -9.99902 Z M533 -9.99805 C548.333 -9.99805 562 -4.49805 574 6.50195 C586 17.502 592 30.835 592 46.502 C592 62.1689 586.167 75.502 574.5 86.502 C562.833 97.502 549 103.002 533 103.002 C517 103.002 503.333 97.335 492 86.002 C480.667 74.6689 475 61.3359 475 46.0029 C475 30.6699 480.833 17.5029 492.5 6.50293 C504.167 -4.49707 517.667 -9.99805 533 -9.99805 L533 -9.99805 Z " />
<glyph glyph-name="fraction" unicode="&#x2044;" horiz-adv-x="444" d="M531 679 L463 679 L45 0 L112 0 L531 679 Z " />
<glyph glyph-name="trademark" unicode="&#x2122;" horiz-adv-x="779" d="M289 631.999 L289 679.999 L24 679.999 L24 631.999 L128 631.999 L128 337.999 L184 337.999 L184 631.999 L289 631.999 Z M755 337.999 L688 679.999 L612 679.999 L526 400.999 L440 679.999 L364 679.999 L297 337.999 L361 337.999 L411 624.999 L496 337.999 L556 337.999 L640 624.999 L691 337.999 L755 337.999 Z " />
<glyph glyph-name="minus" unicode="&#x2212;" horiz-adv-x="360" d="M361 193 L372 250 L87 250 L76 193 L361 193 Z " />
<glyph glyph-name="apple" unicode="&#xf8ff;" horiz-adv-x="926" d="M284 247 L284 509 C284 514.333 282.333 518.666 279 521.999 C275.667 525.332 271.5 526.999 266.5 526.999 C261.5 526.999 257.333 525.332 254 521.999 C250.667 518.666 249 514.333 249 509 L249 247 C249 241.667 250.667 237.5 254 234.5 C257.333 231.5 261.333 230 266 230 C278 230 284 235.667 284 247 L284 247 Z M397 395 L332 395 C320.667 395 315 389.333 315 378 C315 366.667 320.667 361 332 361 L397 361 C409 361 415 366.667 415 378 C415 389.333 409 395 397 395 L397 395 Z M463 527 C451.667 527 446 521 446 509 L446 247 C446 235.667 451.667 230 463 230 C474.333 230 480 235.667 480 247 L480 509 C480 521 474.333 527 463 527 L463 527 Z M663 526 L661 526 C654.833 526 650.5 524.333 648 521 L516 390 C512.667 386.667 511 382.667 511 378 C511 373.333 512.667 369.333 516 366 L648 235 C651.333 231.667 655.333 230 660 230 C664.667 230 668.667 231.667 672 235 C675.333 238.333 677 242.333 677 247 C677 251.667 675.333 255.667 672 259 L553 378 L672 497 C675.333 500.333 677 504.333 677 509 C677 513.667 674.333 518.667 669 524 L663 526 Z M806 378 C806 330.667 797 286.167 779 244.5 C761 202.833 736.5 166.5 705.5 135.5 C674.5 104.5 638.167 80 596.5 62 C554.833 44 510.333 35 463 35 C415.667 35 371.167 44 329.5 62 C287.833 80 251.5 104.5 220.5 135.5 C189.5 166.5 165 202.833 147 244.5 C129 286.167 120 330.667 120 378 C120 425.333 129 469.833 147 511.5 C165 553.167 189.5 589.5 220.5 620.5 C251.5 651.5 287.833 676 329.5 694 C371.167 712 415.667 721 463 721 C510.333 721 554.833 712 596.5 694 C638.167 676 674.5 651.5 705.5 620.5 C736.5 589.5 761 553.167 779 511.5 C797 469.833 806 425.333 806 378 L806 378 Z M841 378 C841 430 831.167 479 811.5 525 C791.833 571 764.833 611.167 730.5 645.5 C696.167 679.833 656 706.833 610 726.5 C564 746.167 515 756 463 756 C411 756 362 746.167 316 726.5 C270 706.833 229.833 679.833 195.5 645.5 C161.167 611.167 134.167 571 114.5 525 C94.833 479 85 430 85 378 C85 326 94.833 277 114.5 231 C134.167 185 161.167 144.833 195.5 110.5 C229.833 76.167 270 49.167 316 29.5 C362 9.83301 411 0 463 0 C515 0 564 9.83301 610 29.5 C656 49.167 696.167 76.167 730.5 110.5 C764.833 144.833 791.833 185 811.5 231 C831.167 277 841 326 841 378 L841 378 Z " />
</font>
</svg>
