<!-- Generator: Adobe Illustrator 22.1.0, SVG Export Plug-In  -->
<svg version="1.1"
	 xmlns="http://www.w3.org/2000/svg" xmlns:xlink="http://www.w3.org/1999/xlink" xmlns:a="http://ns.adobe.com/AdobeSVGViewerExtensions/3.0/"
	 x="0px" y="0px" width="28.9px" height="32px" viewBox="0 0 28.9 32" style="enable-background:new 0 0 28.9 32;"
	 xml:space="preserve">
<style type="text/css">
	.st0{fill:#FFFFFF;}
</style>
<defs>
</defs>
<g>
	<g>
		<g>
			<path class="st0" d="M20.5,13.8c0-0.7-0.6-1.2-1.3-1.2h-13c-0.7,0-1.3,0.6-1.3,1.2S5.6,15,6.3,15h13C20,15,20.5,14.4,20.5,13.8z"
				/>
			<path class="st0" d="M6.3,17.5c-0.7,0-1.3,0.6-1.3,1.2S5.6,20,6.3,20h7.9c0.7,0,1.3-0.6,1.3-1.2s-0.6-1.2-1.3-1.2H6.3z"/>
			<path class="st0" d="M9.3,29.5H5c-1.4,0-2.5-1.1-2.5-2.5V5c0-1.4,1.1-2.5,2.5-2.5h15.5C21.9,2.5,23,3.6,23,5v7.7
				c0,0.7,0.6,1.2,1.3,1.2s1.3-0.6,1.3-1.2V5c0-2.8-2.3-5-5-5H5C2.3,0,0,2.2,0,5v22c0,2.8,2.3,5,5,5h4.2c0.7,0,1.3-0.6,1.3-1.2
				S9.9,29.5,9.3,29.5z"/>
			<path class="st0" d="M27.8,18.1c-1.5-1.5-3.9-1.5-5.3,0l-6.9,6.8c-0.1,0.1-0.3,0.3-0.3,0.5l-1.5,4.9c-0.1,0.4,0,0.9,0.3,1.2
				c0.2,0.2,0.6,0.4,0.9,0.4c0.1,0,0.2,0,0.3,0l5.1-1.4c0.2-0.1,0.4-0.2,0.6-0.3l6.9-6.8C29.3,21.9,29.3,19.6,27.8,18.1z M19.3,28.2
				l-2.6,0.7l0.7-2.4l4.7-4.6l1.8,1.8L19.3,28.2z M26,21.6l-0.2,0.2L24,20.1l0.2-0.2c0.5-0.5,1.3-0.5,1.8,0
				C26.5,20.4,26.5,21.1,26,21.6z"/>
			<path class="st0" d="M19.3,7.5h-13C5.6,7.5,5,8.1,5,8.8S5.6,10,6.3,10h13c0.7,0,1.3-0.6,1.3-1.2S20,7.5,19.3,7.5z"/>
		</g>
	</g>
</g>
</svg>