<svg version="1.1"
	 xmlns="http://www.w3.org/2000/svg" xmlns:xlink="http://www.w3.org/1999/xlink" xmlns:a="http://ns.adobe.com/AdobeSVGViewerExtensions/3.0/"
	 x="0px" y="0px" width="64px" height="64px" viewBox="0 0 64 64" style="enable-background:new 0 0 64 64;" xml:space="preserve">
<style type="text/css">
	.st0{fill:#C2A01E;}
</style>
<defs>
</defs>
<g>
	<path class="st0" d="M29.9,4.5V7c0,0.5-0.4,1-1,1c-0.5,0-1-0.4-1-1V4.5h-2L26,7c0,1.6,1.3,3,3,3c1.6,0,3-1.3,3-3V4.5H29.9L29.9,4.5
		z"/>
	<path class="st0" d="M26,4.5V7c0,0.5-0.4,1-1,1c-0.5,0-1-0.4-1-1V4.5h-2L22,7c0,1.6,1.3,3,3,3c1.6,0,3-1.3,3-3V4.5H26L26,4.5z"/>
	<path class="st0" d="M30.9,14c0-1.1,0.9-2,2-2h5v-2h-3c-1.7,0-3-1.3-3-3h-1v1h2l6.3,0l0.1,0.3c0.3,0.8,0.4,1.7,0.4,2.5
		c0,1-0.2,2-0.7,2.9c-0.2,0.4-0.4,0.7-0.7,1.1l0,0l-2.8,3.7l0.8,0.6l-0.7-0.7c-0.3,0.3-0.4,0.6-0.6,0.9c-0.1,0.3-0.2,0.6-0.2,1V22h2
		l0-1.7c0,0,0-0.1,0.1-0.2c0-0.1,0.1-0.2,0.1-0.2l0.1-0.1L40,16l-0.8-0.6L40,16c0.3-0.4,0.6-0.9,0.9-1.4c0.6-1.2,0.9-2.5,0.9-3.8
		c0-1.1-0.2-2.2-0.5-3.2L40.7,6h-7.7h-3v1c0,2.8,2.2,5,5,5h3v-2h-5c-2.2,0-4,1.8-4,4H30.9L30.9,14z"/>
	<polyline class="st0" points="48,62 46,62 46,64 48,64 	"/>
	<polyline class="st0" points="52,62 50,62 50,64 52,64 	"/>
	<polyline class="st0" points="56,62 54,62 54,64 56,64 	"/>
	<polyline class="st0" points="14,62 12,62 12,64 14,64 	"/>
	<polyline class="st0" points="18,62 16,62 16,64 18,64 	"/>
	<path class="st0" d="M26,61c0-1.5,0-15,0-26.2c0-4.1,0-7.8,0-10.5c0-1.4,0-2.5,0-3.3c0-0.4,0-0.7,0-0.9c0-0.1,0-0.2,0-0.2l0-0.1
		l0,0l0,0l0-0.1l0-0.1l0-0.2C24.7,16.1,24,12.6,24,9V6.2h-2v1h2V4.5c0-0.3,0.1-0.5,0.3-0.7c0.2-0.2,0.3-0.3,0.6-0.3l0,0l0.2,0
		c0.5,0,1,0.4,1,1v1.3h1l1,0l0-2.5l-1,0h1c0-0.3,0.1-0.5,0.3-0.7c0.2-0.2,0.4-0.3,0.6-0.3l0.1,0c0.3,0,0.5,0.1,0.7,0.3
		c0.2,0.2,0.3,0.4,0.3,0.6v0l0,0c0,0.1,0,2.8,0,2.8h2V3.2c0-0.2,0.1-0.5,0.2-0.7c0.1-0.2,0.3-0.3,0.4-0.4l0,0c0.1,0,0.2-0.1,0.4-0.1
		c0.3,0,0.5,0.1,0.7,0.3c0.2,0.2,0.3,0.4,0.3,0.7v0.6V7h2V3.2c0-0.2,0.1-0.5,0.3-0.7c0.2-0.2,0.4-0.4,0.5-0.4l0,0c0.1,0,0.2,0,0.3,0
		c0.3,0,0.5,0.1,0.6,0.3c0.2,0.2,0.3,0.4,0.3,0.7v4h2l0-4c0-0.8-0.3-1.5-0.8-2.1C38.6,0.4,37.9,0,37.1,0c-0.3,0-0.6,0-0.8,0.1l0,0
		c-0.7,0.2-1.3,0.7-1.6,1.2c-0.4,0.5-0.6,1.2-0.6,1.9V7h2V3.7V3.1c0-1.7-1.4-3-3-3c-0.3,0-0.7,0.1-1,0.2l0,0
		c-0.6,0.2-1.1,0.7-1.5,1.2c-0.3,0.5-0.5,1.1-0.5,1.7v2.6h2c0,0,0-2.7,0-2.8l0,0c0-0.8-0.4-1.6-0.9-2c-0.6-0.5-1.3-0.8-2.1-0.8
		c-0.1,0-0.2,0-0.3,0c-0.8,0.1-1.5,0.5-2,1c-0.5,0.6-0.8,1.3-0.8,2v0l0,2.5l2,0V4.4c0-0.8-0.3-1.6-0.9-2.1c-0.5-0.5-1.3-0.9-2.1-0.9
		c-0.2,0-0.3,0-0.5,0l0,0c-0.8,0.1-1.4,0.5-1.8,1.1c-0.4,0.6-0.7,1.2-0.7,2v2.7h2v-1h-2V9c0,3.8,0.7,7.6,2.1,11.1l0.9-0.4L24,20
		l0,0.2l0.9-0.4L24,20l1-0.2l-1,0.1c0,0,0,0,0,0.1l1-0.2l-1,0.1l0.7,0l-0.7,0l0,0l0.7,0l-0.7,0c0,0,0,0.2,0,0.4c0,1.6,0,7.6,0,14.6
		C24,46,24,59.5,24,61L26,61L26,61z"/>
	<polygon class="st0" points="28,25 38,25 38,27 38,61 40,61 40,27 40,23 28,23 28,25 	"/>
	<polyline class="st0" points="20,64 44,64 44,62 20,62 	"/>
	<polyline class="st0" points="10,62 8,62 8,64 10,64 	"/>
	<polyline class="st0" points="28,29 30,29 30,27 28,27 	"/>
	<path class="st0" d="M43,41h-1v1.8l0.2,0.3C45,46.6,49,48.4,53,48.4c4,0,8-1.8,10.8-5.2l0.2-0.3V40H42v1H43v1h19l0,0.5h1l-0.8-0.6
		c-2.4,3-5.8,4.5-9.2,4.5c-3.4,0-6.9-1.5-9.2-4.5L43,42.5h1V41H43v1V41z"/>
	<polygon class="st0" points="64,38 64,35.9 54.7,5 39,5 39,7 53.3,7 62,36.1 62,38 	"/>
	<polygon class="st0" points="44,38 44,36.1 52,8.7 52,8 50,8 50,8.4 42,35.9 42,38 	"/>
	<polyline class="st0" points="54,7 61,7 61,5 54,5 	"/>
	<path class="st0" d="M21,41h-1v1.5h1l-0.8-0.6c-2.4,3-5.8,4.5-9.2,4.5c-3.4,0-6.9-1.5-9.2-4.5L1,42.5h1V42l19,0V41h-1H21v-1H0v2.8
		l0.2,0.3C3,46.6,7,48.4,11,48.4c4,0,8-1.8,10.8-5.2l0.2-0.3V40h-1V41z"/>
	<polygon class="st0" points="2,38 2,36.1 10.7,7 23,7 23,5 9.3,5 0,35.9 0,38 	"/>
	<polygon class="st0" points="22,38 22,35.9 14,8.4 14,8 12,8 12,8.5 12,8.7 20,36.1 20,38 	"/>
	<polyline class="st0" points="10,5 3,5 3,7 10,7 	"/>
</g>
</svg>