<svg version="1.1"
	 xmlns="http://www.w3.org/2000/svg" xmlns:xlink="http://www.w3.org/1999/xlink" xmlns:a="http://ns.adobe.com/AdobeSVGViewerExtensions/3.0/"
	 x="0px" y="0px" width="64px" height="55px" viewBox="0 0 64 55" style="enable-background:new 0 0 64 55;" xml:space="preserve">
<style type="text/css">
	.st0{fill:#C2A01E;}
</style>
<defs>
</defs>
<path class="st0" d="M48,22h1c0-2.8-2.2-5-5-5c-2.8,0-5,2.2-5,5c0,2.8,2.2,5,5,5c2.8,0,5-2.2,5-5H48h-1c0,1.7-1.3,3-3,3
	c-1.7,0-3-1.3-3-3c0-1.7,1.3-3,3-3c1.7,0,3,1.3,3,3H48z"/>
<path class="st0" d="M61,25h-4.4l-0.3,0.3c-0.8,0.8-1.2,1.2-2,2L54,27.6V32h2v-4h-1l0.7,0.7c0.8-0.8,1.2-1.2,2-2L57,26v1h4V25z"/>
<path class="st0" d="M48,22h-1c0,1.7-1.3,3-3,3c-1.7,0-3-1.3-3-3c0-1.7,1.3-3,3-3c1.7,0,3,1.3,3,3H48h1c0-2.8-2.2-5-5-5
	c-2.8,0-5,2.2-5,5c0,2.8,2.2,5,5,5c2.8,0,5-2.2,5-5H48z"/>
<polyline class="st0" points="51,23 53,23 53,21 51,21 "/>
<polyline class="st0" points="55,23 57,23 57,21 55,21 "/>
<polyline class="st0" points="31,23 33,23 33,21 31,21 "/>
<polyline class="st0" points="35,23 37,23 37,21 35,21 "/>
<polygon class="st0" points="60,16 60,31 26,31 26,13 48,13 48,11 24,11 24,33 62,33 62,16 "/>
<path class="st0" d="M25,27h4v-1l-0.7,0.7c0.8,0.8,1.2,1.2,2,2L31,28h-1v4h2v-4.4l-0.3-0.3c-0.8-0.8-1.2-1.2-2-2L29.4,25H25V27z"/>
<polygon class="st0" points="46,5 56,5 56,2 56.6,2 62,7.4 62,8.6 56.6,14 56,14 56,11 50,11 50,13 54,13 54,16 57.4,16 64,9.4 
	64,6.6 57.4,0 54,0 54,3 46,3 46,5 "/>
<path class="st0" d="M26,11c0-2.8-2.2-5-5-5c-2.8,0-5,2.2-5,5c0,2.8,2.2,5,5,5v-2c-1.7,0-3-1.3-3-3c0-1.7,1.3-3,3-3c1.7,0,3,1.3,3,3
	H26L26,11z"/>
<path class="st0" d="M3,8h4.4l0.3-0.3c0.8-0.8,1.2-1.2,2-2L10,5.4V1H8v4h1L8.3,4.3c-0.8,0.8-1.2,1.2-2,2L7,7V6H3V8z"/>
<path class="st0" d="M21,14c-1.7,0-3-1.3-3-3c0-1.7,1.3-3,3-3c1.7,0,3,1.3,3,3h2c0-2.8-2.2-5-5-5c-2.8,0-5,2.2-5,5c0,2.8,2.2,5,5,5
	V14L21,14z"/>
<polyline class="st0" points="14,10 12,10 12,12 14,12 "/>
<polyline class="st0" points="10,10 8,10 8,12 10,12 "/>
<polygon class="st0" points="4,18 4,2 38,2 38,10 40,10 40,0 2,0 2,18 4,18 "/>
<path class="st0" d="M39,6h-4v1l0.7-0.7c-0.8-0.8-1.2-1.2-2-2L33,5h1V1h-2v4.4l0.3,0.3c0.8,0.8,1.2,1.2,2,2L34.6,8H39V6z"/>
<polygon class="st0" points="18,28 8,28 8,31 7.4,31 2,25.6 2,24.4 7.4,19 8,19 8,22 22,22 22,20 10,20 10,17 6.6,17 0,23.6 0,26.4 
	6.6,33 10,33 10,30 18,30 18,28 "/>
<polyline class="st0" points="44,3 42,3 42,5 44,5 "/>
<polyline class="st0" points="20,30 22,30 22,28 20,28 "/>
<path class="st0" d="M25,19h4.4l0.3-0.3c0.8-0.8,1.2-1.2,2-2l0.3-0.3V12h-2v4h1l-0.7-0.7c-0.8,0.8-1.2,1.2-2,2L29,18v-1h-4V19z"/>
<path class="st0" d="M44,35H10c-0.6,0-1-0.4-1-1H7c0,1.7,1.3,3,3,3h34V35L44,35z"/>
<path class="st0" d="M10,36v5l-1,0H8v6h1c1.4,0,2.6,0.6,3.5,1.5c0.9,0.9,1.5,2.2,1.5,3.5v3h2l0-3c0-3.9-3.1-7-7-7v1h1v-3h1h1v-7H10
	L10,36z"/>
<polyline class="st0" points="11,43 44,43 44,41 11,41 "/>
<polyline class="st0" points="16,47 44,47 44,45 16,45 "/>
<path class="st0" d="M46,37h8c1.7,0,3-1.3,3-3h-2c0,0.6-0.4,1-1,1h-8V37z"/>
<path class="st0" d="M52,36v7h2l0,3h1v-1c-3.9,0-7,3.1-7,7v3h2l0-3c0-1.4,0.6-2.6,1.5-3.5c0.9-0.9,2.2-1.5,3.5-1.5h1v-6h-2l0-5H52
	L52,36z"/>
<polyline class="st0" points="53,41 46,41 46,43 53,43 "/>
<polyline class="st0" points="55,45 46,45 46,47 55,47 "/>
<path class="st0" d="M30,55v-2c0-1.1,0.9-2,2-2c1.1,0,2,0.9,2,2v2h2v-2c0-2.2-1.8-4-4-4c-2.2,0-4,1.8-4,4v2H30z"/>
<path class="st0" d="M20,55v-2c0-1.1,0.9-2,2-2c1.1,0,2,0.9,2,2v2h2v-2c0-2.2-1.8-4-4-4c-2.2,0-4,1.8-4,4v2H20z"/>
<path class="st0" d="M40,55v-2c0-1.1,0.9-2,2-2c1.1,0,2,0.9,2,2v2h2v-2c0-2.2-1.8-4-4-4c-2.2,0-4,1.8-4,4v2H40z"/>
</svg>