<svg version="1.1"
	 xmlns="http://www.w3.org/2000/svg" xmlns:xlink="http://www.w3.org/1999/xlink" xmlns:a="http://ns.adobe.com/AdobeSVGViewerExtensions/3.0/"
	 x="0px" y="0px" width="64.1px" height="64px" viewBox="0 0 64.1 64" style="enable-background:new 0 0 64.1 64;"
	 xml:space="preserve">
<style type="text/css">
	.st0{fill:#C2A01E;}
</style>
<defs>
</defs>
<polygon class="st0" points="9.1,56 4,56 4,27.7 2,27.7 2,58 9.1,58 9.1,56 "/>
<polyline class="st0" points="44.2,56 19.1,56 19.1,58 44.2,58 "/>
<polyline class="st0" points="60,27.7 60,34.1 62,34.1 62,27.7 "/>
<path class="st0" d="M12,13H0v15.5l6.3,0.8c1.9,0.2,3.8,0.4,5.6,0.6l0.2-2c-1.9-0.2-3.7-0.4-5.6-0.6L2,26.8V15l10,0V13L12,13z"/>
<path class="st0" d="M52.1,30c1.9-0.2,3.7-0.4,5.6-0.6l6.3-0.8V13H52v2l10,0v11.8l-4.5,0.6c-1.9,0.2-3.7,0.4-5.6,0.6L52.1,30
	L52.1,30z"/>
<path class="st0" d="M15.9,30.3c5.4,0.4,10.8,0.6,16.2,0.6c5.3,0,10.7-0.2,16-0.6l-0.2-2C42.7,28.8,37.4,29,32.1,29
	c-5.3,0-10.7-0.2-16-0.6L15.9,30.3L15.9,30.3z"/>
<polyline class="st0" points="48,13 16,13 16,15 48,15 "/>
<polygon class="st0" points="11,52 11,59 17,59 17,55 15,55 15,57 13,57 13,52 11,52 "/>
<polygon class="st0" points="17,48 17,11 11,11 11,45 13,45 13,13 15,13 15,48 17,48 "/>
<polygon class="st0" points="53,34 53,11 47,11 47,34 49,34 49,13 51,13 51,34 53,34 "/>
<polyline class="st0" points="12,37 16,37 16,35 12,35 "/>
<polyline class="st0" points="12,41 16,41 16,39 12,39 "/>
<path class="st0" d="M23,10c0-2.2,0.9-4.2,2.3-5.7C26.8,2.9,28.8,2,31,2c2.2,0,4.2,0.9,5.7,2.3C38.1,5.8,39,7.8,39,10h2
	c0-5.5-4.5-10-10-10c-5.5,0-10,4.5-10,10H23L23,10z"/>
<polyline class="st0" points="21,11 21,14 23,14 23,11 "/>
<polyline class="st0" points="39,11 39,14 41,14 41,11 "/>
<path class="st0" d="M48.1,52H35.4l-2-1H11.1c-0.6,0-1-0.4-1-1c0-0.6,0.4-1,1-1h22.3l2-1h12.7v-2l-13.2,0l-2,1l-21.8,0
	c-1.7,0-3,1.3-3,3c0,1.7,1.3,3,3,3h21.8l2,1h13.2V52L48.1,52z"/>
<polyline class="st0" points="39.1,53 39.1,47 37.1,47 37.1,53 "/>
<polyline class="st0" points="43.1,53 43.1,47 41.1,47 41.1,53 "/>
<polygon class="st0" points="62.1,57 61.2,57.4 62.1,59.2 62.1,62 48.1,62 48.1,59.2 49.1,57.2 49.1,42.8 48.1,40.8 48.1,38 
	62.1,38 62.1,40.8 61.1,42.8 61.1,57.2 61.2,57.4 62.1,57 63.1,57 63.1,43.2 64.1,41.2 64.1,36 46.1,36 46.1,41.2 47.1,43.2 
	47.1,56.8 46.1,58.8 46.1,64 64.1,64 64.1,58.8 63,56.6 62.1,57 63.1,57 "/>
<polyline class="st0" points="48.1,44 59.1,44 59.1,42 48.1,42 "/>
<polyline class="st0" points="48.1,58 59.1,58 59.1,56 48.1,56 "/>
<polyline class="st0" points="54.1,47 54.1,49 56.1,49 56.1,47 "/>
<polyline class="st0" points="54.1,51 54.1,53 56.1,53 56.1,51 "/>
</svg>