<svg version="1.1"
	 xmlns="http://www.w3.org/2000/svg" xmlns:xlink="http://www.w3.org/1999/xlink" xmlns:a="http://ns.adobe.com/AdobeSVGViewerExtensions/3.0/"
	 x="0px" y="0px" width="64px" height="64px" viewBox="0 0 64 64" style="enable-background:new 0 0 64 64;" xml:space="preserve">
<style type="text/css">
	.st0{fill:#C2A01E;}
</style>
<defs>
</defs>
<path class="st0" d="M32.4,56.7l1.9,1.2c0.7,0.4,1,1.1,1,1.8c0,0.4-0.1,0.8-0.3,1.2c-0.4,0.7-1.1,1-1.8,1c-0.4,0-0.8-0.1-1.2-0.3
	l0,0l-1.5-0.9l-1,1.7l1.5,0.9l0.5-0.9l-0.5,0.8c0.7,0.4,1.5,0.7,2.2,0.7c1.4,0,2.7-0.7,3.5-1.9c0.4-0.7,0.7-1.5,0.7-2.2
	c0-1.4-0.7-2.7-1.9-3.5L33.5,55L32.4,56.7L32.4,56.7z"/>
<path class="st0" d="M35.8,51.3l5,3.2c0.7,0.4,1,1.1,1,1.8c0,0.4-0.1,0.8-0.3,1.2c-0.4,0.7-1.1,1-1.8,1c-0.4,0-0.8-0.1-1.2-0.3
	l-5-3.2l-1.1,1.7l5,3.2c0.7,0.4,1.5,0.7,2.2,0.7c1.4,0,2.7-0.7,3.5-1.9c0.4-0.7,0.7-1.5,0.7-2.2c0-1.4-0.7-2.7-1.9-3.5l-5-3.2
	L35.8,51.3L35.8,51.3z"/>
<path class="st0" d="M39.2,46l8.2,5.2c0.7,0.4,1,1.1,1,1.8c0,0.4-0.1,0.8-0.3,1.2c-0.4,0.7-1.1,1-1.8,1c-0.4,0-0.8-0.1-1.2-0.3
	l-8.2-5.2l-1.1,1.7l8.2,5.2c0.7,0.4,1.5,0.7,2.2,0.7c1.4,0,2.7-0.7,3.5-1.9c0.4-0.7,0.7-1.5,0.7-2.2c0-1.4-0.7-2.7-1.9-3.5l-8.2-5.2
	L39.2,46L39.2,46z"/>
<path class="st0" d="M39.2,46l11.3,7.2c0.7,0.4,1.5,0.7,2.2,0.7c1.4,0,2.7-0.7,3.5-1.9l0,0l0-0.1l-0.9-0.4l0.8,0.5
	c0.5-0.7,0.7-1.5,0.7-2.3c0-1.4-0.7-2.8-2-3.6l0,0L37.3,35h-3.8h0c-1.4,0-2.7,0.5-3.5,1.4L27.4,39c-0.5,0.5-1,0.7-1.6,0.7
	c-0.6,0-1.1-0.2-1.6-0.6c-0.5-0.5-0.7-1.1-0.7-1.7c0-0.6,0.2-1.2,0.7-1.6l6.1-6l-1.4-1.4l-6.1,6l0,0c-0.9,0.8-1.3,2-1.3,3.1
	c0,1.1,0.4,2.3,1.3,3.1c0.8,0.8,1.9,1.2,3,1.2c1.1,0,2.2-0.4,3.1-1.3l2.6-2.6l0,0c0.5-0.5,1.1-0.8,2.1-0.8h0h3.2l17.2,10.7l0,0
	c0.7,0.4,1,1.1,1,1.9c0,0.4-0.1,0.8-0.4,1.2l0,0l0,0.1l0.9,0.4l-0.8-0.5c-0.4,0.6-1.1,1-1.8,1c-0.4,0-0.8-0.1-1.2-0.3l-11.3-7.2
	L39.2,46L39.2,46z"/>
<polygon class="st0" points="55,46.4 55.8,44.8 57,44.1 64,44.1 64,42.1 56.5,42.1 54.3,43.3 53.2,45.6 55,46.4 "/>
<path class="st0" d="M9.9,52.8l0.5-0.8l-0.1-0.1c-0.6-0.4-0.9-1-0.9-1.7c0-0.4,0.1-0.7,0.3-1.1l0,0c0.4-0.6,1-0.9,1.7-0.9
	c0.4,0,0.7,0.1,1.1,0.3l0,0l0.1,0.1c0.6,0.4,0.9,1,0.9,1.7c0,0.4-0.1,0.7-0.3,1.1l0,0c-0.4,0.6-1,0.9-1.7,0.9
	c-0.4,0-0.7-0.1-1.1-0.3L9.9,52.8l-0.5,0.8c0.7,0.4,1.4,0.6,2.2,0.6c1.3,0,2.6-0.7,3.4-1.9l0,0c0.4-0.7,0.6-1.4,0.6-2.2
	c0-1.3-0.7-2.6-1.9-3.4l-0.1-0.1l0,0c-0.7-0.4-1.4-0.6-2.2-0.6c-1.3,0-2.6,0.7-3.4,1.9l0,0c-0.4,0.7-0.6,1.4-0.6,2.2
	c0,1.3,0.7,2.6,1.9,3.4l0.1,0.1L9.9,52.8z"/>
<path class="st0" d="M25.8,62.5l0.5-0.8l-0.1-0.1c-0.6-0.4-0.9-1-0.9-1.7c0-0.4,0.1-0.7,0.3-1.1c0.4-0.6,1-0.9,1.7-0.9
	c0.4,0,0.7,0.1,1.1,0.3l0.1,0.1c0.6,0.4,0.9,1,0.9,1.7c0,0.4-0.1,0.7-0.3,1.1c-0.4,0.6-1,0.9-1.7,0.9c-0.4,0-0.7-0.1-1.1-0.3
	L25.8,62.5l-0.5,0.8c0.7,0.4,1.4,0.6,2.2,0.6c1.3,0,2.6-0.7,3.4-1.9c0.4-0.7,0.6-1.4,0.6-2.2c0-1.3-0.7-2.6-1.9-3.4l0,0l-0.1-0.1
	c-0.7-0.4-1.4-0.6-2.2-0.6c-1.3,0-2.6,0.7-3.4,1.9c-0.4,0.7-0.6,1.4-0.6,2.2c0,1.3,0.7,2.6,1.9,3.4l0.1,0.1L25.8,62.5z"/>
<path class="st0" d="M15,56.1l0.5-0.8c-0.6-0.4-1-1.1-1-1.8c0-0.4,0.1-0.8,0.3-1.1l1.5-2.3c0.4-0.6,1.1-1,1.8-1
	c0.4,0,0.8,0.1,1.1,0.3c0.6,0.4,1,1.1,1,1.8c0,0.4-0.1,0.8-0.3,1.1l-1.5,2.3c-0.4,0.6-1.1,1-1.8,1c-0.4,0-0.8-0.1-1.1-0.3L15,56.1
	l-0.5,0.8c0.7,0.4,1.5,0.6,2.2,0.6c1.4,0,2.7-0.7,3.5-1.9l1.5-2.3c0.4-0.7,0.6-1.5,0.6-2.2c0-1.4-0.7-2.7-1.9-3.5
	c-0.7-0.4-1.5-0.6-2.2-0.6c-1.4,0-2.7,0.7-3.5,1.9l-1.5,2.3c-0.4,0.7-0.6,1.5-0.6,2.2c0,1.4,0.7,2.7,1.9,3.5L15,56.1z"/>
<path class="st0" d="M20.3,59.4l0.5-0.8c-0.6-0.4-1-1.1-1-1.8c0-0.4,0.1-0.8,0.3-1.1l2.4-3.7c0.4-0.6,1.1-1,1.8-1
	c0.4,0,0.8,0.1,1.1,0.3c0.6,0.4,1,1.1,1,1.8c0,0.4-0.1,0.8-0.3,1.1l-2.4,3.7c-0.4,0.6-1.1,1-1.8,1c-0.4,0-0.8-0.1-1.1-0.3L20.3,59.4
	l-0.5,0.8c0.7,0.4,1.5,0.6,2.2,0.6c1.4,0,2.7-0.7,3.5-1.9l2.4-3.7c0.4-0.7,0.6-1.5,0.6-2.2c0-1.4-0.7-2.7-1.9-3.5
	c-0.7-0.4-1.5-0.6-2.2-0.6c-1.4,0-2.7,0.7-3.5,1.9l-2.4,3.7c-0.4,0.7-0.6,1.5-0.6,2.2c0,1.4,0.7,2.7,1.9,3.5L20.3,59.4z"/>
<polygon class="st0" points="0,44 6.8,44 8.3,44.7 9.3,47 11.1,46.2 9.8,43.2 7.2,42 0,42 0,44 "/>
<polyline class="st0" points="22,30 38,30 38,28 22,28 "/>
<path class="st0" d="M1,32.6H0v1.7l0.2,0.3c2.5,3.2,6.1,4.8,9.8,4.8c3.6,0,7.3-1.6,9.8-4.8l0.2-0.3v-2.7H0v1H1v1h17l0,0.4h1
	l-0.8-0.6c-2.1,2.7-5.1,4-8.2,4c-3.1,0-6.1-1.3-8.2-4L1,34h1v-1.4H1v1V32.6z"/>
<polygon class="st0" points="20,30 20,27.8 13,6.8 13,6 11,6 11,7 11,7.2 18,28.2 18,30 "/>
<path class="st0" d="M45,32.6h-1v1.7l0.2,0.3c2.5,3.2,6.1,4.8,9.8,4.8c3.6,0,7.3-1.6,9.8-4.8l0.2-0.3v-2.7H44v1H45v1h17l0,0.4h1
	l-0.8-0.6c-2.1,2.7-5.1,4-8.2,4c-3.1,0-6.1-1.3-8.2-4L45,34h1v-1.4H45v1V32.6z"/>
<polygon class="st0" points="46,30 46,28.2 53,7.3 53,6 51,6 51,6.9 44,27.8 44,30 "/>
<polyline class="st0" points="40,30 42,30 42,28 40,28 "/>
<polygon class="st0" points="27.9,1 27.1,1.6 32.2,8.7 38.4,0 26,0 27.1,1.6 27.9,1 27.9,2 34.5,2 32.2,5.3 28.7,0.4 27.9,1 27.9,2 
	"/>
<polygon class="st0" points="30,3 8.3,3 0,27.8 0,30 2,30 2,28.2 9.7,5 30,5 30,3 "/>
<polygon class="st0" points="34,5 43,5 54.3,5 62,28.2 62,30 64,30 64,27.8 55.7,3 43,3 34,3 34,5 "/>
<polyline class="st0" points="29,26 29,14 27,14 27,26 "/>
<polyline class="st0" points="37,26 37,14 35,14 35,26 "/>
<polyline class="st0" points="33,26 33,14 31,14 31,26 "/>
<polyline class="st0" points="25,11 39,11 39,9 25,9 "/>
<polyline class="st0" points="25,15 39,15 39,13 25,13 "/>
<polyline class="st0" points="4,5 10,5 10,3 4,3 "/>
<polyline class="st0" points="60,3 54,3 54,5 60,5 "/>
</svg>