<svg version="1.1"
	 xmlns="http://www.w3.org/2000/svg" xmlns:xlink="http://www.w3.org/1999/xlink" xmlns:a="http://ns.adobe.com/AdobeSVGViewerExtensions/3.0/"
	 x="0px" y="0px" width="50px" height="66.7px" viewBox="0 0 50 66.7" style="enable-background:new 0 0 50 66.7;"
	 xml:space="preserve">
<style type="text/css">
	.st0{fill:#C2A01E;}
</style>
<defs>
</defs>
<g>
	<path class="st0" d="M37,40.7H3c-0.6,0-1-0.4-1-1c0-0.6,0.4-1,1-1h34v-2l-34,0c-1.7,0-3,1.3-3,3c0,1.7,1.3,3,3,3h34V40.7L37,40.7z"
		/>
	<path class="st0" d="M3,41.7v5l-1,0H1v6h1c1.4,0,2.6,0.6,3.5,1.5C6.4,55,7,56.3,7,57.7v9h2l0-9c0-3.9-3.1-7-7-7v1h1v-3h1h1v-7H3
		L3,41.7z"/>
	<polyline class="st0" points="4,48.7 37,48.7 37,46.7 4,46.7 	"/>
	<polyline class="st0" points="9,52.7 37,52.7 37,50.7 9,50.7 	"/>
	<path class="st0" d="M39,42.7h8c1.7,0,3-1.3,3-3c0-1.7-1.3-3-3-3h-8v2h8c0.6,0,1,0.4,1,1c0,0.6-0.4,1-1,1h-8V42.7z"/>
	<path class="st0" d="M45,41.7v7h2l0,3h1v-1c-3.9,0-7,3.1-7,7v9h2l0-9c0-1.4,0.6-2.6,1.5-3.5c0.9-0.9,2.2-1.5,3.5-1.5h1v-6h-2l0-5
		H45L45,41.7z"/>
	<polyline class="st0" points="46,46.7 39,46.7 39,48.7 46,48.7 	"/>
	<polyline class="st0" points="48,50.7 39,50.7 39,52.7 48,52.7 	"/>
	<path class="st0" d="M23,66.7v-8c0-1.1,0.9-2,2-2c1.1,0,2,0.9,2,2v8h2v-8c0-2.2-1.8-4-4-4c-2.2,0-4,1.8-4,4v8H23z"/>
	<path class="st0" d="M13,66.7v-8c0-1.1,0.9-2,2-2c1.1,0,2,0.9,2,2v8h2v-8c0-2.2-1.8-4-4-4c-2.2,0-4,1.8-4,4v8H13z"/>
	<path class="st0" d="M33,66.7v-8c0-1.1,0.9-2,2-2c1.1,0,2,0.9,2,2v8h2v-8c0-2.2-1.8-4-4-4c-2.2,0-4,1.8-4,4v8H33z"/>
	<path class="st0" d="M25.5,35.6c9.8,0,17.8-8,17.8-17.8C43.3,8,35.3,0,25.5,0C15.7,0,7.7,8,7.7,17.8C7.7,27.6,15.7,35.6,25.5,35.6z
		 M28.8,34.1c-1.1,0.2-2.2,0.3-3.4,0.3c-1.1,0-2.3-0.1-3.4-0.3l-0.7-1.5l-2.3-4.7l2.5-2.9h7.9l2.5,2.9l-2.3,4.7L28.8,34.1z
		 M19.4,16.5l6.1-4.4l6.1,4.4l-2.3,7.2h-7.5L19.4,16.5z M30.7,33.1l2.4-4.8l5.3-0.8C36.5,30.1,33.8,32.1,30.7,33.1z M39.8,26.1
		l-1.6,0.2l-5.3,0.8l-2.5-2.9l2.4-7.4l4.1-1.8l3.9,3.8l1.1,1.1C41.7,22.1,40.9,24.2,39.8,26.1z M38.7,8.4c1.9,2.6,3,5.9,3,9.4
		L37.7,14L38.7,8.4z M32.5,2.8c2,0.9,3.7,2.2,5.2,3.8l-0.3,1.6l-0.9,5.5l-4.1,1.8L26.1,11V6.2l5-2.6L32.5,2.8z M25.5,1.6
		c1.8,0,3.5,0.3,5,0.8l-5,2.7l-5-2.7C22,1.9,23.7,1.6,25.5,1.6z M18.5,2.8l1.4,0.7l5,2.6V11l-6.3,4.6l-4.1-1.8l-0.9-5.5l-0.3-1.6
		C14.7,5,16.5,3.7,18.5,2.8z M12.3,8.4l0.9,5.5l-3.9,3.8C9.3,14.3,10.4,11.1,12.3,8.4z M9,19.8l1.1-1.1l3.9-3.8l4.1,1.8l2.4,7.4
		l-2.5,2.9l-5.3-0.8l-1.6-0.2C10.1,24.2,9.3,22.1,9,19.8z M17.9,28.4l2.4,4.8c-3.1-1-5.8-3-7.7-5.6L17.9,28.4z"/>
</g>
</svg>