<svg version="1.1"
	 xmlns="http://www.w3.org/2000/svg" xmlns:xlink="http://www.w3.org/1999/xlink" xmlns:a="http://ns.adobe.com/AdobeSVGViewerExtensions/3.0/"
	 x="0px" y="0px" width="64px" height="50px" viewBox="0 0 64 50" style="enable-background:new 0 0 64 50;" xml:space="preserve">
<style type="text/css">
	.st0{fill:#C2A01E;}
</style>
<defs>
</defs>
<polygon class="st0" points="63,41 63,40 44,40 44,18 62,18 62,41 63,41 63,40 63,41 64,41 64,16 42,16 42,42 64,42 64,41 "/>
<polyline class="st0" points="46,36 46,38 48,38 48,36 "/>
<polyline class="st0" points="50,36 50,38 52,38 52,36 "/>
<polyline class="st0" points="54,36 54,38 56,38 56,36 "/>
<polyline class="st0" points="58,36 58,38 60,38 60,36 "/>
<polyline class="st0" points="46,32 46,34 48,34 48,32 "/>
<polyline class="st0" points="50,32 50,34 52,34 52,32 "/>
<polyline class="st0" points="54,32 54,34 56,34 56,32 "/>
<polyline class="st0" points="58,32 58,34 60,34 60,32 "/>
<polyline class="st0" points="46,28 46,30 48,30 48,28 "/>
<polyline class="st0" points="50,28 50,30 52,30 52,28 "/>
<polyline class="st0" points="54,28 54,30 56,30 56,28 "/>
<polyline class="st0" points="58,28 58,30 60,30 60,28 "/>
<polygon class="st0" points="59,25 59,24 48,24 48,22 58,22 58,25 59,25 59,24 59,25 60,25 60,20 46,20 46,26 60,26 60,25 "/>
<path class="st0" d="M60.9,49v-1H31.2l-1.4-1l1.5-1H61c0.6,0,1,0.4,1,1c0,0.3-0.1,0.5-0.3,0.7c-0.2,0.2-0.5,0.3-0.8,0.3V49v1
	c0.9,0,1.6-0.3,2.2-0.9c0.6-0.5,0.9-1.3,0.9-2.1c0-1.7-1.3-3-3-3H30.7l-4.5,3l4.3,3h30.3V49z"/>
<polyline class="st0" points="40.1,28 34.1,28 34.1,30 40.1,30 "/>
<polyline class="st0" points="40.1,24 34.1,24 34.1,26 40.1,26 "/>
<polyline class="st0" points="40.1,20 34.1,20 34.1,22 40.1,22 "/>
<polyline class="st0" points="40.1,16 34.1,16 34.1,18 40.1,18 "/>
<polyline class="st0" points="50.1,12 34.1,12 34.1,14 50.1,14 "/>
<polyline class="st0" points="50.1,8 34.1,8 34.1,10 50.1,10 "/>
<polyline class="st0" points="6.1,30 22.1,30 22.1,28 6.1,28 "/>
<polyline class="st0" points="6.1,26 22.1,26 22.1,24 6.1,24 "/>
<polyline class="st0" points="6.1,22 22.1,22 22.1,20 6.1,20 "/>
<polyline class="st0" points="6.1,18 22.1,18 22.1,16 6.1,16 "/>
<polyline class="st0" points="6.1,14 22.1,14 22.1,12 6.1,12 "/>
<polyline class="st0" points="6.1,10 22.1,10 22.1,8 6.1,8 "/>
<path class="st0" d="M40.4,34H32c-1.4,0-2.6,0.6-3.5,1.5C27.6,36.4,27,37.7,27,39v3h2l0-3c0-1.7,1.3-3,3-3h8.4V34L40.4,34z"/>
<path class="st0" d="M26.1,0H0v36l24.1,0c0.8,0,1.5,0.3,2.1,0.9c0.5,0.5,0.9,1.3,0.9,2.1l2,0l0-34l0,0l-0.9,0L29,5l0,0l-0.9,0L29,5
	c0-0.8,0.3-1.6,0.9-2.1C30.5,2.3,31.3,2,32.1,2l22,0l0,11.9h2l0-13.9l-24,0c-1.4,0-2.6,0.6-3.6,1.5C27.6,2.4,27,3.6,27,5l0,0l1,0
	l-1,0l0,34l2,0c0-1.4-0.5-2.6-1.4-3.5c-0.9-0.9-2.1-1.5-3.5-1.5L2,34V2l24.1,0V0L26.1,0z"/>
<polyline class="st0" points="26.1,40 0.1,40 0.1,42 26.1,42 "/>
<polyline class="st0" points="40.1,40 30.1,40 30.1,42 40.1,42 "/>
<polyline class="st0" points="0,35 0,41 2,41 2,35 "/>
</svg>