<svg version="1.1"
	 xmlns="http://www.w3.org/2000/svg" xmlns:xlink="http://www.w3.org/1999/xlink" xmlns:a="http://ns.adobe.com/AdobeSVGViewerExtensions/3.0/"
	 x="0px" y="0px" width="64px" height="64px" viewBox="0 0 64 64" style="enable-background:new 0 0 64 64;" xml:space="preserve">
<style type="text/css">
	.st0{fill:#C2A01E;}
</style>
<defs>
</defs>
<polygon class="st0" points="51.6,47.2 33.3,33 30.7,33 12.4,47.2 13.6,48.8 31.3,35 32.7,35 50.4,48.8 51.6,47.2 "/>
<polyline class="st0" points="46,45 46,62 48,62 48,45 "/>
<polyline class="st0" points="18,62 18,45 16,45 16,62 "/>
<polygon class="st0" points="31,56 31,55 22,55 22,49 30,49 30,56 31,56 31,55 31,56 32,56 32,47 20,47 20,57 32,57 32,56 "/>
<polyline class="st0" points="25,48 25,56 27,56 27,48 "/>
<polygon class="st0" points="36,62 36,49 42,49 42,62 44,62 44,47 34,47 34,62 36,62 "/>
<polyline class="st0" points="39,54 39,56 41,56 41,54 "/>
<polyline class="st0" points="56,62 56,58 54,58 54,62 "/>
<polygon class="st0" points="59,58 59,57 52,57 52,53 58,53 58,58 59,58 59,57 59,58 60,58 60,51 50,51 50,59 60,59 60,58 "/>
<polyline class="st0" points="10,62 10,59 8,59 8,62 "/>
<path class="st0" d="M13,55h-1c0,1.7-1.3,3-3,3c-1.7,0-3-1.3-3-3c0-1.7,1.3-3,3-3c1.7,0,3,1.3,3,3H13h1c0-2.8-2.2-5-5-5
	c-2.8,0-5,2.2-5,5c0,2.8,2.2,5,5,5c2.8,0,5-2.2,5-5H13z"/>
<polyline class="st0" points="0,64 64,64 64,62 0,62 "/>
<path class="st0" d="M1,34.3H0V36l0.2,0.3C2.7,39.4,6.4,41,10,41c3.6,0,7.3-1.6,9.8-4.8L20,36v-2.7H0v1H1v1h17l0,0.4h1L18.2,35
	c-2.1,2.7-5.1,4-8.2,4c-3.1,0-6.1-1.3-8.2-4L1,35.6h1v-1.4H1v1V34.3z"/>
<polygon class="st0" points="20,31.6 20,29.5 13,6.8 13,6 11,6 11,7 11,7.2 18,29.8 18,31.6 "/>
<path class="st0" d="M45,34.3h-1V36l0.2,0.3c2.5,3.2,6.1,4.8,9.8,4.8c3.6,0,7.3-1.6,9.8-4.8L64,36v-2.7H44v1H45v1h17l0,0.4h1
	L62.2,35c-2.1,2.7-5.1,4-8.2,4c-3.1,0-6.1-1.3-8.2-4L45,35.6h1v-1.4H45v1V34.3z"/>
<polygon class="st0" points="46,31.6 46,29.8 53,7.3 53,6 51,6 51,6.9 44,29.5 44,31.6 "/>
<polygon class="st0" points="27.9,1 27.1,1.6 32.2,8.7 38.4,0 26,0 27.1,1.6 27.9,1 27.9,2 34.5,2 32.2,5.3 28.7,0.4 27.9,1 27.9,2 
	"/>
<polygon class="st0" points="30,3 8.3,3 0,29.5 0,31.6 2,31.6 2,29.8 9.7,5 30,5 30,3 "/>
<polygon class="st0" points="34,5 43,5 54.3,5 62,29.8 62,31.6 64,31.6 64,29.5 55.7,3 43,3 34,3 34,5 "/>
<polyline class="st0" points="29,31 29,14 27,14 27,31 "/>
<polyline class="st0" points="37,31 37,14 35,14 35,31 "/>
<polyline class="st0" points="33,27 33,14 31,14 31,27 "/>
<polyline class="st0" points="25,11 39,11 39,9 25,9 "/>
<polyline class="st0" points="25,15 39,15 39,13 25,13 "/>
<polyline class="st0" points="4,5 10,5 10,3 4,3 "/>
<polyline class="st0" points="60,3 54,3 54,5 60,5 "/>
<polyline class="st0" points="31,29 31,31 33,31 33,29 "/>
</svg>