<svg version="1.1"
	 xmlns="http://www.w3.org/2000/svg" xmlns:xlink="http://www.w3.org/1999/xlink" xmlns:a="http://ns.adobe.com/AdobeSVGViewerExtensions/3.0/"
	 x="0px" y="0px" width="44.9px" height="59.1px" viewBox="0 0 44.9 59.1" style="enable-background:new 0 0 44.9 59.1;"
	 xml:space="preserve">
<style type="text/css">
	.st0{fill:#C2A01E;}
</style>
<defs>
</defs>
<g>
	<path class="st0" d="M15.7,58.3c-0.3,0-0.7-0.1-0.9-0.4c-0.4-0.5-0.4-1.3,0.1-1.7c5.7-4.8,9.2-11.3,9.4-17.8c0.1-2.4-0.5-4.4-1-5.4
		c-0.2,0.8-0.4,2.4-0.3,5.5c0.2,5.2-3.1,10.9-10.2,17.3c-0.5,0.4-1.2,0.4-1.7-0.1c-0.4-0.5-0.4-1.2,0.1-1.7c6.5-5.9,9.5-11,9.4-15.5
		c-0.2-6.3,0.8-7.7,1.7-8.2c0.6-0.3,1.3-0.3,1.9,0c1.8,1,2.7,5,2.5,8.1c-0.3,7.2-4,14.3-10.3,19.5C16.2,58.3,15.9,58.3,15.7,58.3z"
		/>
	<path class="st0" d="M9.1,52.9c-0.3,0-0.6-0.1-0.8-0.3c-0.5-0.4-0.5-1.2-0.1-1.7l0.9-1c4.5-4.9,6.8-7.4,7.3-12.1
		c0.1-0.7,0.7-1.1,1.3-1c0.7,0.1,1.1,0.7,1,1.3c-0.7,5.5-3.4,8.5-7.9,13.4l-0.9,1C9.7,52.8,9.4,52.9,9.1,52.9z"/>
	<path class="st0" d="M29.2,40.6C29.2,40.6,29.2,40.6,29.2,40.6c-0.7,0-1.2-0.6-1.2-1.3c0-0.4,0-0.8,0-1.2c-0.1-4.9-1.3-7-2.3-8.6
		c-1-1.7-2.3-2.5-3.4-2.2c-1.2,0.3-2.7,2.2-2.9,6.6c0,0.7-0.6,1.2-1.2,1.1c-0.7,0-1.2-0.6-1.1-1.2c0.2-4.8,2-8.1,4.7-8.8
		c2.2-0.6,4.5,0.7,6.1,3.3c1.1,1.8,2.6,4.4,2.7,9.9c0,0.4,0,0.9,0,1.3C30.4,40.1,29.9,40.6,29.2,40.6z"/>
	<path class="st0" d="M29.2,39.4"/>
	<path class="st0" d="M20.4,59.1c-0.3,0-0.6-0.1-0.9-0.4c-0.5-0.5-0.4-1.2,0-1.7c3.6-3.5,6.5-8.5,7.8-13.7c0.2-0.6,0.8-1,1.4-0.9
		c0.6,0.2,1,0.8,0.9,1.4c-1.4,5.7-4.5,11.1-8.5,14.9C21,59,20.7,59.1,20.4,59.1z"/>
	<path class="st0" d="M6.4,48.7c-0.3,0-0.6-0.1-0.9-0.4c-0.4-0.5-0.4-1.2,0.1-1.7c6.4-5.9,7-10.5,7.8-15.9c0.2-1.3,0.4-2.7,0.7-4.1
		c0.6-2.8,2-4.9,4.2-6.1c2.1-1.1,4.6-1.2,6.9-0.2c0.6,0.3,0.9,1,0.7,1.6c-0.3,0.6-1,0.9-1.6,0.7c-1.7-0.7-3.4-0.7-4.9,0.1
		c-1.5,0.8-2.6,2.4-3,4.4c-0.3,1.4-0.5,2.7-0.7,4c-0.8,5.6-1.6,10.8-8.6,17.3C7,48.6,6.7,48.7,6.4,48.7z"/>
	<path class="st0" d="M25.8,58c-0.3,0-0.6-0.1-0.9-0.4c-0.5-0.5-0.5-1.2,0-1.7c4.2-4.1,6.5-9.6,6.9-16.4c0.3-6.5-1.3-9.8-3.3-13.1
		c-0.6-1-0.7-1.2-1.4-1.8c-0.5-0.5-0.5-1.2-0.1-1.7c0.5-0.5,1.2-0.5,1.7-0.1c0.8,0.8,1.1,1.2,1.8,2.3c2.2,3.5,4.1,7.3,3.7,14.5
		c-0.4,7.5-2.9,13.5-7.6,18C26.4,57.9,26.1,58,25.8,58z"/>
	<path class="st0" d="M3.9,42.8c-0.4,0-0.8-0.2-1-0.5c-0.4-0.5-0.2-1.3,0.3-1.7c3.8-2.6,5-6.7,6.1-11.4c0.1-0.6,0.8-1,1.4-0.9
		c0.6,0.1,1,0.8,0.9,1.4c-1.2,5-2.6,9.8-7.1,12.8C4.3,42.8,4.1,42.8,3.9,42.8z"/>
	<path class="st0" d="M35.8,30.8c-0.5,0-1-0.4-1.2-0.9c-0.8-3.5-2-5.8-4.2-8.2c-3-3.4-7.1-5.2-10.7-4.6c-2.7,0.4-4.7,2-5.8,4.5
		c-0.5,1.1-0.9,2.4-1.3,3.9c-0.2,0.6-0.8,1-1.5,0.9c-0.6-0.2-1-0.8-0.9-1.5c0.4-1.7,0.9-3.1,1.4-4.3c1.4-3.2,4.2-5.3,7.6-5.9
		c4.5-0.7,9.3,1.3,12.9,5.4c2.4,2.7,3.8,5.4,4.7,9.2c0.2,0.6-0.2,1.3-0.9,1.4C36,30.8,35.9,30.8,35.8,30.8z"/>
	<path class="st0" d="M35.8,29.6"/>
	<path class="st0" d="M34.9,51.4c-0.1,0-0.3,0-0.4-0.1c-0.6-0.2-0.9-0.9-0.7-1.5c2.4-6.3,2.5-9.5,1.8-14.3c-0.1-0.5-0.2-1-0.2-1.5
		c-0.1-0.7,0.3-1.3,1-1.4c0.7-0.1,1.3,0.3,1.4,1c0.1,0.5,0.2,1,0.2,1.6c0.7,5.1,0.6,8.7-2,15.5C35.9,51.1,35.4,51.4,34.9,51.4z"/>
	<path class="st0" d="M3.3,35.4c-0.3,0-0.6-0.1-0.8-0.3C2,34.6,2,33.8,2.5,33.4c2.1-2.2,2.4-4.5,2.9-7.3c0.4-2.2,0.8-4.7,2-7.6
		c1.4-3.3,4-5.9,7.4-7.4c0.6-0.3,1.3,0,1.6,0.6c0.3,0.6,0,1.3-0.6,1.6c-2.8,1.2-5,3.4-6.1,6.1c-1.1,2.7-1.5,5-1.8,7
		c-0.5,3-1,5.9-3.5,8.6C4,35.2,3.6,35.4,3.3,35.4z"/>
	<path class="st0" d="M36.3,20.2c-0.4,0-0.8-0.2-1-0.5c-1.9-2.8-4.5-4.8-8-6.2c-3.3-1.3-5.8-1.7-8.3-1.3c-0.7,0.1-1.3-0.3-1.4-1
		c-0.1-0.7,0.3-1.3,1-1.4c2.9-0.5,5.9-0.1,9.6,1.4c3.9,1.6,6.9,3.9,9.1,7c0.4,0.5,0.2,1.3-0.3,1.7C36.8,20.1,36.6,20.2,36.3,20.2z"
		/>
	<path class="st0" d="M36.3,19"/>
	<path class="st0" d="M40.8,44.5c-0.1,0-0.1,0-0.2,0c-0.7-0.1-1.1-0.7-1-1.4c1.3-8.6,0.3-11.8-1.2-16.7l-0.2-0.6
		c-0.3-1-0.7-2-1.1-2.9c-0.3-0.6,0-1.3,0.6-1.6c0.6-0.3,1.3,0,1.6,0.6c0.4,1,0.8,2.1,1.2,3.2l0.2,0.6c1.5,5,2.6,8.6,1.3,17.7
		C41.9,44.1,41.4,44.5,40.8,44.5z"/>
	<path class="st0" d="M1.2,28.8c-0.1,0-0.2,0-0.3,0c-0.6-0.2-1-0.8-0.8-1.5c0.2-0.8,0.4-1.7,0.6-2.7c0.8-3.7,1.9-8.9,5.2-12.2
		c0.5-0.5,1.2-0.5,1.7,0c0.5,0.5,0.5,1.2,0,1.7c-2.8,2.9-3.8,7.4-4.6,11c-0.2,1-0.4,2-0.7,2.8C2.2,28.5,1.7,28.8,1.2,28.8z"/>
	<path class="st0" d="M9.6,11.6c-0.3,0-0.7-0.1-0.9-0.4c-0.4-0.5-0.4-1.3,0.1-1.7c3.9-3.3,9-5,13.8-4.7c2.8,0.2,6,1,8.7,2.3
		c0.6,0.3,0.9,1,0.6,1.6c-0.3,0.6-1,0.9-1.6,0.6c-2.5-1.2-5.3-1.9-7.9-2.1c-4.2-0.3-8.7,1.3-12.1,4.1C10.1,11.5,9.9,11.6,9.6,11.6z"
		/>
	<path class="st0" d="M30.9,7.6"/>
	<path class="st0" d="M43.7,25.7c-0.5,0-1-0.4-1.2-0.9c-1.5-6.3-4.3-10.7-8.9-13.6c-0.6-0.4-0.7-1.1-0.4-1.7
		c0.4-0.6,1.1-0.7,1.7-0.4c5.1,3.3,8.3,8.1,9.9,15.1c0.2,0.6-0.2,1.3-0.9,1.4C43.8,25.7,43.7,25.7,43.7,25.7z"/>
	<path class="st0" d="M8.2,7c-0.4,0-0.7-0.2-1-0.5C6.9,6,7,5.2,7.5,4.8c4.1-3.1,8.8-4.7,13.6-4.8c0.7,0,1.2,0.5,1.2,1.2
		c0,0.7-0.5,1.2-1.2,1.2C16.9,2.5,12.7,4,8.9,6.8C8.7,6.9,8.5,7,8.2,7z"/>
	<path class="st0" d="M39.4,9.5c-0.3,0-0.6-0.1-0.9-0.4C35.1,5.5,29.9,3,24.7,2.5c-0.7-0.1-1.1-0.7-1.1-1.3C23.7,0.5,24.3,0,25,0.1
		c5.8,0.6,11.5,3.4,15.3,7.4c0.5,0.5,0.4,1.2-0.1,1.7C40,9.4,39.7,9.5,39.4,9.5z"/>
</g>
</svg>