<svg version="1.1"
	 xmlns="http://www.w3.org/2000/svg" xmlns:xlink="http://www.w3.org/1999/xlink" xmlns:a="http://ns.adobe.com/AdobeSVGViewerExtensions/3.0/"
	 x="0px" y="0px" width="29.8px" height="39.3px" viewBox="0 0 29.8 39.3" style="enable-background:new 0 0 29.8 39.3;"
	 xml:space="preserve">
<style type="text/css">
	.st0{fill:#C2A01E;}
</style>
<defs>
</defs>
<g>
	<path class="st0" d="M10.4,38.8c-0.2,0-0.5-0.1-0.6-0.3c-0.3-0.3-0.2-0.8,0.1-1.1c3.8-3.2,6.1-7.5,6.3-11.8c0.1-1.6-0.3-3-0.6-3.6
		c-0.1,0.5-0.3,1.6-0.2,3.7c0.1,3.5-2.1,7.3-6.8,11.5c-0.3,0.3-0.8,0.3-1.1-0.1c-0.3-0.3-0.3-0.8,0.1-1.1c4.3-3.9,6.3-7.3,6.2-10.3
		c-0.1-4.2,0.5-5.1,1.1-5.5c0.4-0.2,0.8-0.2,1.2,0c1.2,0.7,1.8,3.3,1.7,5.4c-0.2,4.8-2.7,9.5-6.8,13C10.8,38.7,10.6,38.8,10.4,38.8z
		"/>
	<path class="st0" d="M6,35.2c-0.2,0-0.4-0.1-0.5-0.2c-0.3-0.3-0.3-0.8-0.1-1.1l0.6-0.7c3-3.3,4.5-4.9,4.9-8
		c0.1-0.4,0.5-0.7,0.9-0.7c0.4,0.1,0.7,0.4,0.7,0.9c-0.4,3.6-2.3,5.6-5.3,8.9l-0.6,0.7C6.5,35.1,6.2,35.2,6,35.2z"/>
	<path class="st0" d="M19.4,27C19.4,27,19.4,27,19.4,27c-0.5,0-0.8-0.4-0.8-0.8c0-0.3,0-0.5,0-0.8c0-3.2-0.9-4.6-1.5-5.7
		c-0.7-1.1-1.5-1.7-2.3-1.5c-0.8,0.2-1.8,1.5-1.9,4.4c0,0.4-0.4,0.8-0.8,0.8c-0.4,0-0.8-0.4-0.8-0.8c0.1-3.2,1.3-5.4,3.1-5.9
		c1.5-0.4,3,0.5,4,2.2c0.7,1.2,1.7,2.9,1.8,6.6c0,0.3,0,0.6,0,0.9C20.2,26.7,19.8,27,19.4,27z"/>
	<path class="st0" d="M19.4,26.2"/>
	<path class="st0" d="M13.6,39.3c-0.2,0-0.4-0.1-0.6-0.2c-0.3-0.3-0.3-0.8,0-1.1c2.4-2.3,4.3-5.6,5.2-9.1c0.1-0.4,0.5-0.7,1-0.6
		c0.4,0.1,0.7,0.5,0.6,1c-0.9,3.8-3,7.4-5.6,9.9C14,39.2,13.8,39.3,13.6,39.3z"/>
	<path class="st0" d="M4.2,32.3c-0.2,0-0.4-0.1-0.6-0.3c-0.3-0.3-0.3-0.8,0-1.1c4.2-3.9,4.7-7,5.2-10.6c0.1-0.9,0.3-1.8,0.5-2.7
		c0.4-1.8,1.4-3.3,2.8-4c1.4-0.7,3-0.8,4.6-0.1c0.4,0.2,0.6,0.6,0.4,1c-0.2,0.4-0.6,0.6-1,0.4c-1.1-0.5-2.3-0.4-3.2,0.1
		c-1,0.5-1.7,1.6-2,2.9c-0.2,0.9-0.3,1.8-0.4,2.7c-0.5,3.7-1.1,7.2-5.7,11.5C4.6,32.3,4.4,32.3,4.2,32.3z"/>
	<path class="st0" d="M17.2,38.5c-0.2,0-0.4-0.1-0.6-0.2c-0.3-0.3-0.3-0.8,0-1.1c2.8-2.7,4.3-6.4,4.6-10.9c0.2-4.3-0.9-6.5-2.2-8.7
		c-0.4-0.6-0.5-0.8-0.9-1.2c-0.3-0.3-0.3-0.8,0-1.1c0.3-0.3,0.8-0.3,1.1,0c0.6,0.5,0.7,0.8,1.2,1.5c1.4,2.3,2.7,4.8,2.4,9.6
		c-0.3,4.9-2,9-5,12C17.6,38.5,17.4,38.5,17.2,38.5z"/>
	<path class="st0" d="M2.6,28.4c-0.3,0-0.5-0.1-0.7-0.4c-0.2-0.4-0.1-0.9,0.2-1.1c2.5-1.7,3.3-4.4,4.1-7.6c0.1-0.4,0.5-0.7,1-0.6
		c0.4,0.1,0.7,0.5,0.6,1C7,23.1,6,26.3,3,28.3C2.9,28.4,2.7,28.4,2.6,28.4z"/>
	<path class="st0" d="M23.8,20.5c-0.4,0-0.7-0.2-0.8-0.6c-0.6-2.3-1.3-3.8-2.8-5.5c-2-2.3-4.7-3.4-7.1-3c-1.8,0.3-3.1,1.3-3.8,3
		c-0.3,0.7-0.6,1.6-0.9,2.6c-0.1,0.4-0.5,0.7-1,0.6c-0.4-0.1-0.7-0.5-0.6-1c0.3-1.1,0.6-2,0.9-2.8c0.9-2.1,2.8-3.6,5-3.9
		c3-0.5,6.2,0.9,8.6,3.6c1.6,1.8,2.5,3.6,3.1,6.1c0.1,0.4-0.2,0.9-0.6,1C23.9,20.5,23.8,20.5,23.8,20.5z"/>
	<path class="st0" d="M23.8,19.7"/>
	<path class="st0" d="M23.2,34.2c-0.1,0-0.2,0-0.3-0.1c-0.4-0.2-0.6-0.6-0.5-1c1.6-4.2,1.7-6.3,1.2-9.5c-0.1-0.4-0.1-0.7-0.2-1
		c-0.1-0.4,0.2-0.8,0.7-0.9c0.4-0.1,0.8,0.2,0.9,0.7c0.1,0.3,0.1,0.7,0.2,1c0.5,3.4,0.4,5.8-1.3,10.3C23.8,34,23.5,34.2,23.2,34.2z"
		/>
	<path class="st0" d="M2.2,23.5c-0.2,0-0.4-0.1-0.5-0.2c-0.3-0.3-0.3-0.8,0-1.1c1.4-1.5,1.6-3,1.9-4.9c0.2-1.4,0.5-3.1,1.3-5
		c0.9-2.2,2.6-3.9,4.9-4.9c0.4-0.2,0.9,0,1,0.4c0.2,0.4,0,0.9-0.4,1c-1.9,0.8-3.3,2.2-4,4.1c-0.7,1.8-1,3.3-1.2,4.7
		c-0.3,2-0.6,3.9-2.3,5.7C2.6,23.4,2.4,23.5,2.2,23.5z"/>
	<path class="st0" d="M24.1,13.4c-0.3,0-0.5-0.1-0.7-0.3c-1.3-1.8-3-3.2-5.3-4.1c-2.2-0.9-3.9-1.1-5.5-0.9c-0.4,0.1-0.8-0.2-0.9-0.7
		c-0.1-0.4,0.2-0.8,0.7-0.9c2-0.3,3.9,0,6.4,0.9c2.6,1,4.6,2.6,6,4.7c0.3,0.4,0.2,0.9-0.2,1.1C24.4,13.4,24.3,13.4,24.1,13.4z"/>
	<path class="st0" d="M24.1,12.6"/>
	<path class="st0" d="M27.1,29.6c0,0-0.1,0-0.1,0c-0.4-0.1-0.7-0.5-0.7-0.9c0.8-5.7,0.2-7.8-0.8-11.1l-0.1-0.4
		c-0.2-0.7-0.5-1.4-0.7-2c-0.2-0.4,0-0.9,0.4-1c0.4-0.2,0.9,0,1,0.4c0.3,0.7,0.6,1.4,0.8,2.1l0.1,0.4c1,3.3,1.7,5.7,0.9,11.8
		C27.8,29.3,27.5,29.6,27.1,29.6z"/>
	<path class="st0" d="M0.8,19.1c-0.1,0-0.1,0-0.2,0c-0.4-0.1-0.7-0.6-0.6-1c0.1-0.5,0.3-1.1,0.4-1.8c0.5-2.5,1.3-5.9,3.4-8.1
		c0.3-0.3,0.8-0.3,1.1,0C5.3,8.5,5.3,9,5,9.4c-1.9,1.9-2.5,4.9-3,7.3c-0.1,0.7-0.3,1.3-0.4,1.9C1.5,18.9,1.1,19.1,0.8,19.1z"/>
	<path class="st0" d="M6.4,7.7c-0.2,0-0.5-0.1-0.6-0.3C5.5,7.1,5.5,6.6,5.9,6.3c2.6-2.2,6-3.3,9.2-3.1c1.9,0.1,4,0.7,5.8,1.5
		c0.4,0.2,0.6,0.7,0.4,1.1c-0.2,0.4-0.7,0.6-1.1,0.4c-1.7-0.8-3.5-1.3-5.2-1.4c-2.8-0.2-5.8,0.9-8.1,2.8C6.7,7.6,6.5,7.7,6.4,7.7z"
		/>
	<path class="st0" d="M20.5,5"/>
	<path class="st0" d="M29,17.1c-0.4,0-0.7-0.2-0.8-0.6c-1-4.2-2.9-7.1-5.9-9.1c-0.4-0.2-0.5-0.7-0.2-1.1c0.2-0.4,0.7-0.5,1.1-0.2
		c3.4,2.2,5.5,5.4,6.6,10c0.1,0.4-0.2,0.9-0.6,1C29.1,17.1,29.1,17.1,29,17.1z"/>
	<path class="st0" d="M5.5,4.6C5.2,4.6,5,4.5,4.8,4.3C4.6,4,4.6,3.5,5,3.2c2.7-2,5.9-3.2,9-3.2c0.4,0,0.8,0.3,0.8,0.8
		c0,0.4-0.3,0.8-0.8,0.8c-2.8,0.1-5.6,1.1-8.1,2.9C5.8,4.6,5.6,4.6,5.5,4.6z"/>
	<path class="st0" d="M26.2,6.3c-0.2,0-0.4-0.1-0.6-0.3c-2.3-2.4-5.7-4.1-9.2-4.4c-0.4,0-0.8-0.4-0.7-0.9c0-0.4,0.4-0.8,0.9-0.7
		c3.8,0.4,7.6,2.3,10.2,4.9c0.3,0.3,0.3,0.8,0,1.1C26.5,6.3,26.4,6.3,26.2,6.3z"/>
</g>
</svg>